M48
; DRILL file {KiCad (6.0.7)} date Sun Oct  2 17:15:59 2022
; FORMAT={-:-/ absolute / metric / decimal}
; #@! TF.CreationDate,2022-10-02T17:15:59-07:00
; #@! TF.GenerationSoftware,Kicad,Pcbnew,(6.0.7)
; #@! TF.FileFunction,MixedPlating,1,2
FMAT,2
METRIC
; #@! TA.AperFunction,Plated,PTH,ComponentDrill
T1C1.092
; #@! TA.AperFunction,Plated,PTH,ComponentDrill
T2C1.470
; #@! TA.AperFunction,NonPlated,NPTH,ComponentDrill
T3C1.750
; #@! TA.AperFunction,NonPlated,NPTH,ComponentDrill
T4C3.048
; #@! TA.AperFunction,NonPlated,NPTH,ComponentDrill
T5C3.200
; #@! TA.AperFunction,NonPlated,NPTH,ComponentDrill
T6C3.988
%
G90
G05
T1
X69.743Y-29.011
X69.743Y-31.551
X69.743Y-34.091
X69.743Y-36.631
X69.743Y-39.171
X69.743Y-41.711
X69.743Y-44.251
X69.743Y-46.791
X69.743Y-49.331
X69.743Y-51.871
X69.743Y-54.411
X69.743Y-56.951
X84.983Y-29.011
X84.983Y-31.551
X84.983Y-34.091
X84.983Y-36.631
X84.983Y-39.171
X84.983Y-41.711
X84.983Y-44.251
X84.983Y-46.791
X84.983Y-49.331
X84.983Y-51.871
X84.983Y-54.411
X84.983Y-56.951
T2
X85.332Y-70.286
X86.642Y-68.826
X90.095Y-51.236
X91.405Y-49.776
X91.642Y-68.326
X91.682Y-67.746
X92.476Y-32.186
X93.786Y-30.726
X94.857Y-89.336
X96.167Y-87.876
X96.405Y-49.276
X96.445Y-48.696
X98.786Y-30.226
X98.826Y-29.646
X101.167Y-87.376
X101.207Y-86.796
X116.289Y-32.186
X116.289Y-51.236
X116.289Y-70.286
X116.289Y-89.336
X117.599Y-30.726
X117.599Y-49.776
X117.599Y-68.826
X117.599Y-87.876
X122.599Y-30.226
X122.599Y-49.276
X122.599Y-68.326
X122.599Y-87.376
X122.639Y-29.646
X122.639Y-48.696
X122.639Y-67.746
X122.639Y-86.796
X135.339Y-32.186
X135.339Y-51.236
X135.339Y-70.286
X135.339Y-89.336
X136.649Y-30.726
X136.649Y-49.776
X136.649Y-68.826
X136.649Y-87.876
X141.649Y-30.226
X141.649Y-49.276
X141.649Y-68.326
X141.649Y-87.376
X141.689Y-29.646
X141.689Y-48.696
X141.689Y-67.746
X141.689Y-86.796
X154.389Y-32.186
X154.389Y-51.236
X154.389Y-70.286
X154.389Y-89.336
X155.699Y-30.726
X155.699Y-49.776
X155.699Y-68.826
X155.699Y-87.876
X160.699Y-30.226
X160.699Y-49.276
X160.699Y-68.326
X160.699Y-87.376
X160.739Y-29.646
X160.739Y-48.696
X160.739Y-67.746
X160.739Y-86.796
X173.439Y-32.186
X173.439Y-51.236
X173.439Y-70.286
X173.439Y-89.336
X174.749Y-30.726
X174.749Y-49.776
X174.749Y-68.826
X174.749Y-87.876
X179.749Y-30.226
X179.749Y-49.276
X179.749Y-68.326
X179.749Y-87.376
X179.789Y-29.646
X179.789Y-48.696
X179.789Y-67.746
X179.789Y-86.796
X192.489Y-32.186
X192.489Y-51.236
X192.489Y-70.286
X193.799Y-30.726
X193.799Y-49.776
X193.799Y-68.826
X198.799Y-30.226
X198.799Y-49.276
X198.799Y-68.326
X198.839Y-29.646
X198.839Y-48.696
X198.839Y-67.746
X202.014Y-89.336
X203.324Y-87.876
X208.324Y-87.376
X208.364Y-86.796
X211.539Y-32.186
X211.539Y-51.236
X211.539Y-70.286
X212.849Y-30.726
X212.849Y-49.776
X212.849Y-68.826
X217.849Y-30.226
X217.849Y-49.276
X217.849Y-68.326
X217.889Y-29.646
X217.889Y-48.696
X217.889Y-67.746
X230.589Y-32.186
X230.589Y-51.236
X230.589Y-70.286
X230.589Y-89.336
X231.899Y-30.726
X231.899Y-49.776
X231.899Y-68.826
X231.899Y-87.876
X236.899Y-30.226
X236.899Y-49.276
X236.899Y-68.326
X236.899Y-87.376
X236.939Y-29.646
X236.939Y-48.696
X236.939Y-67.746
X236.939Y-86.796
X249.639Y-32.186
X249.639Y-51.236
X249.639Y-70.286
X249.639Y-89.336
X250.949Y-30.726
X250.949Y-49.776
X250.949Y-68.826
X250.949Y-87.876
X255.949Y-30.226
X255.949Y-49.276
X255.949Y-68.326
X255.949Y-87.376
X255.989Y-29.646
X255.989Y-48.696
X255.989Y-67.746
X255.989Y-86.796
X268.689Y-32.186
X268.689Y-51.236
X268.689Y-70.286
X268.689Y-89.336
X269.999Y-30.726
X269.999Y-49.776
X269.999Y-68.826
X269.999Y-87.876
X274.999Y-30.226
X274.999Y-49.276
X274.999Y-68.326
X274.999Y-87.376
X275.039Y-29.646
X275.039Y-48.696
X275.039Y-67.746
X275.039Y-86.796
X287.739Y-32.186
X287.739Y-51.236
X287.739Y-70.286
X287.739Y-89.336
X289.049Y-30.726
X289.049Y-49.776
X289.049Y-68.826
X289.049Y-87.876
X294.049Y-30.226
X294.049Y-49.276
X294.049Y-68.326
X294.049Y-87.376
X294.089Y-29.646
X294.089Y-48.696
X294.089Y-67.746
X294.089Y-86.796
X309.17Y-89.336
X310.48Y-87.876
X311.551Y-32.186
X312.861Y-30.726
X315.48Y-87.376
X315.52Y-86.796
X317.861Y-30.226
X317.901Y-29.646
X318.695Y-51.236
X320.005Y-49.776
X323.457Y-70.286
X324.767Y-68.826
X325.005Y-49.276
X325.045Y-48.696
X329.767Y-68.326
X329.807Y-67.746
T3
X84.062Y-72.826
X88.825Y-53.776
X91.206Y-34.726
X93.587Y-91.876
X94.222Y-72.826
X98.985Y-53.776
X101.366Y-34.726
X103.747Y-91.876
X115.019Y-34.726
X115.019Y-53.776
X115.019Y-72.826
X115.019Y-91.876
X125.179Y-34.726
X125.179Y-53.776
X125.179Y-72.826
X125.179Y-91.876
X134.069Y-34.726
X134.069Y-53.776
X134.069Y-72.826
X134.069Y-91.876
X144.229Y-34.726
X144.229Y-53.776
X144.229Y-72.826
X144.229Y-91.876
X153.119Y-34.726
X153.119Y-53.776
X153.119Y-72.826
X153.119Y-91.876
X163.279Y-34.726
X163.279Y-53.776
X163.279Y-72.826
X163.279Y-91.876
X172.169Y-34.726
X172.169Y-53.776
X172.169Y-72.826
X172.169Y-91.876
X182.329Y-34.726
X182.329Y-53.776
X182.329Y-72.826
X182.329Y-91.876
X191.219Y-34.726
X191.219Y-53.776
X191.219Y-72.826
X200.744Y-91.876
X201.379Y-34.726
X201.379Y-53.776
X201.379Y-72.826
X210.269Y-34.726
X210.269Y-53.776
X210.269Y-72.826
X210.904Y-91.876
X220.429Y-34.726
X220.429Y-53.776
X220.429Y-72.826
X229.319Y-34.726
X229.319Y-53.776
X229.319Y-72.826
X229.319Y-91.876
X239.479Y-34.726
X239.479Y-53.776
X239.479Y-72.826
X239.479Y-91.876
X248.369Y-34.726
X248.369Y-53.776
X248.369Y-72.826
X248.369Y-91.876
X258.529Y-34.726
X258.529Y-53.776
X258.529Y-72.826
X258.529Y-91.876
X267.419Y-34.726
X267.419Y-53.776
X267.419Y-72.826
X267.419Y-91.876
X277.579Y-34.726
X277.579Y-53.776
X277.579Y-72.826
X277.579Y-91.876
X286.469Y-34.726
X286.469Y-53.776
X286.469Y-72.826
X286.469Y-91.876
X296.629Y-34.726
X296.629Y-53.776
X296.629Y-72.826
X296.629Y-91.876
X307.9Y-91.876
X310.281Y-34.726
X317.425Y-53.776
X318.06Y-91.876
X320.441Y-34.726
X322.187Y-72.826
X327.585Y-53.776
X332.347Y-72.826
T4
X77.204Y-65.841
X101.08Y-65.841
X193.886Y-84.891
X217.762Y-84.891
X310.567Y-46.791
X315.329Y-65.841
X334.443Y-46.791
X339.205Y-65.841
T5
X69.5Y-100.5
X352.0Y-30.25
X352.0Y-100.5
T6
X77.204Y-81.081
X89.142Y-72.826
X93.905Y-53.776
X96.286Y-34.726
X98.667Y-91.876
X101.08Y-81.081
X120.099Y-34.726
X120.099Y-53.776
X120.099Y-72.826
X120.099Y-91.876
X139.149Y-34.726
X139.149Y-53.776
X139.149Y-72.826
X139.149Y-91.876
X158.199Y-34.726
X158.199Y-53.776
X158.199Y-72.826
X158.199Y-91.876
X177.249Y-34.726
X177.249Y-53.776
X177.249Y-72.826
X177.249Y-91.876
X193.886Y-100.131
X196.299Y-34.726
X196.299Y-53.776
X196.299Y-72.826
X205.824Y-91.876
X215.349Y-34.726
X215.349Y-53.776
X215.349Y-72.826
X217.762Y-100.131
X234.399Y-34.726
X234.399Y-53.776
X234.399Y-72.826
X234.399Y-91.876
X253.449Y-34.726
X253.449Y-53.776
X253.449Y-72.826
X253.449Y-91.876
X272.499Y-34.726
X272.499Y-53.776
X272.499Y-72.826
X272.499Y-91.876
X291.549Y-34.726
X291.549Y-53.776
X291.549Y-72.826
X291.549Y-91.876
X310.567Y-62.031
X312.98Y-91.876
X315.329Y-81.081
X315.361Y-34.726
X322.505Y-53.776
X327.267Y-72.826
X334.443Y-62.031
X339.205Y-81.081
T0
M30
