G04 #@! TF.GenerationSoftware,KiCad,Pcbnew,(6.0.7)*
G04 #@! TF.CreationDate,2022-10-02T17:15:59-07:00*
G04 #@! TF.ProjectId,keyboard,6b657962-6f61-4726-942e-6b696361645f,rev?*
G04 #@! TF.SameCoordinates,Original*
G04 #@! TF.FileFunction,Copper,L1,Top*
G04 #@! TF.FilePolarity,Positive*
%FSLAX46Y46*%
G04 Gerber Fmt 4.6, Leading zero omitted, Abs format (unit mm)*
G04 Created by KiCad (PCBNEW (6.0.7)) date 2022-10-02 17:15:59*
%MOMM*%
%LPD*%
G01*
G04 APERTURE LIST*
G04 Aperture macros list*
%AMHorizOval*
0 Thick line with rounded ends*
0 $1 width*
0 $2 $3 position (X,Y) of the first rounded end (center of the circle)*
0 $4 $5 position (X,Y) of the second rounded end (center of the circle)*
0 Add line between two ends*
20,1,$1,$2,$3,$4,$5,0*
0 Add two circle primitives to create the rounded ends*
1,1,$1,$2,$3*
1,1,$1,$4,$5*%
G04 Aperture macros list end*
G04 #@! TA.AperFunction,ComponentPad*
%ADD10HorizOval,2.250000X0.655001X0.730000X-0.655001X-0.730000X0*%
G04 #@! TD*
G04 #@! TA.AperFunction,ComponentPad*
%ADD11C,2.250000*%
G04 #@! TD*
G04 #@! TA.AperFunction,ComponentPad*
%ADD12HorizOval,2.250000X0.020000X0.290000X-0.020000X-0.290000X0*%
G04 #@! TD*
G04 #@! TA.AperFunction,ComponentPad*
%ADD13R,1.752600X1.752600*%
G04 #@! TD*
G04 #@! TA.AperFunction,ComponentPad*
%ADD14C,1.752600*%
G04 #@! TD*
G04 #@! TA.AperFunction,Conductor*
%ADD15C,0.250000*%
G04 #@! TD*
G04 APERTURE END LIST*
D10*
G04 #@! TO.P,K_10,1,COL*
G04 #@! TO.N,col10*
X288393626Y-31456000D03*
D11*
X289048625Y-30726000D03*
D12*
G04 #@! TO.P,K_10,2,ROW*
G04 #@! TO.N,Net-(D_10-Pad2)*
X294068625Y-29936000D03*
D11*
X294088625Y-29646000D03*
G04 #@! TD*
G04 #@! TO.P,K_14,1,COL*
G04 #@! TO.N,col2*
X136648625Y-49776000D03*
D10*
X135993626Y-50506000D03*
D11*
G04 #@! TO.P,K_14,2,ROW*
G04 #@! TO.N,Net-(D_14-Pad2)*
X141688625Y-48696000D03*
D12*
X141668625Y-48986000D03*
G04 #@! TD*
D10*
G04 #@! TO.P,K_42,1,COL*
G04 #@! TO.N,col7*
X231243626Y-88606000D03*
D11*
X231898625Y-87876000D03*
G04 #@! TO.P,K_42,2,ROW*
G04 #@! TO.N,Net-(D_42-Pad2)*
X236938625Y-86796000D03*
D12*
X236918625Y-87086000D03*
G04 #@! TD*
D11*
G04 #@! TO.P,K_30,1,COL*
G04 #@! TO.N,col6*
X212848625Y-68826000D03*
D10*
X212193626Y-69556000D03*
D11*
G04 #@! TO.P,K_30,2,ROW*
G04 #@! TO.N,Net-(D_30-Pad2)*
X217888625Y-67746000D03*
D12*
X217868625Y-68036000D03*
G04 #@! TD*
D11*
G04 #@! TO.P,K_44,1,COL*
G04 #@! TO.N,col9*
X269998625Y-87876000D03*
D10*
X269343626Y-88606000D03*
D12*
G04 #@! TO.P,K_44,2,ROW*
G04 #@! TO.N,Net-(D_44-Pad2)*
X275018625Y-87086000D03*
D11*
X275038625Y-86796000D03*
G04 #@! TD*
D10*
G04 #@! TO.P,K_31,1,COL*
G04 #@! TO.N,col7*
X231243626Y-69556000D03*
D11*
X231898625Y-68826000D03*
D12*
G04 #@! TO.P,K_31,2,ROW*
G04 #@! TO.N,Net-(D_31-Pad2)*
X236918625Y-68036000D03*
D11*
X236938625Y-67746000D03*
G04 #@! TD*
G04 #@! TO.P,K_36,1,COL*
G04 #@! TO.N,col0*
X96167375Y-87876000D03*
D10*
X95512376Y-88606000D03*
D12*
G04 #@! TO.P,K_36,2,ROW*
G04 #@! TO.N,Net-(D_36-Pad2)*
X101187375Y-87086000D03*
D11*
X101207375Y-86796000D03*
G04 #@! TD*
G04 #@! TO.P,K_19,1,COL*
G04 #@! TO.N,col7*
X231898625Y-49776000D03*
D10*
X231243626Y-50506000D03*
D12*
G04 #@! TO.P,K_19,2,ROW*
G04 #@! TO.N,Net-(D_19-Pad2)*
X236918625Y-48986000D03*
D11*
X236938625Y-48696000D03*
G04 #@! TD*
G04 #@! TO.P,K_28,1,COL*
G04 #@! TO.N,col4*
X174748625Y-68826000D03*
D10*
X174093626Y-69556000D03*
D11*
G04 #@! TO.P,K_28,2,ROW*
G04 #@! TO.N,Net-(D_28-Pad2)*
X179788625Y-67746000D03*
D12*
X179768625Y-68036000D03*
G04 #@! TD*
D10*
G04 #@! TO.P,K_16,1,COL*
G04 #@! TO.N,col4*
X174093626Y-50506000D03*
D11*
X174748625Y-49776000D03*
G04 #@! TO.P,K_16,2,ROW*
G04 #@! TO.N,Net-(D_16-Pad2)*
X179788625Y-48696000D03*
D12*
X179768625Y-48986000D03*
G04 #@! TD*
D10*
G04 #@! TO.P,K_45,1,COL*
G04 #@! TO.N,col10*
X288393626Y-88606000D03*
D11*
X289048625Y-87876000D03*
D12*
G04 #@! TO.P,K_45,2,ROW*
G04 #@! TO.N,Net-(D_45-Pad2)*
X294068625Y-87086000D03*
D11*
X294088625Y-86796000D03*
G04 #@! TD*
G04 #@! TO.P,K_4,1,COL*
G04 #@! TO.N,col4*
X174748625Y-30726000D03*
D10*
X174093626Y-31456000D03*
D12*
G04 #@! TO.P,K_4,2,ROW*
G04 #@! TO.N,Net-(D_4-Pad2)*
X179768625Y-29936000D03*
D11*
X179788625Y-29646000D03*
G04 #@! TD*
D10*
G04 #@! TO.P,K_25,1,COL*
G04 #@! TO.N,col1*
X116943626Y-69556000D03*
D11*
X117598625Y-68826000D03*
G04 #@! TO.P,K_25,2,ROW*
G04 #@! TO.N,Net-(D_25-Pad2)*
X122638625Y-67746000D03*
D12*
X122618625Y-68036000D03*
G04 #@! TD*
D10*
G04 #@! TO.P,K_1,1,COL*
G04 #@! TO.N,col1*
X116943626Y-31456000D03*
D11*
X117598625Y-30726000D03*
G04 #@! TO.P,K_1,2,ROW*
G04 #@! TO.N,Net-(D_1-Pad2)*
X122638625Y-29646000D03*
D12*
X122618625Y-29936000D03*
G04 #@! TD*
D10*
G04 #@! TO.P,K_32,1,COL*
G04 #@! TO.N,col8*
X250293626Y-69556000D03*
D11*
X250948625Y-68826000D03*
G04 #@! TO.P,K_32,2,ROW*
G04 #@! TO.N,Net-(D_32-Pad2)*
X255988625Y-67746000D03*
D12*
X255968625Y-68036000D03*
G04 #@! TD*
D11*
G04 #@! TO.P,K_15,1,COL*
G04 #@! TO.N,col3*
X155698625Y-49776000D03*
D10*
X155043626Y-50506000D03*
D12*
G04 #@! TO.P,K_15,2,ROW*
G04 #@! TO.N,Net-(D_15-Pad2)*
X160718625Y-48986000D03*
D11*
X160738625Y-48696000D03*
G04 #@! TD*
D10*
G04 #@! TO.P,K_39,1,COL*
G04 #@! TO.N,col3*
X155043626Y-88606000D03*
D11*
X155698625Y-87876000D03*
D12*
G04 #@! TO.P,K_39,2,ROW*
G04 #@! TO.N,Net-(D_39-Pad2)*
X160718625Y-87086000D03*
D11*
X160738625Y-86796000D03*
G04 #@! TD*
G04 #@! TO.P,K_2,1,COL*
G04 #@! TO.N,col2*
X136648625Y-30726000D03*
D10*
X135993626Y-31456000D03*
D11*
G04 #@! TO.P,K_2,2,ROW*
G04 #@! TO.N,Net-(D_2-Pad2)*
X141688625Y-29646000D03*
D12*
X141668625Y-29936000D03*
G04 #@! TD*
D11*
G04 #@! TO.P,K_3,1,COL*
G04 #@! TO.N,col3*
X155698625Y-30726000D03*
D10*
X155043626Y-31456000D03*
D12*
G04 #@! TO.P,K_3,2,ROW*
G04 #@! TO.N,Net-(D_3-Pad2)*
X160718625Y-29936000D03*
D11*
X160738625Y-29646000D03*
G04 #@! TD*
D10*
G04 #@! TO.P,K_21,1,COL*
G04 #@! TO.N,col9*
X269343626Y-50506000D03*
D11*
X269998625Y-49776000D03*
G04 #@! TO.P,K_21,2,ROW*
G04 #@! TO.N,Net-(D_21-Pad2)*
X275038625Y-48696000D03*
D12*
X275018625Y-48986000D03*
G04 #@! TD*
D10*
G04 #@! TO.P,K_18,1,COL*
G04 #@! TO.N,col6*
X212193626Y-50506000D03*
D11*
X212848625Y-49776000D03*
G04 #@! TO.P,K_18,2,ROW*
G04 #@! TO.N,Net-(D_18-Pad2)*
X217888625Y-48696000D03*
D12*
X217868625Y-48986000D03*
G04 #@! TD*
D11*
G04 #@! TO.P,K_43,1,COL*
G04 #@! TO.N,col8*
X250948625Y-87876000D03*
D10*
X250293626Y-88606000D03*
D12*
G04 #@! TO.P,K_43,2,ROW*
G04 #@! TO.N,Net-(D_43-Pad2)*
X255968625Y-87086000D03*
D11*
X255988625Y-86796000D03*
G04 #@! TD*
D10*
G04 #@! TO.P,K_17,1,COL*
G04 #@! TO.N,col5*
X193143626Y-50506000D03*
D11*
X193798625Y-49776000D03*
G04 #@! TO.P,K_17,2,ROW*
G04 #@! TO.N,Net-(D_17-Pad2)*
X198838625Y-48696000D03*
D12*
X198818625Y-48986000D03*
G04 #@! TD*
D10*
G04 #@! TO.P,K_5,1,COL*
G04 #@! TO.N,col5*
X193143626Y-31456000D03*
D11*
X193798625Y-30726000D03*
D12*
G04 #@! TO.P,K_5,2,ROW*
G04 #@! TO.N,Net-(D_5-Pad2)*
X198818625Y-29936000D03*
D11*
X198838625Y-29646000D03*
G04 #@! TD*
G04 #@! TO.P,K_20,1,COL*
G04 #@! TO.N,col8*
X250948625Y-49776000D03*
D10*
X250293626Y-50506000D03*
D11*
G04 #@! TO.P,K_20,2,ROW*
G04 #@! TO.N,Net-(D_20-Pad2)*
X255988625Y-48696000D03*
D12*
X255968625Y-48986000D03*
G04 #@! TD*
D10*
G04 #@! TO.P,K_8,1,COL*
G04 #@! TO.N,col8*
X250293626Y-31456000D03*
D11*
X250948625Y-30726000D03*
G04 #@! TO.P,K_8,2,ROW*
G04 #@! TO.N,Net-(D_8-Pad2)*
X255988625Y-29646000D03*
D12*
X255968625Y-29936000D03*
G04 #@! TD*
D10*
G04 #@! TO.P,K_7,1,COL*
G04 #@! TO.N,col7*
X231243626Y-31456000D03*
D11*
X231898625Y-30726000D03*
D12*
G04 #@! TO.P,K_7,2,ROW*
G04 #@! TO.N,Net-(D_7-Pad2)*
X236918625Y-29936000D03*
D11*
X236938625Y-29646000D03*
G04 #@! TD*
D10*
G04 #@! TO.P,K_12,1,COL*
G04 #@! TO.N,col0*
X90749876Y-50506000D03*
D11*
X91404875Y-49776000D03*
G04 #@! TO.P,K_12,2,ROW*
G04 #@! TO.N,Net-(D_12-Pad2)*
X96444875Y-48696000D03*
D12*
X96424875Y-48986000D03*
G04 #@! TD*
D11*
G04 #@! TO.P,K_23,1,COL*
G04 #@! TO.N,col11*
X320004875Y-49776000D03*
D10*
X319349876Y-50506000D03*
D11*
G04 #@! TO.P,K_23,2,ROW*
G04 #@! TO.N,Net-(D_23-Pad2)*
X325044875Y-48696000D03*
D12*
X325024875Y-48986000D03*
G04 #@! TD*
D11*
G04 #@! TO.P,K_33,1,COL*
G04 #@! TO.N,col9*
X269998625Y-68826000D03*
D10*
X269343626Y-69556000D03*
D12*
G04 #@! TO.P,K_33,2,ROW*
G04 #@! TO.N,Net-(D_33-Pad2)*
X275018625Y-68036000D03*
D11*
X275038625Y-67746000D03*
G04 #@! TD*
G04 #@! TO.P,K_29,1,COL*
G04 #@! TO.N,col5*
X193798625Y-68826000D03*
D10*
X193143626Y-69556000D03*
D12*
G04 #@! TO.P,K_29,2,ROW*
G04 #@! TO.N,Net-(D_29-Pad2)*
X198818625Y-68036000D03*
D11*
X198838625Y-67746000D03*
G04 #@! TD*
G04 #@! TO.P,K_0,1,COL*
G04 #@! TO.N,col0*
X93786125Y-30726000D03*
D10*
X93131126Y-31456000D03*
D12*
G04 #@! TO.P,K_0,2,ROW*
G04 #@! TO.N,Net-(D_0-Pad2)*
X98806125Y-29936000D03*
D11*
X98826125Y-29646000D03*
G04 #@! TD*
D10*
G04 #@! TO.P,K_24,1,COL*
G04 #@! TO.N,col0*
X85987376Y-69556000D03*
D11*
X86642375Y-68826000D03*
G04 #@! TO.P,K_24,2,ROW*
G04 #@! TO.N,Net-(D_24-Pad2)*
X91682375Y-67746000D03*
D12*
X91662375Y-68036000D03*
G04 #@! TD*
D11*
G04 #@! TO.P,K_37,1,COL*
G04 #@! TO.N,col1*
X117598625Y-87876000D03*
D10*
X116943626Y-88606000D03*
D12*
G04 #@! TO.P,K_37,2,ROW*
G04 #@! TO.N,Net-(D_37-Pad2)*
X122618625Y-87086000D03*
D11*
X122638625Y-86796000D03*
G04 #@! TD*
D10*
G04 #@! TO.P,K_41,1,COL*
G04 #@! TO.N,col6*
X202668626Y-88606000D03*
D11*
X203323625Y-87876000D03*
G04 #@! TO.P,K_41,2,ROW*
G04 #@! TO.N,Net-(D_41-Pad2)*
X208363625Y-86796000D03*
D12*
X208343625Y-87086000D03*
G04 #@! TD*
D10*
G04 #@! TO.P,K_9,1,COL*
G04 #@! TO.N,col9*
X269343626Y-31456000D03*
D11*
X269998625Y-30726000D03*
G04 #@! TO.P,K_9,2,ROW*
G04 #@! TO.N,Net-(D_9-Pad2)*
X275038625Y-29646000D03*
D12*
X275018625Y-29936000D03*
G04 #@! TD*
D11*
G04 #@! TO.P,K_46,1,COL*
G04 #@! TO.N,col11*
X310479875Y-87876000D03*
D10*
X309824876Y-88606000D03*
D11*
G04 #@! TO.P,K_46,2,ROW*
G04 #@! TO.N,Net-(D_46-Pad2)*
X315519875Y-86796000D03*
D12*
X315499875Y-87086000D03*
G04 #@! TD*
D10*
G04 #@! TO.P,K_27,1,COL*
G04 #@! TO.N,col3*
X155043626Y-69556000D03*
D11*
X155698625Y-68826000D03*
D12*
G04 #@! TO.P,K_27,2,ROW*
G04 #@! TO.N,Net-(D_27-Pad2)*
X160718625Y-68036000D03*
D11*
X160738625Y-67746000D03*
G04 #@! TD*
G04 #@! TO.P,K_22,1,COL*
G04 #@! TO.N,col10*
X289048625Y-49776000D03*
D10*
X288393626Y-50506000D03*
D11*
G04 #@! TO.P,K_22,2,ROW*
G04 #@! TO.N,Net-(D_22-Pad2)*
X294088625Y-48696000D03*
D12*
X294068625Y-48986000D03*
G04 #@! TD*
D10*
G04 #@! TO.P,K_26,1,COL*
G04 #@! TO.N,col2*
X135993626Y-69556000D03*
D11*
X136648625Y-68826000D03*
G04 #@! TO.P,K_26,2,ROW*
G04 #@! TO.N,Net-(D_26-Pad2)*
X141688625Y-67746000D03*
D12*
X141668625Y-68036000D03*
G04 #@! TD*
D11*
G04 #@! TO.P,K_40,1,COL*
G04 #@! TO.N,col4*
X174748625Y-87876000D03*
D10*
X174093626Y-88606000D03*
D12*
G04 #@! TO.P,K_40,2,ROW*
G04 #@! TO.N,Net-(D_40-Pad2)*
X179768625Y-87086000D03*
D11*
X179788625Y-86796000D03*
G04 #@! TD*
G04 #@! TO.P,K_38,1,COL*
G04 #@! TO.N,col2*
X136648625Y-87876000D03*
D10*
X135993626Y-88606000D03*
D11*
G04 #@! TO.P,K_38,2,ROW*
G04 #@! TO.N,Net-(D_38-Pad2)*
X141688625Y-86796000D03*
D12*
X141668625Y-87086000D03*
G04 #@! TD*
D10*
G04 #@! TO.P,K_35,1,COL*
G04 #@! TO.N,col11*
X324112376Y-69556000D03*
D11*
X324767375Y-68826000D03*
G04 #@! TO.P,K_35,2,ROW*
G04 #@! TO.N,Net-(D_35-Pad2)*
X329807375Y-67746000D03*
D12*
X329787375Y-68036000D03*
G04 #@! TD*
D11*
G04 #@! TO.P,K_34,1,COL*
G04 #@! TO.N,col10*
X289048625Y-68826000D03*
D10*
X288393626Y-69556000D03*
D12*
G04 #@! TO.P,K_34,2,ROW*
G04 #@! TO.N,Net-(D_34-Pad2)*
X294068625Y-68036000D03*
D11*
X294088625Y-67746000D03*
G04 #@! TD*
D10*
G04 #@! TO.P,K_13,1,COL*
G04 #@! TO.N,col1*
X116943626Y-50506000D03*
D11*
X117598625Y-49776000D03*
G04 #@! TO.P,K_13,2,ROW*
G04 #@! TO.N,Net-(D_13-Pad2)*
X122638625Y-48696000D03*
D12*
X122618625Y-48986000D03*
G04 #@! TD*
D11*
G04 #@! TO.P,K_11,1,COL*
G04 #@! TO.N,col11*
X312861125Y-30726000D03*
D10*
X312206126Y-31456000D03*
D12*
G04 #@! TO.P,K_11,2,ROW*
G04 #@! TO.N,Net-(D_11-Pad2)*
X317881125Y-29936000D03*
D11*
X317901125Y-29646000D03*
G04 #@! TD*
G04 #@! TO.P,K_6,1,COL*
G04 #@! TO.N,col6*
X212848625Y-30726000D03*
D10*
X212193626Y-31456000D03*
D11*
G04 #@! TO.P,K_6,2,ROW*
G04 #@! TO.N,Net-(D_6-Pad2)*
X217888625Y-29646000D03*
D12*
X217868625Y-29936000D03*
G04 #@! TD*
D13*
G04 #@! TO.P,U1,1,TX0/PD3*
G04 #@! TO.N,col11*
X84983125Y-29011000D03*
D14*
G04 #@! TO.P,U1,2,RX1/PD2*
G04 #@! TO.N,col10*
X84983125Y-31551000D03*
G04 #@! TO.P,U1,3,GND*
G04 #@! TO.N,GND*
X84983125Y-34091000D03*
G04 #@! TO.P,U1,4,GND*
X84983125Y-36631000D03*
G04 #@! TO.P,U1,5,2/PD1*
G04 #@! TO.N,row0*
X84983125Y-39171000D03*
G04 #@! TO.P,U1,6,3/PD0*
G04 #@! TO.N,row1*
X84983125Y-41711000D03*
G04 #@! TO.P,U1,7,4/PD4*
G04 #@! TO.N,row2*
X84983125Y-44251000D03*
G04 #@! TO.P,U1,8,5/PC6*
G04 #@! TO.N,row3*
X84983125Y-46791000D03*
G04 #@! TO.P,U1,9,6/PD7*
G04 #@! TO.N,col9*
X84983125Y-49331000D03*
G04 #@! TO.P,U1,10,7/PE6*
G04 #@! TO.N,unconnected-(U1-Pad10)*
X84983125Y-51871000D03*
G04 #@! TO.P,U1,11,8/PB4*
G04 #@! TO.N,unconnected-(U1-Pad11)*
X84983125Y-54411000D03*
G04 #@! TO.P,U1,12,9/PB5*
G04 #@! TO.N,col0*
X84983125Y-56951000D03*
G04 #@! TO.P,U1,13,10/PB6*
G04 #@! TO.N,col8*
X69743125Y-56951000D03*
G04 #@! TO.P,U1,14,16/PB2*
G04 #@! TO.N,col7*
X69743125Y-54411000D03*
G04 #@! TO.P,U1,15,14/PB3*
G04 #@! TO.N,col6*
X69743125Y-51871000D03*
G04 #@! TO.P,U1,16,15/PB1*
G04 #@! TO.N,col5*
X69743125Y-49331000D03*
G04 #@! TO.P,U1,17,A0/PF7*
G04 #@! TO.N,col4*
X69743125Y-46791000D03*
G04 #@! TO.P,U1,18,A1/PF6*
G04 #@! TO.N,col3*
X69743125Y-44251000D03*
G04 #@! TO.P,U1,19,A2/PF5*
G04 #@! TO.N,col2*
X69743125Y-41711000D03*
G04 #@! TO.P,U1,20,A3/PF4*
G04 #@! TO.N,col1*
X69743125Y-39171000D03*
G04 #@! TO.P,U1,21,VCC*
G04 #@! TO.N,unconnected-(U1-Pad21)*
X69743125Y-36631000D03*
G04 #@! TO.P,U1,22,RST*
G04 #@! TO.N,unconnected-(U1-Pad22)*
X69743125Y-34091000D03*
G04 #@! TO.P,U1,23,GND*
G04 #@! TO.N,GND*
X69743125Y-31551000D03*
G04 #@! TO.P,U1,24,RAW*
G04 #@! TO.N,unconnected-(U1-Pad24)*
X69743125Y-29011000D03*
G04 #@! TD*
D15*
G04 #@! TO.N,col0*
X84983125Y-56951000D02*
X84983125Y-69936750D01*
X85332375Y-79811000D02*
X85332375Y-70286000D01*
X92476125Y-48704750D02*
X91404875Y-49776000D01*
X92476125Y-32186000D02*
X92476125Y-48704750D01*
X90094875Y-51236000D02*
X90094875Y-65373500D01*
X84983125Y-69936750D02*
X85332375Y-70286000D01*
X94857375Y-89336000D02*
X85332375Y-79811000D01*
X90094875Y-65373500D02*
X86642375Y-68826000D01*
G04 #@! TO.N,col1*
X117598625Y-92831536D02*
X114930161Y-95500000D01*
X80230000Y-39020000D02*
X80250000Y-39000000D01*
X80230000Y-94980000D02*
X80230000Y-39020000D01*
X80250000Y-39000000D02*
X69914125Y-39000000D01*
X80750000Y-95500000D02*
X80230000Y-94980000D01*
X117598625Y-87876000D02*
X117598625Y-92831536D01*
X117598625Y-49776000D02*
X117598625Y-68826000D01*
X114930161Y-95500000D02*
X80750000Y-95500000D01*
X69914125Y-39000000D02*
X69743125Y-39171000D01*
X117598625Y-30726000D02*
X117598625Y-49776000D01*
X117598625Y-87876000D02*
X117598625Y-68826000D01*
G04 #@! TO.N,col2*
X136648625Y-91851375D02*
X132500000Y-96000000D01*
X132500000Y-96000000D02*
X79750000Y-96000000D01*
X136648625Y-87876000D02*
X136648625Y-68826000D01*
X136648625Y-49776000D02*
X136648625Y-30726000D01*
X79750000Y-96000000D02*
X79750000Y-41750000D01*
X136648625Y-87876000D02*
X136648625Y-91851375D01*
X79711000Y-41711000D02*
X69743125Y-41711000D01*
X136648625Y-68826000D02*
X136648625Y-49776000D01*
X79750000Y-41750000D02*
X79711000Y-41711000D01*
G04 #@! TO.N,col3*
X155698625Y-87876000D02*
X155698625Y-92301375D01*
X155698625Y-49776000D02*
X155698625Y-30726000D01*
X155698625Y-92301375D02*
X151250000Y-96750000D01*
X74750000Y-46002000D02*
X72999000Y-44251000D01*
X151250000Y-96750000D02*
X79500000Y-96750000D01*
X72999000Y-44251000D02*
X69743125Y-44251000D01*
X155698625Y-87876000D02*
X155698625Y-68826000D01*
X74750000Y-92000000D02*
X74750000Y-46002000D01*
X79500000Y-96750000D02*
X74750000Y-92000000D01*
X155698625Y-68826000D02*
X155698625Y-49776000D01*
G04 #@! TO.N,col4*
X170080161Y-97500000D02*
X79500000Y-97500000D01*
X72153000Y-46791000D02*
X69743125Y-46791000D01*
X174748625Y-87876000D02*
X174748625Y-68826000D01*
X79500000Y-97500000D02*
X74300000Y-92300000D01*
X74300000Y-48938000D02*
X72153000Y-46791000D01*
X174748625Y-68826000D02*
X174748625Y-49776000D01*
X174748625Y-92831536D02*
X170080161Y-97500000D01*
X174748625Y-87876000D02*
X174748625Y-92831536D01*
X174748625Y-30726000D02*
X174748625Y-49776000D01*
X74300000Y-92300000D02*
X74300000Y-48938000D01*
G04 #@! TO.N,col5*
X193798625Y-30726000D02*
X193798625Y-49776000D01*
X73750000Y-92386396D02*
X73750000Y-53337875D01*
X178300000Y-97950000D02*
X79313604Y-97950000D01*
X79313604Y-97950000D02*
X73750000Y-92386396D01*
X73750000Y-53337875D02*
X69743125Y-49331000D01*
X183578626Y-91901998D02*
X183578626Y-92671374D01*
X192488625Y-82991999D02*
X183578626Y-91901998D01*
X192488625Y-70286000D02*
X192488625Y-82991999D01*
X193798625Y-68826000D02*
X193798625Y-49776000D01*
X183578626Y-92671374D02*
X178300000Y-97950000D01*
G04 #@! TO.N,col6*
X183350000Y-98400000D02*
X79127208Y-98400000D01*
X212848625Y-78351000D02*
X212848625Y-68826000D01*
X193874000Y-87876000D02*
X183350000Y-98400000D01*
X79127208Y-98400000D02*
X73137864Y-92410656D01*
X212848625Y-78351000D02*
X203323625Y-87876000D01*
X71646729Y-51871000D02*
X69743125Y-51871000D01*
X212848625Y-49776000D02*
X212848625Y-30726000D01*
X73137864Y-53362135D02*
X71646729Y-51871000D01*
X212848625Y-68826000D02*
X212848625Y-49776000D01*
X203323625Y-87876000D02*
X193874000Y-87876000D01*
X73137864Y-92410656D02*
X73137864Y-53362135D01*
G04 #@! TO.N,col7*
X231898625Y-30726000D02*
X231898625Y-49776000D01*
X183900000Y-98850000D02*
X78850000Y-98850000D01*
X223316362Y-87876000D02*
X216442362Y-94750000D01*
X231898625Y-87876000D02*
X223316362Y-87876000D01*
X72687864Y-92687864D02*
X72687864Y-55000000D01*
X78850000Y-98850000D02*
X72687864Y-92687864D01*
X231898625Y-49776000D02*
X231898625Y-68826000D01*
X72687864Y-55000000D02*
X72098864Y-54411000D01*
X231898625Y-87876000D02*
X231898625Y-68826000D01*
X216442362Y-94750000D02*
X188000000Y-94750000D01*
X72098864Y-54411000D02*
X69743125Y-54411000D01*
X188000000Y-94750000D02*
X183900000Y-98850000D01*
G04 #@! TO.N,col8*
X78550000Y-99300000D02*
X72237864Y-92987864D01*
X186318198Y-97068198D02*
X184086396Y-99300000D01*
X250948625Y-49776000D02*
X250948625Y-30726000D01*
X71438864Y-56951000D02*
X69743125Y-56951000D01*
X72237864Y-57750000D02*
X71438864Y-56951000D01*
X250948625Y-87876000D02*
X248833089Y-87876000D01*
X248833089Y-87876000D02*
X239640891Y-97068198D01*
X239640891Y-97068198D02*
X186318198Y-97068198D01*
X250948625Y-68826000D02*
X250948625Y-49776000D01*
X72237864Y-92987864D02*
X72237864Y-57750000D01*
X250948625Y-87876000D02*
X250948625Y-68826000D01*
X184086396Y-99300000D02*
X78550000Y-99300000D01*
G04 #@! TO.N,col9*
X269998625Y-68826000D02*
X269998625Y-87876000D01*
X263502625Y-27000000D02*
X81750000Y-27000000D01*
X81500000Y-27250000D02*
X81500000Y-45847875D01*
X81500000Y-45847875D02*
X84983125Y-49331000D01*
X269998625Y-49776000D02*
X269998625Y-68826000D01*
X81750000Y-27000000D02*
X81500000Y-27250000D01*
X269998625Y-30726000D02*
X269998625Y-49776000D01*
X268688625Y-32186000D02*
X263502625Y-27000000D01*
G04 #@! TO.N,col10*
X289048625Y-68826000D02*
X289048625Y-49776000D01*
X289048625Y-49776000D02*
X289048625Y-30726000D01*
X289048625Y-87876000D02*
X289048625Y-68826000D01*
G04 #@! TO.N,col11*
X318694875Y-62753500D02*
X318694875Y-51236000D01*
X310479875Y-87876000D02*
X310479875Y-79230237D01*
X319424112Y-70286000D02*
X323457375Y-70286000D01*
X311551125Y-41322250D02*
X311551125Y-32186000D01*
X310479875Y-79230237D02*
X319424112Y-70286000D01*
X324767375Y-68826000D02*
X318694875Y-62753500D01*
X320004875Y-49776000D02*
X311551125Y-41322250D01*
G04 #@! TD*
M02*
