G04 #@! TF.GenerationSoftware,KiCad,Pcbnew,(6.0.7)*
G04 #@! TF.CreationDate,2022-10-02T17:15:59-07:00*
G04 #@! TF.ProjectId,keyboard,6b657962-6f61-4726-942e-6b696361645f,rev?*
G04 #@! TF.SameCoordinates,Original*
G04 #@! TF.FileFunction,Soldermask,Top*
G04 #@! TF.FilePolarity,Negative*
%FSLAX46Y46*%
G04 Gerber Fmt 4.6, Leading zero omitted, Abs format (unit mm)*
G04 Created by KiCad (PCBNEW (6.0.7)) date 2022-10-02 17:15:59*
%MOMM*%
%LPD*%
G01*
G04 APERTURE LIST*
%ADD10C,1.750000*%
%ADD11C,3.987800*%
%ADD12C,3.200000*%
%ADD13C,3.048000*%
%ADD14R,1.752600X1.752600*%
%ADD15C,1.752600*%
G04 APERTURE END LIST*
D10*
G04 #@! TO.C,K_10*
X286468625Y-34726000D03*
D11*
X291548625Y-34726000D03*
D10*
X296628625Y-34726000D03*
G04 #@! TD*
G04 #@! TO.C,K_14*
X134068625Y-53776000D03*
X144228625Y-53776000D03*
D11*
X139148625Y-53776000D03*
G04 #@! TD*
G04 #@! TO.C,K_42*
X234398625Y-91876000D03*
D10*
X239478625Y-91876000D03*
X229318625Y-91876000D03*
G04 #@! TD*
D11*
G04 #@! TO.C,K_30*
X215348625Y-72826000D03*
D10*
X210268625Y-72826000D03*
X220428625Y-72826000D03*
G04 #@! TD*
G04 #@! TO.C,K_44*
X277578625Y-91876000D03*
X267418625Y-91876000D03*
D11*
X272498625Y-91876000D03*
G04 #@! TD*
D12*
G04 #@! TO.C,MNT2*
X352000000Y-30250000D03*
G04 #@! TD*
D11*
G04 #@! TO.C,K_31*
X234398625Y-72826000D03*
D10*
X229318625Y-72826000D03*
X239478625Y-72826000D03*
G04 #@! TD*
D11*
G04 #@! TO.C,K_36*
X98667375Y-91876000D03*
D10*
X93587375Y-91876000D03*
X103747375Y-91876000D03*
G04 #@! TD*
D11*
G04 #@! TO.C,K_19*
X234398625Y-53776000D03*
D10*
X239478625Y-53776000D03*
X229318625Y-53776000D03*
G04 #@! TD*
G04 #@! TO.C,K_28*
X172168625Y-72826000D03*
X182328625Y-72826000D03*
D11*
X177248625Y-72826000D03*
G04 #@! TD*
D10*
G04 #@! TO.C,K_16*
X182328625Y-53776000D03*
D11*
X177248625Y-53776000D03*
D10*
X172168625Y-53776000D03*
G04 #@! TD*
G04 #@! TO.C,K_45*
X296628625Y-91876000D03*
X286468625Y-91876000D03*
D11*
X291548625Y-91876000D03*
G04 #@! TD*
D10*
G04 #@! TO.C,K_4*
X182328625Y-34726000D03*
X172168625Y-34726000D03*
D11*
X177248625Y-34726000D03*
G04 #@! TD*
G04 #@! TO.C,K_25*
X120098625Y-72826000D03*
D10*
X125178625Y-72826000D03*
X115018625Y-72826000D03*
G04 #@! TD*
D12*
G04 #@! TO.C,MNT1*
X352000000Y-100500000D03*
G04 #@! TD*
D10*
G04 #@! TO.C,K_1*
X115018625Y-34726000D03*
X125178625Y-34726000D03*
D11*
X120098625Y-34726000D03*
G04 #@! TD*
D10*
G04 #@! TO.C,K_32*
X258528625Y-72826000D03*
X248368625Y-72826000D03*
D11*
X253448625Y-72826000D03*
G04 #@! TD*
D10*
G04 #@! TO.C,K_15*
X153118625Y-53776000D03*
D11*
X158198625Y-53776000D03*
D10*
X163278625Y-53776000D03*
G04 #@! TD*
D11*
G04 #@! TO.C,K_39*
X158198625Y-91876000D03*
D10*
X153118625Y-91876000D03*
X163278625Y-91876000D03*
G04 #@! TD*
D11*
G04 #@! TO.C,K_2*
X139148625Y-34726000D03*
D10*
X134068625Y-34726000D03*
X144228625Y-34726000D03*
G04 #@! TD*
D11*
G04 #@! TO.C,K_3*
X158198625Y-34726000D03*
D10*
X153118625Y-34726000D03*
X163278625Y-34726000D03*
G04 #@! TD*
D11*
G04 #@! TO.C,K_21*
X272498625Y-53776000D03*
D10*
X277578625Y-53776000D03*
X267418625Y-53776000D03*
G04 #@! TD*
D11*
G04 #@! TO.C,K_18*
X215348625Y-53776000D03*
D10*
X210268625Y-53776000D03*
X220428625Y-53776000D03*
G04 #@! TD*
G04 #@! TO.C,K_43*
X248368625Y-91876000D03*
X258528625Y-91876000D03*
D11*
X253448625Y-91876000D03*
G04 #@! TD*
D10*
G04 #@! TO.C,K_17*
X191218625Y-53776000D03*
D11*
X196298625Y-53776000D03*
D10*
X201378625Y-53776000D03*
G04 #@! TD*
G04 #@! TO.C,K_5*
X191218625Y-34726000D03*
D11*
X196298625Y-34726000D03*
D10*
X201378625Y-34726000D03*
G04 #@! TD*
D11*
G04 #@! TO.C,K_20*
X253448625Y-53776000D03*
D10*
X258528625Y-53776000D03*
X248368625Y-53776000D03*
G04 #@! TD*
G04 #@! TO.C,K_8*
X248368625Y-34726000D03*
X258528625Y-34726000D03*
D11*
X253448625Y-34726000D03*
G04 #@! TD*
D10*
G04 #@! TO.C,K_7*
X239478625Y-34726000D03*
X229318625Y-34726000D03*
D11*
X234398625Y-34726000D03*
G04 #@! TD*
G04 #@! TO.C,K_12*
X93904875Y-53776000D03*
D10*
X98984875Y-53776000D03*
X88824875Y-53776000D03*
G04 #@! TD*
G04 #@! TO.C,K_23*
X327584875Y-53776000D03*
D11*
X310566875Y-62031000D03*
X334442875Y-62031000D03*
D13*
X310566875Y-46791000D03*
D11*
X322504875Y-53776000D03*
D10*
X317424875Y-53776000D03*
D13*
X334442875Y-46791000D03*
G04 #@! TD*
D10*
G04 #@! TO.C,K_33*
X267418625Y-72826000D03*
D11*
X272498625Y-72826000D03*
D10*
X277578625Y-72826000D03*
G04 #@! TD*
D11*
G04 #@! TO.C,K_29*
X196298625Y-72826000D03*
D10*
X191218625Y-72826000D03*
X201378625Y-72826000D03*
G04 #@! TD*
G04 #@! TO.C,K_0*
X101366125Y-34726000D03*
D11*
X96286125Y-34726000D03*
D10*
X91206125Y-34726000D03*
G04 #@! TD*
D11*
G04 #@! TO.C,K_24*
X89142375Y-72826000D03*
D13*
X101080375Y-65841000D03*
X77204375Y-65841000D03*
D10*
X84062375Y-72826000D03*
D11*
X101080375Y-81081000D03*
X77204375Y-81081000D03*
D10*
X94222375Y-72826000D03*
G04 #@! TD*
D11*
G04 #@! TO.C,K_37*
X120098625Y-91876000D03*
D10*
X125178625Y-91876000D03*
X115018625Y-91876000D03*
G04 #@! TD*
G04 #@! TO.C,K_41*
X200743625Y-91876000D03*
D11*
X193885625Y-100131000D03*
X217761625Y-100131000D03*
D10*
X210903625Y-91876000D03*
D13*
X193885625Y-84891000D03*
D11*
X205823625Y-91876000D03*
D13*
X217761625Y-84891000D03*
G04 #@! TD*
D10*
G04 #@! TO.C,K_9*
X277578625Y-34726000D03*
X267418625Y-34726000D03*
D11*
X272498625Y-34726000D03*
G04 #@! TD*
G04 #@! TO.C,K_46*
X312979875Y-91876000D03*
D10*
X307899875Y-91876000D03*
X318059875Y-91876000D03*
G04 #@! TD*
G04 #@! TO.C,K_27*
X163278625Y-72826000D03*
X153118625Y-72826000D03*
D11*
X158198625Y-72826000D03*
G04 #@! TD*
D10*
G04 #@! TO.C,K_22*
X296628625Y-53776000D03*
X286468625Y-53776000D03*
D11*
X291548625Y-53776000D03*
G04 #@! TD*
G04 #@! TO.C,K_26*
X139148625Y-72826000D03*
D10*
X144228625Y-72826000D03*
X134068625Y-72826000D03*
G04 #@! TD*
D11*
G04 #@! TO.C,K_40*
X177248625Y-91876000D03*
D10*
X182328625Y-91876000D03*
X172168625Y-91876000D03*
G04 #@! TD*
G04 #@! TO.C,K_38*
X144228625Y-91876000D03*
X134068625Y-91876000D03*
D11*
X139148625Y-91876000D03*
G04 #@! TD*
G04 #@! TO.C,K_35*
X315329375Y-81081000D03*
D13*
X339205375Y-65841000D03*
D11*
X327267375Y-72826000D03*
D10*
X332347375Y-72826000D03*
D13*
X315329375Y-65841000D03*
D11*
X339205375Y-81081000D03*
D10*
X322187375Y-72826000D03*
G04 #@! TD*
D12*
G04 #@! TO.C,MNT3*
X69500000Y-100500000D03*
G04 #@! TD*
D10*
G04 #@! TO.C,K_34*
X286468625Y-72826000D03*
D11*
X291548625Y-72826000D03*
D10*
X296628625Y-72826000D03*
G04 #@! TD*
G04 #@! TO.C,K_13*
X115018625Y-53776000D03*
X125178625Y-53776000D03*
D11*
X120098625Y-53776000D03*
G04 #@! TD*
G04 #@! TO.C,K_11*
X315361125Y-34726000D03*
D10*
X320441125Y-34726000D03*
X310281125Y-34726000D03*
G04 #@! TD*
G04 #@! TO.C,K_6*
X210268625Y-34726000D03*
D11*
X215348625Y-34726000D03*
D10*
X220428625Y-34726000D03*
G04 #@! TD*
D14*
G04 #@! TO.C,U1*
X84983125Y-29011000D03*
D15*
X84983125Y-31551000D03*
X84983125Y-34091000D03*
X84983125Y-36631000D03*
X84983125Y-39171000D03*
X84983125Y-41711000D03*
X84983125Y-44251000D03*
X84983125Y-46791000D03*
X84983125Y-49331000D03*
X84983125Y-51871000D03*
X84983125Y-54411000D03*
X84983125Y-56951000D03*
X69743125Y-56951000D03*
X69743125Y-54411000D03*
X69743125Y-51871000D03*
X69743125Y-49331000D03*
X69743125Y-46791000D03*
X69743125Y-44251000D03*
X69743125Y-41711000D03*
X69743125Y-39171000D03*
X69743125Y-36631000D03*
X69743125Y-34091000D03*
X69743125Y-31551000D03*
X69743125Y-29011000D03*
G04 #@! TD*
M02*
