G04 #@! TF.GenerationSoftware,KiCad,Pcbnew,(6.0.7)*
G04 #@! TF.CreationDate,2022-10-02T17:15:59-07:00*
G04 #@! TF.ProjectId,keyboard,6b657962-6f61-4726-942e-6b696361645f,rev?*
G04 #@! TF.SameCoordinates,Original*
G04 #@! TF.FileFunction,Legend,Top*
G04 #@! TF.FilePolarity,Positive*
%FSLAX46Y46*%
G04 Gerber Fmt 4.6, Leading zero omitted, Abs format (unit mm)*
G04 Created by KiCad (PCBNEW (6.0.7)) date 2022-10-02 17:15:59*
%MOMM*%
%LPD*%
G01*
G04 APERTURE LIST*
%ADD10C,0.150000*%
%ADD11C,0.381000*%
%ADD12R,1.752600X1.752600*%
%ADD13C,1.752600*%
G04 APERTURE END LIST*
D10*
G04 #@! TO.C,MNT2*
X350285714Y-26502380D02*
X350285714Y-25502380D01*
X350619047Y-26216666D01*
X350952380Y-25502380D01*
X350952380Y-26502380D01*
X351428571Y-26502380D02*
X351428571Y-25502380D01*
X352000000Y-26502380D01*
X352000000Y-25502380D01*
X352333333Y-25502380D02*
X352904761Y-25502380D01*
X352619047Y-26502380D02*
X352619047Y-25502380D01*
X353190476Y-25597619D02*
X353238095Y-25550000D01*
X353333333Y-25502380D01*
X353571428Y-25502380D01*
X353666666Y-25550000D01*
X353714285Y-25597619D01*
X353761904Y-25692857D01*
X353761904Y-25788095D01*
X353714285Y-25930952D01*
X353142857Y-26502380D01*
X353761904Y-26502380D01*
G04 #@! TO.C,MNT1*
X350285714Y-96752380D02*
X350285714Y-95752380D01*
X350619047Y-96466666D01*
X350952380Y-95752380D01*
X350952380Y-96752380D01*
X351428571Y-96752380D02*
X351428571Y-95752380D01*
X352000000Y-96752380D01*
X352000000Y-95752380D01*
X352333333Y-95752380D02*
X352904761Y-95752380D01*
X352619047Y-96752380D02*
X352619047Y-95752380D01*
X353761904Y-96752380D02*
X353190476Y-96752380D01*
X353476190Y-96752380D02*
X353476190Y-95752380D01*
X353380952Y-95895238D01*
X353285714Y-95990476D01*
X353190476Y-96038095D01*
G04 #@! TO.C,MNT3*
X67785714Y-96752380D02*
X67785714Y-95752380D01*
X68119047Y-96466666D01*
X68452380Y-95752380D01*
X68452380Y-96752380D01*
X68928571Y-96752380D02*
X68928571Y-95752380D01*
X69500000Y-96752380D01*
X69500000Y-95752380D01*
X69833333Y-95752380D02*
X70404761Y-95752380D01*
X70119047Y-96752380D02*
X70119047Y-95752380D01*
X70642857Y-95752380D02*
X71261904Y-95752380D01*
X70928571Y-96133333D01*
X71071428Y-96133333D01*
X71166666Y-96180952D01*
X71214285Y-96228571D01*
X71261904Y-96323809D01*
X71261904Y-96561904D01*
X71214285Y-96657142D01*
X71166666Y-96704761D01*
X71071428Y-96752380D01*
X70785714Y-96752380D01*
X70690476Y-96704761D01*
X70642857Y-96657142D01*
G04 #@! TO.C,U1*
X71578315Y-56893857D02*
X71692601Y-56931952D01*
X71730696Y-56970047D01*
X71768791Y-57046238D01*
X71768791Y-57160523D01*
X71730696Y-57236714D01*
X71692601Y-57274809D01*
X71616410Y-57312904D01*
X71311648Y-57312904D01*
X71311648Y-56512904D01*
X71578315Y-56512904D01*
X71654505Y-56551000D01*
X71692601Y-56589095D01*
X71730696Y-56665285D01*
X71730696Y-56741476D01*
X71692601Y-56817666D01*
X71654505Y-56855761D01*
X71578315Y-56893857D01*
X71311648Y-56893857D01*
X72454505Y-56512904D02*
X72302125Y-56512904D01*
X72225934Y-56551000D01*
X72187839Y-56589095D01*
X72111648Y-56703380D01*
X72073553Y-56855761D01*
X72073553Y-57160523D01*
X72111648Y-57236714D01*
X72149744Y-57274809D01*
X72225934Y-57312904D01*
X72378315Y-57312904D01*
X72454505Y-57274809D01*
X72492601Y-57236714D01*
X72530696Y-57160523D01*
X72530696Y-56970047D01*
X72492601Y-56893857D01*
X72454505Y-56855761D01*
X72378315Y-56817666D01*
X72225934Y-56817666D01*
X72149744Y-56855761D01*
X72111648Y-56893857D01*
X72073553Y-56970047D01*
X82214601Y-36231000D02*
X82138410Y-36192904D01*
X82024125Y-36192904D01*
X81909839Y-36231000D01*
X81833648Y-36307190D01*
X81795553Y-36383380D01*
X81757458Y-36535761D01*
X81757458Y-36650047D01*
X81795553Y-36802428D01*
X81833648Y-36878619D01*
X81909839Y-36954809D01*
X82024125Y-36992904D01*
X82100315Y-36992904D01*
X82214601Y-36954809D01*
X82252696Y-36916714D01*
X82252696Y-36650047D01*
X82100315Y-36650047D01*
X82595553Y-36992904D02*
X82595553Y-36192904D01*
X83052696Y-36992904D01*
X83052696Y-36192904D01*
X83433648Y-36992904D02*
X83433648Y-36192904D01*
X83624125Y-36192904D01*
X83738410Y-36231000D01*
X83814601Y-36307190D01*
X83852696Y-36383380D01*
X83890791Y-36535761D01*
X83890791Y-36650047D01*
X83852696Y-36802428D01*
X83814601Y-36878619D01*
X83738410Y-36954809D01*
X83624125Y-36992904D01*
X83433648Y-36992904D01*
X82214601Y-33691000D02*
X82138410Y-33652904D01*
X82024125Y-33652904D01*
X81909839Y-33691000D01*
X81833648Y-33767190D01*
X81795553Y-33843380D01*
X81757458Y-33995761D01*
X81757458Y-34110047D01*
X81795553Y-34262428D01*
X81833648Y-34338619D01*
X81909839Y-34414809D01*
X82024125Y-34452904D01*
X82100315Y-34452904D01*
X82214601Y-34414809D01*
X82252696Y-34376714D01*
X82252696Y-34110047D01*
X82100315Y-34110047D01*
X82595553Y-34452904D02*
X82595553Y-33652904D01*
X83052696Y-34452904D01*
X83052696Y-33652904D01*
X83433648Y-34452904D02*
X83433648Y-33652904D01*
X83624125Y-33652904D01*
X83738410Y-33691000D01*
X83814601Y-33767190D01*
X83852696Y-33843380D01*
X83890791Y-33995761D01*
X83890791Y-34110047D01*
X83852696Y-34262428D01*
X83814601Y-34338619D01*
X83738410Y-34414809D01*
X83624125Y-34452904D01*
X83433648Y-34452904D01*
X82233648Y-49692904D02*
X82233648Y-48892904D01*
X82424125Y-48892904D01*
X82538410Y-48931000D01*
X82614601Y-49007190D01*
X82652696Y-49083380D01*
X82690791Y-49235761D01*
X82690791Y-49350047D01*
X82652696Y-49502428D01*
X82614601Y-49578619D01*
X82538410Y-49654809D01*
X82424125Y-49692904D01*
X82233648Y-49692904D01*
X82957458Y-48892904D02*
X83490791Y-48892904D01*
X83147934Y-49692904D01*
X71635458Y-44193857D02*
X71368791Y-44193857D01*
X71368791Y-44612904D02*
X71368791Y-43812904D01*
X71749744Y-43812904D01*
X72397363Y-43812904D02*
X72244982Y-43812904D01*
X72168791Y-43851000D01*
X72130696Y-43889095D01*
X72054505Y-44003380D01*
X72016410Y-44155761D01*
X72016410Y-44460523D01*
X72054505Y-44536714D01*
X72092601Y-44574809D01*
X72168791Y-44612904D01*
X72321172Y-44612904D01*
X72397363Y-44574809D01*
X72435458Y-44536714D01*
X72473553Y-44460523D01*
X72473553Y-44270047D01*
X72435458Y-44193857D01*
X72397363Y-44155761D01*
X72321172Y-44117666D01*
X72168791Y-44117666D01*
X72092601Y-44155761D01*
X72054505Y-44193857D01*
X72016410Y-44270047D01*
X71578315Y-51813857D02*
X71692601Y-51851952D01*
X71730696Y-51890047D01*
X71768791Y-51966238D01*
X71768791Y-52080523D01*
X71730696Y-52156714D01*
X71692601Y-52194809D01*
X71616410Y-52232904D01*
X71311648Y-52232904D01*
X71311648Y-51432904D01*
X71578315Y-51432904D01*
X71654505Y-51471000D01*
X71692601Y-51509095D01*
X71730696Y-51585285D01*
X71730696Y-51661476D01*
X71692601Y-51737666D01*
X71654505Y-51775761D01*
X71578315Y-51813857D01*
X71311648Y-51813857D01*
X72035458Y-51432904D02*
X72530696Y-51432904D01*
X72264029Y-51737666D01*
X72378315Y-51737666D01*
X72454505Y-51775761D01*
X72492601Y-51813857D01*
X72530696Y-51890047D01*
X72530696Y-52080523D01*
X72492601Y-52156714D01*
X72454505Y-52194809D01*
X72378315Y-52232904D01*
X72149744Y-52232904D01*
X72073553Y-52194809D01*
X72035458Y-52156714D01*
X82233648Y-42072904D02*
X82233648Y-41272904D01*
X82424125Y-41272904D01*
X82538410Y-41311000D01*
X82614601Y-41387190D01*
X82652696Y-41463380D01*
X82690791Y-41615761D01*
X82690791Y-41730047D01*
X82652696Y-41882428D01*
X82614601Y-41958619D01*
X82538410Y-42034809D01*
X82424125Y-42072904D01*
X82233648Y-42072904D01*
X83186029Y-41272904D02*
X83262220Y-41272904D01*
X83338410Y-41311000D01*
X83376505Y-41349095D01*
X83414601Y-41425285D01*
X83452696Y-41577666D01*
X83452696Y-41768142D01*
X83414601Y-41920523D01*
X83376505Y-41996714D01*
X83338410Y-42034809D01*
X83262220Y-42072904D01*
X83186029Y-42072904D01*
X83109839Y-42034809D01*
X83071744Y-41996714D01*
X83033648Y-41920523D01*
X82995553Y-41768142D01*
X82995553Y-41577666D01*
X83033648Y-41425285D01*
X83071744Y-41349095D01*
X83109839Y-41311000D01*
X83186029Y-41272904D01*
X82500315Y-54353857D02*
X82614601Y-54391952D01*
X82652696Y-54430047D01*
X82690791Y-54506238D01*
X82690791Y-54620523D01*
X82652696Y-54696714D01*
X82614601Y-54734809D01*
X82538410Y-54772904D01*
X82233648Y-54772904D01*
X82233648Y-53972904D01*
X82500315Y-53972904D01*
X82576505Y-54011000D01*
X82614601Y-54049095D01*
X82652696Y-54125285D01*
X82652696Y-54201476D01*
X82614601Y-54277666D01*
X82576505Y-54315761D01*
X82500315Y-54353857D01*
X82233648Y-54353857D01*
X83376505Y-54239571D02*
X83376505Y-54772904D01*
X83186029Y-53934809D02*
X82995553Y-54506238D01*
X83490791Y-54506238D01*
X82690791Y-47076714D02*
X82652696Y-47114809D01*
X82538410Y-47152904D01*
X82462220Y-47152904D01*
X82347934Y-47114809D01*
X82271744Y-47038619D01*
X82233648Y-46962428D01*
X82195553Y-46810047D01*
X82195553Y-46695761D01*
X82233648Y-46543380D01*
X82271744Y-46467190D01*
X82347934Y-46391000D01*
X82462220Y-46352904D01*
X82538410Y-46352904D01*
X82652696Y-46391000D01*
X82690791Y-46429095D01*
X83376505Y-46352904D02*
X83224125Y-46352904D01*
X83147934Y-46391000D01*
X83109839Y-46429095D01*
X83033648Y-46543380D01*
X82995553Y-46695761D01*
X82995553Y-47000523D01*
X83033648Y-47076714D01*
X83071744Y-47114809D01*
X83147934Y-47152904D01*
X83300315Y-47152904D01*
X83376505Y-47114809D01*
X83414601Y-47076714D01*
X83452696Y-47000523D01*
X83452696Y-46810047D01*
X83414601Y-46733857D01*
X83376505Y-46695761D01*
X83300315Y-46657666D01*
X83147934Y-46657666D01*
X83071744Y-46695761D01*
X83033648Y-46733857D01*
X82995553Y-46810047D01*
X71349744Y-29372904D02*
X71083077Y-28991952D01*
X70892601Y-29372904D02*
X70892601Y-28572904D01*
X71197363Y-28572904D01*
X71273553Y-28611000D01*
X71311648Y-28649095D01*
X71349744Y-28725285D01*
X71349744Y-28839571D01*
X71311648Y-28915761D01*
X71273553Y-28953857D01*
X71197363Y-28991952D01*
X70892601Y-28991952D01*
X71654505Y-29144333D02*
X72035458Y-29144333D01*
X71578315Y-29372904D02*
X71844982Y-28572904D01*
X72111648Y-29372904D01*
X72302125Y-28572904D02*
X72492601Y-29372904D01*
X72644982Y-28801476D01*
X72797363Y-29372904D01*
X72987839Y-28572904D01*
X71578315Y-49273857D02*
X71692601Y-49311952D01*
X71730696Y-49350047D01*
X71768791Y-49426238D01*
X71768791Y-49540523D01*
X71730696Y-49616714D01*
X71692601Y-49654809D01*
X71616410Y-49692904D01*
X71311648Y-49692904D01*
X71311648Y-48892904D01*
X71578315Y-48892904D01*
X71654505Y-48931000D01*
X71692601Y-48969095D01*
X71730696Y-49045285D01*
X71730696Y-49121476D01*
X71692601Y-49197666D01*
X71654505Y-49235761D01*
X71578315Y-49273857D01*
X71311648Y-49273857D01*
X72530696Y-49692904D02*
X72073553Y-49692904D01*
X72302125Y-49692904D02*
X72302125Y-48892904D01*
X72225934Y-49007190D01*
X72149744Y-49083380D01*
X72073553Y-49121476D01*
X71578315Y-54353857D02*
X71692601Y-54391952D01*
X71730696Y-54430047D01*
X71768791Y-54506238D01*
X71768791Y-54620523D01*
X71730696Y-54696714D01*
X71692601Y-54734809D01*
X71616410Y-54772904D01*
X71311648Y-54772904D01*
X71311648Y-53972904D01*
X71578315Y-53972904D01*
X71654505Y-54011000D01*
X71692601Y-54049095D01*
X71730696Y-54125285D01*
X71730696Y-54201476D01*
X71692601Y-54277666D01*
X71654505Y-54315761D01*
X71578315Y-54353857D01*
X71311648Y-54353857D01*
X72073553Y-54049095D02*
X72111648Y-54011000D01*
X72187839Y-53972904D01*
X72378315Y-53972904D01*
X72454505Y-54011000D01*
X72492601Y-54049095D01*
X72530696Y-54125285D01*
X72530696Y-54201476D01*
X72492601Y-54315761D01*
X72035458Y-54772904D01*
X72530696Y-54772904D01*
X82233648Y-44612904D02*
X82233648Y-43812904D01*
X82424125Y-43812904D01*
X82538410Y-43851000D01*
X82614601Y-43927190D01*
X82652696Y-44003380D01*
X82690791Y-44155761D01*
X82690791Y-44270047D01*
X82652696Y-44422428D01*
X82614601Y-44498619D01*
X82538410Y-44574809D01*
X82424125Y-44612904D01*
X82233648Y-44612904D01*
X83376505Y-44079571D02*
X83376505Y-44612904D01*
X83186029Y-43774809D02*
X82995553Y-44346238D01*
X83490791Y-44346238D01*
X71635458Y-41653857D02*
X71368791Y-41653857D01*
X71368791Y-42072904D02*
X71368791Y-41272904D01*
X71749744Y-41272904D01*
X72435458Y-41272904D02*
X72054505Y-41272904D01*
X72016410Y-41653857D01*
X72054505Y-41615761D01*
X72130696Y-41577666D01*
X72321172Y-41577666D01*
X72397363Y-41615761D01*
X72435458Y-41653857D01*
X72473553Y-41730047D01*
X72473553Y-41920523D01*
X72435458Y-41996714D01*
X72397363Y-42034809D01*
X72321172Y-42072904D01*
X72130696Y-42072904D01*
X72054505Y-42034809D01*
X72016410Y-41996714D01*
X82500315Y-56893857D02*
X82614601Y-56931952D01*
X82652696Y-56970047D01*
X82690791Y-57046238D01*
X82690791Y-57160523D01*
X82652696Y-57236714D01*
X82614601Y-57274809D01*
X82538410Y-57312904D01*
X82233648Y-57312904D01*
X82233648Y-56512904D01*
X82500315Y-56512904D01*
X82576505Y-56551000D01*
X82614601Y-56589095D01*
X82652696Y-56665285D01*
X82652696Y-56741476D01*
X82614601Y-56817666D01*
X82576505Y-56855761D01*
X82500315Y-56893857D01*
X82233648Y-56893857D01*
X83414601Y-56512904D02*
X83033648Y-56512904D01*
X82995553Y-56893857D01*
X83033648Y-56855761D01*
X83109839Y-56817666D01*
X83300315Y-56817666D01*
X83376505Y-56855761D01*
X83414601Y-56893857D01*
X83452696Y-56970047D01*
X83452696Y-57160523D01*
X83414601Y-57236714D01*
X83376505Y-57274809D01*
X83300315Y-57312904D01*
X83109839Y-57312904D01*
X83033648Y-57274809D01*
X82995553Y-57236714D01*
X78744520Y-28572904D02*
X79201663Y-28572904D01*
X78973092Y-29372904D02*
X78973092Y-28572904D01*
X79392139Y-28572904D02*
X79925473Y-29372904D01*
X79925473Y-28572904D02*
X79392139Y-29372904D01*
X80382616Y-28572904D02*
X80458806Y-28572904D01*
X80534997Y-28611000D01*
X80573092Y-28649095D01*
X80611187Y-28725285D01*
X80649282Y-28877666D01*
X80649282Y-29068142D01*
X80611187Y-29220523D01*
X80573092Y-29296714D01*
X80534997Y-29334809D01*
X80458806Y-29372904D01*
X80382616Y-29372904D01*
X80306425Y-29334809D01*
X80268330Y-29296714D01*
X80230235Y-29220523D01*
X80192139Y-29068142D01*
X80192139Y-28877666D01*
X80230235Y-28725285D01*
X80268330Y-28649095D01*
X80306425Y-28611000D01*
X80382616Y-28572904D01*
X81563568Y-28534809D02*
X80877854Y-29563380D01*
X81830235Y-29372904D02*
X81830235Y-28572904D01*
X82020711Y-28572904D01*
X82134997Y-28611000D01*
X82211187Y-28687190D01*
X82249282Y-28763380D01*
X82287377Y-28915761D01*
X82287377Y-29030047D01*
X82249282Y-29182428D01*
X82211187Y-29258619D01*
X82134997Y-29334809D01*
X82020711Y-29372904D01*
X81830235Y-29372904D01*
X82554044Y-28572904D02*
X83049282Y-28572904D01*
X82782616Y-28877666D01*
X82896901Y-28877666D01*
X82973092Y-28915761D01*
X83011187Y-28953857D01*
X83049282Y-29030047D01*
X83049282Y-29220523D01*
X83011187Y-29296714D01*
X82973092Y-29334809D01*
X82896901Y-29372904D01*
X82668330Y-29372904D01*
X82592139Y-29334809D01*
X82554044Y-29296714D01*
X82233648Y-31912904D02*
X82233648Y-31112904D01*
X82424125Y-31112904D01*
X82538410Y-31151000D01*
X82614601Y-31227190D01*
X82652696Y-31303380D01*
X82690791Y-31455761D01*
X82690791Y-31570047D01*
X82652696Y-31722428D01*
X82614601Y-31798619D01*
X82538410Y-31874809D01*
X82424125Y-31912904D01*
X82233648Y-31912904D01*
X82995553Y-31189095D02*
X83033648Y-31151000D01*
X83109839Y-31112904D01*
X83300315Y-31112904D01*
X83376505Y-31151000D01*
X83414601Y-31189095D01*
X83452696Y-31265285D01*
X83452696Y-31341476D01*
X83414601Y-31455761D01*
X82957458Y-31912904D01*
X83452696Y-31912904D01*
X71635458Y-46733857D02*
X71368791Y-46733857D01*
X71368791Y-47152904D02*
X71368791Y-46352904D01*
X71749744Y-46352904D01*
X71978315Y-46352904D02*
X72511648Y-46352904D01*
X72168791Y-47152904D01*
X71789791Y-34394809D02*
X71904077Y-34432904D01*
X72094553Y-34432904D01*
X72170744Y-34394809D01*
X72208839Y-34356714D01*
X72246934Y-34280523D01*
X72246934Y-34204333D01*
X72208839Y-34128142D01*
X72170744Y-34090047D01*
X72094553Y-34051952D01*
X71942172Y-34013857D01*
X71865982Y-33975761D01*
X71827886Y-33937666D01*
X71789791Y-33861476D01*
X71789791Y-33785285D01*
X71827886Y-33709095D01*
X71865982Y-33671000D01*
X71942172Y-33632904D01*
X72132648Y-33632904D01*
X72246934Y-33671000D01*
X72475505Y-33632904D02*
X72932648Y-33632904D01*
X72704077Y-34432904D02*
X72704077Y-33632904D01*
X70835458Y-36192904D02*
X71102125Y-36992904D01*
X71368791Y-36192904D01*
X72092601Y-36916714D02*
X72054505Y-36954809D01*
X71940220Y-36992904D01*
X71864029Y-36992904D01*
X71749744Y-36954809D01*
X71673553Y-36878619D01*
X71635458Y-36802428D01*
X71597363Y-36650047D01*
X71597363Y-36535761D01*
X71635458Y-36383380D01*
X71673553Y-36307190D01*
X71749744Y-36231000D01*
X71864029Y-36192904D01*
X71940220Y-36192904D01*
X72054505Y-36231000D01*
X72092601Y-36269095D01*
X72892601Y-36916714D02*
X72854505Y-36954809D01*
X72740220Y-36992904D01*
X72664029Y-36992904D01*
X72549744Y-36954809D01*
X72473553Y-36878619D01*
X72435458Y-36802428D01*
X72397363Y-36650047D01*
X72397363Y-36535761D01*
X72435458Y-36383380D01*
X72473553Y-36307190D01*
X72549744Y-36231000D01*
X72664029Y-36192904D01*
X72740220Y-36192904D01*
X72854505Y-36231000D01*
X72892601Y-36269095D01*
X82233648Y-39532904D02*
X82233648Y-38732904D01*
X82424125Y-38732904D01*
X82538410Y-38771000D01*
X82614601Y-38847190D01*
X82652696Y-38923380D01*
X82690791Y-39075761D01*
X82690791Y-39190047D01*
X82652696Y-39342428D01*
X82614601Y-39418619D01*
X82538410Y-39494809D01*
X82424125Y-39532904D01*
X82233648Y-39532904D01*
X83452696Y-39532904D02*
X82995553Y-39532904D01*
X83224125Y-39532904D02*
X83224125Y-38732904D01*
X83147934Y-38847190D01*
X83071744Y-38923380D01*
X82995553Y-38961476D01*
X82271744Y-51813857D02*
X82538410Y-51813857D01*
X82652696Y-52232904D02*
X82271744Y-52232904D01*
X82271744Y-51432904D01*
X82652696Y-51432904D01*
X83338410Y-51432904D02*
X83186029Y-51432904D01*
X83109839Y-51471000D01*
X83071744Y-51509095D01*
X82995553Y-51623380D01*
X82957458Y-51775761D01*
X82957458Y-52080523D01*
X82995553Y-52156714D01*
X83033648Y-52194809D01*
X83109839Y-52232904D01*
X83262220Y-52232904D01*
X83338410Y-52194809D01*
X83376505Y-52156714D01*
X83414601Y-52080523D01*
X83414601Y-51890047D01*
X83376505Y-51813857D01*
X83338410Y-51775761D01*
X83262220Y-51737666D01*
X83109839Y-51737666D01*
X83033648Y-51775761D01*
X82995553Y-51813857D01*
X82957458Y-51890047D01*
X71635458Y-39113857D02*
X71368791Y-39113857D01*
X71368791Y-39532904D02*
X71368791Y-38732904D01*
X71749744Y-38732904D01*
X72397363Y-38999571D02*
X72397363Y-39532904D01*
X72206886Y-38694809D02*
X72016410Y-39266238D01*
X72511648Y-39266238D01*
X71292601Y-31151000D02*
X71216410Y-31112904D01*
X71102125Y-31112904D01*
X70987839Y-31151000D01*
X70911648Y-31227190D01*
X70873553Y-31303380D01*
X70835458Y-31455761D01*
X70835458Y-31570047D01*
X70873553Y-31722428D01*
X70911648Y-31798619D01*
X70987839Y-31874809D01*
X71102125Y-31912904D01*
X71178315Y-31912904D01*
X71292601Y-31874809D01*
X71330696Y-31836714D01*
X71330696Y-31570047D01*
X71178315Y-31570047D01*
X71673553Y-31912904D02*
X71673553Y-31112904D01*
X72130696Y-31912904D01*
X72130696Y-31112904D01*
X72511648Y-31912904D02*
X72511648Y-31112904D01*
X72702125Y-31112904D01*
X72816410Y-31151000D01*
X72892601Y-31227190D01*
X72930696Y-31303380D01*
X72968791Y-31455761D01*
X72968791Y-31570047D01*
X72930696Y-31722428D01*
X72892601Y-31798619D01*
X72816410Y-31874809D01*
X72702125Y-31912904D01*
X72511648Y-31912904D01*
D11*
X68473125Y-25201000D02*
X86253125Y-25201000D01*
X86253125Y-25201000D02*
X86253125Y-58221000D01*
X83713125Y-30281000D02*
X86253125Y-30281000D01*
X86253125Y-58221000D02*
X68473125Y-58221000D01*
X83713125Y-27741000D02*
X86253125Y-27741000D01*
X83713125Y-27741000D02*
X83713125Y-30281000D01*
X68473125Y-58221000D02*
X68473125Y-25201000D01*
G36*
X71518490Y-34430030D02*
G01*
X71418490Y-34430030D01*
X71418490Y-34230030D01*
X71518490Y-34230030D01*
X71518490Y-34430030D01*
G37*
D10*
X71518490Y-34430030D02*
X71418490Y-34430030D01*
X71418490Y-34230030D01*
X71518490Y-34230030D01*
X71518490Y-34430030D01*
G36*
X71318490Y-34130030D02*
G01*
X71218490Y-34130030D01*
X71218490Y-34030030D01*
X71318490Y-34030030D01*
X71318490Y-34130030D01*
G37*
X71318490Y-34130030D02*
X71218490Y-34130030D01*
X71218490Y-34030030D01*
X71318490Y-34030030D01*
X71318490Y-34130030D01*
G36*
X71118490Y-34430030D02*
G01*
X71018490Y-34430030D01*
X71018490Y-33630030D01*
X71118490Y-33630030D01*
X71118490Y-34430030D01*
G37*
X71118490Y-34430030D02*
X71018490Y-34430030D01*
X71018490Y-33630030D01*
X71118490Y-33630030D01*
X71118490Y-34430030D01*
G36*
X71518490Y-33730030D02*
G01*
X71018490Y-33730030D01*
X71018490Y-33630030D01*
X71518490Y-33630030D01*
X71518490Y-33730030D01*
G37*
X71518490Y-33730030D02*
X71018490Y-33730030D01*
X71018490Y-33630030D01*
X71518490Y-33630030D01*
X71518490Y-33730030D01*
G36*
X71518490Y-33930030D02*
G01*
X71418490Y-33930030D01*
X71418490Y-33630030D01*
X71518490Y-33630030D01*
X71518490Y-33930030D01*
G37*
X71518490Y-33930030D02*
X71418490Y-33930030D01*
X71418490Y-33630030D01*
X71518490Y-33630030D01*
X71518490Y-33930030D01*
G04 #@! TD*
D12*
G04 #@! TO.C,U1*
X84983125Y-29011000D03*
D13*
X84983125Y-31551000D03*
X84983125Y-34091000D03*
X84983125Y-36631000D03*
X84983125Y-39171000D03*
X84983125Y-41711000D03*
X84983125Y-44251000D03*
X84983125Y-46791000D03*
X84983125Y-49331000D03*
X84983125Y-51871000D03*
X84983125Y-54411000D03*
X84983125Y-56951000D03*
X69743125Y-56951000D03*
X69743125Y-54411000D03*
X69743125Y-51871000D03*
X69743125Y-49331000D03*
X69743125Y-46791000D03*
X69743125Y-44251000D03*
X69743125Y-41711000D03*
X69743125Y-39171000D03*
X69743125Y-36631000D03*
X69743125Y-34091000D03*
X69743125Y-31551000D03*
X69743125Y-29011000D03*
G04 #@! TD*
M02*
