G04 #@! TF.GenerationSoftware,KiCad,Pcbnew,(6.0.7)*
G04 #@! TF.CreationDate,2022-10-02T14:26:17-07:00*
G04 #@! TF.ProjectId,keyboard,6b657962-6f61-4726-942e-6b696361645f,rev?*
G04 #@! TF.SameCoordinates,Original*
G04 #@! TF.FileFunction,Paste,Bot*
G04 #@! TF.FilePolarity,Positive*
%FSLAX46Y46*%
G04 Gerber Fmt 4.6, Leading zero omitted, Abs format (unit mm)*
G04 Created by KiCad (PCBNEW (6.0.7)) date 2022-10-02 14:26:17*
%MOMM*%
%LPD*%
G01*
G04 APERTURE LIST*
%ADD10R,1.200000X0.900000*%
G04 APERTURE END LIST*
D10*
X128623625Y-55926000D03*
X128623625Y-52626000D03*
X147673625Y-36876000D03*
X147673625Y-33576000D03*
X300073625Y-55926000D03*
X300073625Y-52626000D03*
X342936125Y-55926000D03*
X342936125Y-52626000D03*
X261973625Y-74976000D03*
X261973625Y-71676000D03*
X261973625Y-36876000D03*
X261973625Y-33576000D03*
X128623625Y-94026000D03*
X128623625Y-90726000D03*
X352461125Y-74976000D03*
X352461125Y-71676000D03*
X109573625Y-94026000D03*
X109573625Y-90726000D03*
X300073625Y-36876000D03*
X300073625Y-33576000D03*
X128623625Y-36876000D03*
X128623625Y-33576000D03*
X242923625Y-74976000D03*
X242923625Y-71676000D03*
X281023625Y-94026000D03*
X281023625Y-90726000D03*
X223873625Y-36876000D03*
X223873625Y-33576000D03*
X328648625Y-36876000D03*
X328648625Y-33576000D03*
X109573625Y-55926000D03*
X109573625Y-52626000D03*
X109573625Y-74976000D03*
X109573625Y-71676000D03*
X166723625Y-36876000D03*
X166723625Y-33576000D03*
X281023625Y-36876000D03*
X281023625Y-33576000D03*
X185773625Y-55926000D03*
X185773625Y-52626000D03*
X281023625Y-55926000D03*
X281023625Y-52626000D03*
X242923625Y-55926000D03*
X242923625Y-52626000D03*
X242923625Y-94026000D03*
X242923625Y-90726000D03*
X261973625Y-94026000D03*
X261973625Y-90726000D03*
X166723625Y-94026000D03*
X166723625Y-90726000D03*
X204823625Y-74976000D03*
X204823625Y-71676000D03*
X128623625Y-74976000D03*
X128623625Y-71676000D03*
X185773625Y-36876000D03*
X185773625Y-33576000D03*
X261973625Y-55926000D03*
X261973625Y-52626000D03*
X147673625Y-55926000D03*
X147673625Y-52626000D03*
X223873625Y-74976000D03*
X223873625Y-71676000D03*
X166723625Y-74976000D03*
X166723625Y-71676000D03*
X147673625Y-74976000D03*
X147673625Y-71676000D03*
X147673625Y-94026000D03*
X147673625Y-90726000D03*
X185773625Y-94026000D03*
X185773625Y-90726000D03*
X204823625Y-55926000D03*
X204823625Y-52626000D03*
X109573625Y-36876000D03*
X109573625Y-33576000D03*
X204823625Y-36876000D03*
X204823625Y-33576000D03*
X223873625Y-55926000D03*
X223873625Y-52626000D03*
X185773625Y-74976000D03*
X185773625Y-71676000D03*
X281023625Y-74976000D03*
X281023625Y-71676000D03*
X323886125Y-94026000D03*
X323886125Y-90726000D03*
X300073625Y-94026000D03*
X300073625Y-90726000D03*
X223873625Y-94026000D03*
X223873625Y-90726000D03*
X166723625Y-55926000D03*
X166723625Y-52626000D03*
X300073625Y-74976000D03*
X300073625Y-71676000D03*
X242923625Y-36876000D03*
X242923625Y-33576000D03*
M02*
