G04 #@! TF.GenerationSoftware,KiCad,Pcbnew,(6.0.7)*
G04 #@! TF.CreationDate,2022-10-02T14:26:17-07:00*
G04 #@! TF.ProjectId,keyboard,6b657962-6f61-4726-942e-6b696361645f,rev?*
G04 #@! TF.SameCoordinates,Original*
G04 #@! TF.FileFunction,Legend,Bot*
G04 #@! TF.FilePolarity,Positive*
%FSLAX46Y46*%
G04 Gerber Fmt 4.6, Leading zero omitted, Abs format (unit mm)*
G04 Created by KiCad (PCBNEW (6.0.7)) date 2022-10-02 14:26:17*
%MOMM*%
%LPD*%
G01*
G04 APERTURE LIST*
%ADD10C,0.150000*%
%ADD11C,0.381000*%
%ADD12C,0.120000*%
%ADD13R,1.752600X1.752600*%
%ADD14C,1.752600*%
G04 APERTURE END LIST*
D10*
X72225934Y-54353857D02*
X72111648Y-54391952D01*
X72073553Y-54430047D01*
X72035458Y-54506238D01*
X72035458Y-54620523D01*
X72073553Y-54696714D01*
X72111648Y-54734809D01*
X72187839Y-54772904D01*
X72492601Y-54772904D01*
X72492601Y-53972904D01*
X72225934Y-53972904D01*
X72149744Y-54011000D01*
X72111648Y-54049095D01*
X72073553Y-54125285D01*
X72073553Y-54201476D01*
X72111648Y-54277666D01*
X72149744Y-54315761D01*
X72225934Y-54353857D01*
X72492601Y-54353857D01*
X71730696Y-54049095D02*
X71692601Y-54011000D01*
X71616410Y-53972904D01*
X71425934Y-53972904D01*
X71349744Y-54011000D01*
X71311648Y-54049095D01*
X71273553Y-54125285D01*
X71273553Y-54201476D01*
X71311648Y-54315761D01*
X71768791Y-54772904D01*
X71273553Y-54772904D01*
X72168791Y-46733857D02*
X72435458Y-46733857D01*
X72435458Y-47152904D02*
X72435458Y-46352904D01*
X72054505Y-46352904D01*
X71825934Y-46352904D02*
X71292601Y-46352904D01*
X71635458Y-47152904D01*
X72168791Y-44193857D02*
X72435458Y-44193857D01*
X72435458Y-44612904D02*
X72435458Y-43812904D01*
X72054505Y-43812904D01*
X71406886Y-43812904D02*
X71559267Y-43812904D01*
X71635458Y-43851000D01*
X71673553Y-43889095D01*
X71749744Y-44003380D01*
X71787839Y-44155761D01*
X71787839Y-44460523D01*
X71749744Y-44536714D01*
X71711648Y-44574809D01*
X71635458Y-44612904D01*
X71483077Y-44612904D01*
X71406886Y-44574809D01*
X71368791Y-44536714D01*
X71330696Y-44460523D01*
X71330696Y-44270047D01*
X71368791Y-44193857D01*
X71406886Y-44155761D01*
X71483077Y-44117666D01*
X71635458Y-44117666D01*
X71711648Y-44155761D01*
X71749744Y-44193857D01*
X71787839Y-44270047D01*
X72168791Y-41653857D02*
X72435458Y-41653857D01*
X72435458Y-42072904D02*
X72435458Y-41272904D01*
X72054505Y-41272904D01*
X71368791Y-41272904D02*
X71749744Y-41272904D01*
X71787839Y-41653857D01*
X71749744Y-41615761D01*
X71673553Y-41577666D01*
X71483077Y-41577666D01*
X71406886Y-41615761D01*
X71368791Y-41653857D01*
X71330696Y-41730047D01*
X71330696Y-41920523D01*
X71368791Y-41996714D01*
X71406886Y-42034809D01*
X71483077Y-42072904D01*
X71673553Y-42072904D01*
X71749744Y-42034809D01*
X71787839Y-41996714D01*
X72454505Y-29372904D02*
X72721172Y-28991952D01*
X72911648Y-29372904D02*
X72911648Y-28572904D01*
X72606886Y-28572904D01*
X72530696Y-28611000D01*
X72492601Y-28649095D01*
X72454505Y-28725285D01*
X72454505Y-28839571D01*
X72492601Y-28915761D01*
X72530696Y-28953857D01*
X72606886Y-28991952D01*
X72911648Y-28991952D01*
X72149744Y-29144333D02*
X71768791Y-29144333D01*
X72225934Y-29372904D02*
X71959267Y-28572904D01*
X71692601Y-29372904D01*
X71502125Y-28572904D02*
X71311648Y-29372904D01*
X71159267Y-28801476D01*
X71006886Y-29372904D01*
X70816410Y-28572904D01*
X72511648Y-31151000D02*
X72587839Y-31112904D01*
X72702125Y-31112904D01*
X72816410Y-31151000D01*
X72892601Y-31227190D01*
X72930696Y-31303380D01*
X72968791Y-31455761D01*
X72968791Y-31570047D01*
X72930696Y-31722428D01*
X72892601Y-31798619D01*
X72816410Y-31874809D01*
X72702125Y-31912904D01*
X72625934Y-31912904D01*
X72511648Y-31874809D01*
X72473553Y-31836714D01*
X72473553Y-31570047D01*
X72625934Y-31570047D01*
X72130696Y-31912904D02*
X72130696Y-31112904D01*
X71673553Y-31912904D01*
X71673553Y-31112904D01*
X71292601Y-31912904D02*
X71292601Y-31112904D01*
X71102125Y-31112904D01*
X70987839Y-31151000D01*
X70911648Y-31227190D01*
X70873553Y-31303380D01*
X70835458Y-31455761D01*
X70835458Y-31570047D01*
X70873553Y-31722428D01*
X70911648Y-31798619D01*
X70987839Y-31874809D01*
X71102125Y-31912904D01*
X71292601Y-31912904D01*
X72163338Y-34384809D02*
X72049052Y-34422904D01*
X71858576Y-34422904D01*
X71782385Y-34384809D01*
X71744290Y-34346714D01*
X71706195Y-34270523D01*
X71706195Y-34194333D01*
X71744290Y-34118142D01*
X71782385Y-34080047D01*
X71858576Y-34041952D01*
X72010957Y-34003857D01*
X72087147Y-33965761D01*
X72125243Y-33927666D01*
X72163338Y-33851476D01*
X72163338Y-33775285D01*
X72125243Y-33699095D01*
X72087147Y-33661000D01*
X72010957Y-33622904D01*
X71820481Y-33622904D01*
X71706195Y-33661000D01*
X71477624Y-33622904D02*
X71020481Y-33622904D01*
X71249052Y-34422904D02*
X71249052Y-33622904D01*
X72968791Y-36192904D02*
X72702125Y-36992904D01*
X72435458Y-36192904D01*
X71711648Y-36916714D02*
X71749744Y-36954809D01*
X71864029Y-36992904D01*
X71940220Y-36992904D01*
X72054505Y-36954809D01*
X72130696Y-36878619D01*
X72168791Y-36802428D01*
X72206886Y-36650047D01*
X72206886Y-36535761D01*
X72168791Y-36383380D01*
X72130696Y-36307190D01*
X72054505Y-36231000D01*
X71940220Y-36192904D01*
X71864029Y-36192904D01*
X71749744Y-36231000D01*
X71711648Y-36269095D01*
X70911648Y-36916714D02*
X70949744Y-36954809D01*
X71064029Y-36992904D01*
X71140220Y-36992904D01*
X71254505Y-36954809D01*
X71330696Y-36878619D01*
X71368791Y-36802428D01*
X71406886Y-36650047D01*
X71406886Y-36535761D01*
X71368791Y-36383380D01*
X71330696Y-36307190D01*
X71254505Y-36231000D01*
X71140220Y-36192904D01*
X71064029Y-36192904D01*
X70949744Y-36231000D01*
X70911648Y-36269095D01*
X72168791Y-39113857D02*
X72435458Y-39113857D01*
X72435458Y-39532904D02*
X72435458Y-38732904D01*
X72054505Y-38732904D01*
X71406886Y-38999571D02*
X71406886Y-39532904D01*
X71597363Y-38694809D02*
X71787839Y-39266238D01*
X71292601Y-39266238D01*
X72225934Y-49273857D02*
X72111648Y-49311952D01*
X72073553Y-49350047D01*
X72035458Y-49426238D01*
X72035458Y-49540523D01*
X72073553Y-49616714D01*
X72111648Y-49654809D01*
X72187839Y-49692904D01*
X72492601Y-49692904D01*
X72492601Y-48892904D01*
X72225934Y-48892904D01*
X72149744Y-48931000D01*
X72111648Y-48969095D01*
X72073553Y-49045285D01*
X72073553Y-49121476D01*
X72111648Y-49197666D01*
X72149744Y-49235761D01*
X72225934Y-49273857D01*
X72492601Y-49273857D01*
X71273553Y-49692904D02*
X71730696Y-49692904D01*
X71502125Y-49692904D02*
X71502125Y-48892904D01*
X71578315Y-49007190D01*
X71654505Y-49083380D01*
X71730696Y-49121476D01*
X72225934Y-51813857D02*
X72111648Y-51851952D01*
X72073553Y-51890047D01*
X72035458Y-51966238D01*
X72035458Y-52080523D01*
X72073553Y-52156714D01*
X72111648Y-52194809D01*
X72187839Y-52232904D01*
X72492601Y-52232904D01*
X72492601Y-51432904D01*
X72225934Y-51432904D01*
X72149744Y-51471000D01*
X72111648Y-51509095D01*
X72073553Y-51585285D01*
X72073553Y-51661476D01*
X72111648Y-51737666D01*
X72149744Y-51775761D01*
X72225934Y-51813857D01*
X72492601Y-51813857D01*
X71768791Y-51432904D02*
X71273553Y-51432904D01*
X71540220Y-51737666D01*
X71425934Y-51737666D01*
X71349744Y-51775761D01*
X71311648Y-51813857D01*
X71273553Y-51890047D01*
X71273553Y-52080523D01*
X71311648Y-52156714D01*
X71349744Y-52194809D01*
X71425934Y-52232904D01*
X71654505Y-52232904D01*
X71730696Y-52194809D01*
X71768791Y-52156714D01*
X72225934Y-56893857D02*
X72111648Y-56931952D01*
X72073553Y-56970047D01*
X72035458Y-57046238D01*
X72035458Y-57160523D01*
X72073553Y-57236714D01*
X72111648Y-57274809D01*
X72187839Y-57312904D01*
X72492601Y-57312904D01*
X72492601Y-56512904D01*
X72225934Y-56512904D01*
X72149744Y-56551000D01*
X72111648Y-56589095D01*
X72073553Y-56665285D01*
X72073553Y-56741476D01*
X72111648Y-56817666D01*
X72149744Y-56855761D01*
X72225934Y-56893857D01*
X72492601Y-56893857D01*
X71349744Y-56512904D02*
X71502125Y-56512904D01*
X71578315Y-56551000D01*
X71616410Y-56589095D01*
X71692601Y-56703380D01*
X71730696Y-56855761D01*
X71730696Y-57160523D01*
X71692601Y-57236714D01*
X71654505Y-57274809D01*
X71578315Y-57312904D01*
X71425934Y-57312904D01*
X71349744Y-57274809D01*
X71311648Y-57236714D01*
X71273553Y-57160523D01*
X71273553Y-56970047D01*
X71311648Y-56893857D01*
X71349744Y-56855761D01*
X71425934Y-56817666D01*
X71578315Y-56817666D01*
X71654505Y-56855761D01*
X71692601Y-56893857D01*
X71730696Y-56970047D01*
X83147934Y-56893857D02*
X83033648Y-56931952D01*
X82995553Y-56970047D01*
X82957458Y-57046238D01*
X82957458Y-57160523D01*
X82995553Y-57236714D01*
X83033648Y-57274809D01*
X83109839Y-57312904D01*
X83414601Y-57312904D01*
X83414601Y-56512904D01*
X83147934Y-56512904D01*
X83071744Y-56551000D01*
X83033648Y-56589095D01*
X82995553Y-56665285D01*
X82995553Y-56741476D01*
X83033648Y-56817666D01*
X83071744Y-56855761D01*
X83147934Y-56893857D01*
X83414601Y-56893857D01*
X82233648Y-56512904D02*
X82614601Y-56512904D01*
X82652696Y-56893857D01*
X82614601Y-56855761D01*
X82538410Y-56817666D01*
X82347934Y-56817666D01*
X82271744Y-56855761D01*
X82233648Y-56893857D01*
X82195553Y-56970047D01*
X82195553Y-57160523D01*
X82233648Y-57236714D01*
X82271744Y-57274809D01*
X82347934Y-57312904D01*
X82538410Y-57312904D01*
X82614601Y-57274809D01*
X82652696Y-57236714D01*
X83147934Y-54353857D02*
X83033648Y-54391952D01*
X82995553Y-54430047D01*
X82957458Y-54506238D01*
X82957458Y-54620523D01*
X82995553Y-54696714D01*
X83033648Y-54734809D01*
X83109839Y-54772904D01*
X83414601Y-54772904D01*
X83414601Y-53972904D01*
X83147934Y-53972904D01*
X83071744Y-54011000D01*
X83033648Y-54049095D01*
X82995553Y-54125285D01*
X82995553Y-54201476D01*
X83033648Y-54277666D01*
X83071744Y-54315761D01*
X83147934Y-54353857D01*
X83414601Y-54353857D01*
X82271744Y-54239571D02*
X82271744Y-54772904D01*
X82462220Y-53934809D02*
X82652696Y-54506238D01*
X82157458Y-54506238D01*
X83376505Y-51813857D02*
X83109839Y-51813857D01*
X82995553Y-52232904D02*
X83376505Y-52232904D01*
X83376505Y-51432904D01*
X82995553Y-51432904D01*
X82309839Y-51432904D02*
X82462220Y-51432904D01*
X82538410Y-51471000D01*
X82576505Y-51509095D01*
X82652696Y-51623380D01*
X82690791Y-51775761D01*
X82690791Y-52080523D01*
X82652696Y-52156714D01*
X82614601Y-52194809D01*
X82538410Y-52232904D01*
X82386029Y-52232904D01*
X82309839Y-52194809D01*
X82271744Y-52156714D01*
X82233648Y-52080523D01*
X82233648Y-51890047D01*
X82271744Y-51813857D01*
X82309839Y-51775761D01*
X82386029Y-51737666D01*
X82538410Y-51737666D01*
X82614601Y-51775761D01*
X82652696Y-51813857D01*
X82690791Y-51890047D01*
X83414601Y-49692904D02*
X83414601Y-48892904D01*
X83224125Y-48892904D01*
X83109839Y-48931000D01*
X83033648Y-49007190D01*
X82995553Y-49083380D01*
X82957458Y-49235761D01*
X82957458Y-49350047D01*
X82995553Y-49502428D01*
X83033648Y-49578619D01*
X83109839Y-49654809D01*
X83224125Y-49692904D01*
X83414601Y-49692904D01*
X82690791Y-48892904D02*
X82157458Y-48892904D01*
X82500315Y-49692904D01*
X82957458Y-47076714D02*
X82995553Y-47114809D01*
X83109839Y-47152904D01*
X83186029Y-47152904D01*
X83300315Y-47114809D01*
X83376505Y-47038619D01*
X83414601Y-46962428D01*
X83452696Y-46810047D01*
X83452696Y-46695761D01*
X83414601Y-46543380D01*
X83376505Y-46467190D01*
X83300315Y-46391000D01*
X83186029Y-46352904D01*
X83109839Y-46352904D01*
X82995553Y-46391000D01*
X82957458Y-46429095D01*
X82271744Y-46352904D02*
X82424125Y-46352904D01*
X82500315Y-46391000D01*
X82538410Y-46429095D01*
X82614601Y-46543380D01*
X82652696Y-46695761D01*
X82652696Y-47000523D01*
X82614601Y-47076714D01*
X82576505Y-47114809D01*
X82500315Y-47152904D01*
X82347934Y-47152904D01*
X82271744Y-47114809D01*
X82233648Y-47076714D01*
X82195553Y-47000523D01*
X82195553Y-46810047D01*
X82233648Y-46733857D01*
X82271744Y-46695761D01*
X82347934Y-46657666D01*
X82500315Y-46657666D01*
X82576505Y-46695761D01*
X82614601Y-46733857D01*
X82652696Y-46810047D01*
X83414601Y-44612904D02*
X83414601Y-43812904D01*
X83224125Y-43812904D01*
X83109839Y-43851000D01*
X83033648Y-43927190D01*
X82995553Y-44003380D01*
X82957458Y-44155761D01*
X82957458Y-44270047D01*
X82995553Y-44422428D01*
X83033648Y-44498619D01*
X83109839Y-44574809D01*
X83224125Y-44612904D01*
X83414601Y-44612904D01*
X82271744Y-44079571D02*
X82271744Y-44612904D01*
X82462220Y-43774809D02*
X82652696Y-44346238D01*
X82157458Y-44346238D01*
X83433648Y-33691000D02*
X83509839Y-33652904D01*
X83624125Y-33652904D01*
X83738410Y-33691000D01*
X83814601Y-33767190D01*
X83852696Y-33843380D01*
X83890791Y-33995761D01*
X83890791Y-34110047D01*
X83852696Y-34262428D01*
X83814601Y-34338619D01*
X83738410Y-34414809D01*
X83624125Y-34452904D01*
X83547934Y-34452904D01*
X83433648Y-34414809D01*
X83395553Y-34376714D01*
X83395553Y-34110047D01*
X83547934Y-34110047D01*
X83052696Y-34452904D02*
X83052696Y-33652904D01*
X82595553Y-34452904D01*
X82595553Y-33652904D01*
X82214601Y-34452904D02*
X82214601Y-33652904D01*
X82024125Y-33652904D01*
X81909839Y-33691000D01*
X81833648Y-33767190D01*
X81795553Y-33843380D01*
X81757458Y-33995761D01*
X81757458Y-34110047D01*
X81795553Y-34262428D01*
X81833648Y-34338619D01*
X81909839Y-34414809D01*
X82024125Y-34452904D01*
X82214601Y-34452904D01*
X83433648Y-36231000D02*
X83509839Y-36192904D01*
X83624125Y-36192904D01*
X83738410Y-36231000D01*
X83814601Y-36307190D01*
X83852696Y-36383380D01*
X83890791Y-36535761D01*
X83890791Y-36650047D01*
X83852696Y-36802428D01*
X83814601Y-36878619D01*
X83738410Y-36954809D01*
X83624125Y-36992904D01*
X83547934Y-36992904D01*
X83433648Y-36954809D01*
X83395553Y-36916714D01*
X83395553Y-36650047D01*
X83547934Y-36650047D01*
X83052696Y-36992904D02*
X83052696Y-36192904D01*
X82595553Y-36992904D01*
X82595553Y-36192904D01*
X82214601Y-36992904D02*
X82214601Y-36192904D01*
X82024125Y-36192904D01*
X81909839Y-36231000D01*
X81833648Y-36307190D01*
X81795553Y-36383380D01*
X81757458Y-36535761D01*
X81757458Y-36650047D01*
X81795553Y-36802428D01*
X81833648Y-36878619D01*
X81909839Y-36954809D01*
X82024125Y-36992904D01*
X82214601Y-36992904D01*
X83414601Y-39532904D02*
X83414601Y-38732904D01*
X83224125Y-38732904D01*
X83109839Y-38771000D01*
X83033648Y-38847190D01*
X82995553Y-38923380D01*
X82957458Y-39075761D01*
X82957458Y-39190047D01*
X82995553Y-39342428D01*
X83033648Y-39418619D01*
X83109839Y-39494809D01*
X83224125Y-39532904D01*
X83414601Y-39532904D01*
X82195553Y-39532904D02*
X82652696Y-39532904D01*
X82424125Y-39532904D02*
X82424125Y-38732904D01*
X82500315Y-38847190D01*
X82576505Y-38923380D01*
X82652696Y-38961476D01*
X83414601Y-42072904D02*
X83414601Y-41272904D01*
X83224125Y-41272904D01*
X83109839Y-41311000D01*
X83033648Y-41387190D01*
X82995553Y-41463380D01*
X82957458Y-41615761D01*
X82957458Y-41730047D01*
X82995553Y-41882428D01*
X83033648Y-41958619D01*
X83109839Y-42034809D01*
X83224125Y-42072904D01*
X83414601Y-42072904D01*
X82462220Y-41272904D02*
X82386029Y-41272904D01*
X82309839Y-41311000D01*
X82271744Y-41349095D01*
X82233648Y-41425285D01*
X82195553Y-41577666D01*
X82195553Y-41768142D01*
X82233648Y-41920523D01*
X82271744Y-41996714D01*
X82309839Y-42034809D01*
X82386029Y-42072904D01*
X82462220Y-42072904D01*
X82538410Y-42034809D01*
X82576505Y-41996714D01*
X82614601Y-41920523D01*
X82652696Y-41768142D01*
X82652696Y-41577666D01*
X82614601Y-41425285D01*
X82576505Y-41349095D01*
X82538410Y-41311000D01*
X82462220Y-41272904D01*
X83414601Y-31912904D02*
X83414601Y-31112904D01*
X83224125Y-31112904D01*
X83109839Y-31151000D01*
X83033648Y-31227190D01*
X82995553Y-31303380D01*
X82957458Y-31455761D01*
X82957458Y-31570047D01*
X82995553Y-31722428D01*
X83033648Y-31798619D01*
X83109839Y-31874809D01*
X83224125Y-31912904D01*
X83414601Y-31912904D01*
X82652696Y-31189095D02*
X82614601Y-31151000D01*
X82538410Y-31112904D01*
X82347934Y-31112904D01*
X82271744Y-31151000D01*
X82233648Y-31189095D01*
X82195553Y-31265285D01*
X82195553Y-31341476D01*
X82233648Y-31455761D01*
X82690791Y-31912904D01*
X82195553Y-31912904D01*
X83125473Y-28572904D02*
X82668330Y-28572904D01*
X82896901Y-29372904D02*
X82896901Y-28572904D01*
X82477854Y-28572904D02*
X81944520Y-29372904D01*
X81944520Y-28572904D02*
X82477854Y-29372904D01*
X81487377Y-28572904D02*
X81411187Y-28572904D01*
X81334997Y-28611000D01*
X81296901Y-28649095D01*
X81258806Y-28725285D01*
X81220711Y-28877666D01*
X81220711Y-29068142D01*
X81258806Y-29220523D01*
X81296901Y-29296714D01*
X81334997Y-29334809D01*
X81411187Y-29372904D01*
X81487377Y-29372904D01*
X81563568Y-29334809D01*
X81601663Y-29296714D01*
X81639758Y-29220523D01*
X81677854Y-29068142D01*
X81677854Y-28877666D01*
X81639758Y-28725285D01*
X81601663Y-28649095D01*
X81563568Y-28611000D01*
X81487377Y-28572904D01*
X80306425Y-28534809D02*
X80992139Y-29563380D01*
X80039758Y-29372904D02*
X80039758Y-28572904D01*
X79849282Y-28572904D01*
X79734997Y-28611000D01*
X79658806Y-28687190D01*
X79620711Y-28763380D01*
X79582616Y-28915761D01*
X79582616Y-29030047D01*
X79620711Y-29182428D01*
X79658806Y-29258619D01*
X79734997Y-29334809D01*
X79849282Y-29372904D01*
X80039758Y-29372904D01*
X79315949Y-28572904D02*
X78820711Y-28572904D01*
X79087377Y-28877666D01*
X78973092Y-28877666D01*
X78896901Y-28915761D01*
X78858806Y-28953857D01*
X78820711Y-29030047D01*
X78820711Y-29220523D01*
X78858806Y-29296714D01*
X78896901Y-29334809D01*
X78973092Y-29372904D01*
X79201663Y-29372904D01*
X79277854Y-29334809D01*
X79315949Y-29296714D01*
X131076005Y-52680761D02*
X130076005Y-52680761D01*
X130076005Y-52918857D01*
X130123625Y-53061714D01*
X130218863Y-53156952D01*
X130314101Y-53204571D01*
X130504577Y-53252190D01*
X130647434Y-53252190D01*
X130837910Y-53204571D01*
X130933148Y-53156952D01*
X131028386Y-53061714D01*
X131076005Y-52918857D01*
X131076005Y-52680761D01*
X131171244Y-53442666D02*
X131171244Y-54204571D01*
X131076005Y-54966476D02*
X131076005Y-54395047D01*
X131076005Y-54680761D02*
X130076005Y-54680761D01*
X130218863Y-54585523D01*
X130314101Y-54490285D01*
X130361720Y-54395047D01*
X130076005Y-55299809D02*
X130076005Y-55918857D01*
X130456958Y-55585523D01*
X130456958Y-55728380D01*
X130504577Y-55823619D01*
X130552196Y-55871238D01*
X130647434Y-55918857D01*
X130885529Y-55918857D01*
X130980767Y-55871238D01*
X131028386Y-55823619D01*
X131076005Y-55728380D01*
X131076005Y-55442666D01*
X131028386Y-55347428D01*
X130980767Y-55299809D01*
X150126005Y-34106952D02*
X149126005Y-34106952D01*
X149126005Y-34345047D01*
X149173625Y-34487904D01*
X149268863Y-34583142D01*
X149364101Y-34630761D01*
X149554577Y-34678380D01*
X149697434Y-34678380D01*
X149887910Y-34630761D01*
X149983148Y-34583142D01*
X150078386Y-34487904D01*
X150126005Y-34345047D01*
X150126005Y-34106952D01*
X150221244Y-34868857D02*
X150221244Y-35630761D01*
X149221244Y-35821238D02*
X149173625Y-35868857D01*
X149126005Y-35964095D01*
X149126005Y-36202190D01*
X149173625Y-36297428D01*
X149221244Y-36345047D01*
X149316482Y-36392666D01*
X149411720Y-36392666D01*
X149554577Y-36345047D01*
X150126005Y-35773619D01*
X150126005Y-36392666D01*
X302526005Y-52680761D02*
X301526005Y-52680761D01*
X301526005Y-52918857D01*
X301573625Y-53061714D01*
X301668863Y-53156952D01*
X301764101Y-53204571D01*
X301954577Y-53252190D01*
X302097434Y-53252190D01*
X302287910Y-53204571D01*
X302383148Y-53156952D01*
X302478386Y-53061714D01*
X302526005Y-52918857D01*
X302526005Y-52680761D01*
X302621244Y-53442666D02*
X302621244Y-54204571D01*
X301621244Y-54395047D02*
X301573625Y-54442666D01*
X301526005Y-54537904D01*
X301526005Y-54776000D01*
X301573625Y-54871238D01*
X301621244Y-54918857D01*
X301716482Y-54966476D01*
X301811720Y-54966476D01*
X301954577Y-54918857D01*
X302526005Y-54347428D01*
X302526005Y-54966476D01*
X301621244Y-55347428D02*
X301573625Y-55395047D01*
X301526005Y-55490285D01*
X301526005Y-55728380D01*
X301573625Y-55823619D01*
X301621244Y-55871238D01*
X301716482Y-55918857D01*
X301811720Y-55918857D01*
X301954577Y-55871238D01*
X302526005Y-55299809D01*
X302526005Y-55918857D01*
X345388505Y-52680761D02*
X344388505Y-52680761D01*
X344388505Y-52918857D01*
X344436125Y-53061714D01*
X344531363Y-53156952D01*
X344626601Y-53204571D01*
X344817077Y-53252190D01*
X344959934Y-53252190D01*
X345150410Y-53204571D01*
X345245648Y-53156952D01*
X345340886Y-53061714D01*
X345388505Y-52918857D01*
X345388505Y-52680761D01*
X345483744Y-53442666D02*
X345483744Y-54204571D01*
X344483744Y-54395047D02*
X344436125Y-54442666D01*
X344388505Y-54537904D01*
X344388505Y-54776000D01*
X344436125Y-54871238D01*
X344483744Y-54918857D01*
X344578982Y-54966476D01*
X344674220Y-54966476D01*
X344817077Y-54918857D01*
X345388505Y-54347428D01*
X345388505Y-54966476D01*
X344388505Y-55299809D02*
X344388505Y-55918857D01*
X344769458Y-55585523D01*
X344769458Y-55728380D01*
X344817077Y-55823619D01*
X344864696Y-55871238D01*
X344959934Y-55918857D01*
X345198029Y-55918857D01*
X345293267Y-55871238D01*
X345340886Y-55823619D01*
X345388505Y-55728380D01*
X345388505Y-55442666D01*
X345340886Y-55347428D01*
X345293267Y-55299809D01*
X264426005Y-71730761D02*
X263426005Y-71730761D01*
X263426005Y-71968857D01*
X263473625Y-72111714D01*
X263568863Y-72206952D01*
X263664101Y-72254571D01*
X263854577Y-72302190D01*
X263997434Y-72302190D01*
X264187910Y-72254571D01*
X264283148Y-72206952D01*
X264378386Y-72111714D01*
X264426005Y-71968857D01*
X264426005Y-71730761D01*
X264521244Y-72492666D02*
X264521244Y-73254571D01*
X263426005Y-73397428D02*
X263426005Y-74016476D01*
X263806958Y-73683142D01*
X263806958Y-73826000D01*
X263854577Y-73921238D01*
X263902196Y-73968857D01*
X263997434Y-74016476D01*
X264235529Y-74016476D01*
X264330767Y-73968857D01*
X264378386Y-73921238D01*
X264426005Y-73826000D01*
X264426005Y-73540285D01*
X264378386Y-73445047D01*
X264330767Y-73397428D01*
X263521244Y-74397428D02*
X263473625Y-74445047D01*
X263426005Y-74540285D01*
X263426005Y-74778380D01*
X263473625Y-74873619D01*
X263521244Y-74921238D01*
X263616482Y-74968857D01*
X263711720Y-74968857D01*
X263854577Y-74921238D01*
X264426005Y-74349809D01*
X264426005Y-74968857D01*
X264426005Y-34106952D02*
X263426005Y-34106952D01*
X263426005Y-34345047D01*
X263473625Y-34487904D01*
X263568863Y-34583142D01*
X263664101Y-34630761D01*
X263854577Y-34678380D01*
X263997434Y-34678380D01*
X264187910Y-34630761D01*
X264283148Y-34583142D01*
X264378386Y-34487904D01*
X264426005Y-34345047D01*
X264426005Y-34106952D01*
X264521244Y-34868857D02*
X264521244Y-35630761D01*
X263854577Y-36011714D02*
X263806958Y-35916476D01*
X263759339Y-35868857D01*
X263664101Y-35821238D01*
X263616482Y-35821238D01*
X263521244Y-35868857D01*
X263473625Y-35916476D01*
X263426005Y-36011714D01*
X263426005Y-36202190D01*
X263473625Y-36297428D01*
X263521244Y-36345047D01*
X263616482Y-36392666D01*
X263664101Y-36392666D01*
X263759339Y-36345047D01*
X263806958Y-36297428D01*
X263854577Y-36202190D01*
X263854577Y-36011714D01*
X263902196Y-35916476D01*
X263949815Y-35868857D01*
X264045053Y-35821238D01*
X264235529Y-35821238D01*
X264330767Y-35868857D01*
X264378386Y-35916476D01*
X264426005Y-36011714D01*
X264426005Y-36202190D01*
X264378386Y-36297428D01*
X264330767Y-36345047D01*
X264235529Y-36392666D01*
X264045053Y-36392666D01*
X263949815Y-36345047D01*
X263902196Y-36297428D01*
X263854577Y-36202190D01*
X131076005Y-90780761D02*
X130076005Y-90780761D01*
X130076005Y-91018857D01*
X130123625Y-91161714D01*
X130218863Y-91256952D01*
X130314101Y-91304571D01*
X130504577Y-91352190D01*
X130647434Y-91352190D01*
X130837910Y-91304571D01*
X130933148Y-91256952D01*
X131028386Y-91161714D01*
X131076005Y-91018857D01*
X131076005Y-90780761D01*
X131171244Y-91542666D02*
X131171244Y-92304571D01*
X130076005Y-92447428D02*
X130076005Y-93066476D01*
X130456958Y-92733142D01*
X130456958Y-92876000D01*
X130504577Y-92971238D01*
X130552196Y-93018857D01*
X130647434Y-93066476D01*
X130885529Y-93066476D01*
X130980767Y-93018857D01*
X131028386Y-92971238D01*
X131076005Y-92876000D01*
X131076005Y-92590285D01*
X131028386Y-92495047D01*
X130980767Y-92447428D01*
X130076005Y-93399809D02*
X130076005Y-94066476D01*
X131076005Y-93637904D01*
X354913505Y-71730761D02*
X353913505Y-71730761D01*
X353913505Y-71968857D01*
X353961125Y-72111714D01*
X354056363Y-72206952D01*
X354151601Y-72254571D01*
X354342077Y-72302190D01*
X354484934Y-72302190D01*
X354675410Y-72254571D01*
X354770648Y-72206952D01*
X354865886Y-72111714D01*
X354913505Y-71968857D01*
X354913505Y-71730761D01*
X355008744Y-72492666D02*
X355008744Y-73254571D01*
X353913505Y-73397428D02*
X353913505Y-74016476D01*
X354294458Y-73683142D01*
X354294458Y-73826000D01*
X354342077Y-73921238D01*
X354389696Y-73968857D01*
X354484934Y-74016476D01*
X354723029Y-74016476D01*
X354818267Y-73968857D01*
X354865886Y-73921238D01*
X354913505Y-73826000D01*
X354913505Y-73540285D01*
X354865886Y-73445047D01*
X354818267Y-73397428D01*
X353913505Y-74921238D02*
X353913505Y-74445047D01*
X354389696Y-74397428D01*
X354342077Y-74445047D01*
X354294458Y-74540285D01*
X354294458Y-74778380D01*
X354342077Y-74873619D01*
X354389696Y-74921238D01*
X354484934Y-74968857D01*
X354723029Y-74968857D01*
X354818267Y-74921238D01*
X354865886Y-74873619D01*
X354913505Y-74778380D01*
X354913505Y-74540285D01*
X354865886Y-74445047D01*
X354818267Y-74397428D01*
X112026005Y-90780761D02*
X111026005Y-90780761D01*
X111026005Y-91018857D01*
X111073625Y-91161714D01*
X111168863Y-91256952D01*
X111264101Y-91304571D01*
X111454577Y-91352190D01*
X111597434Y-91352190D01*
X111787910Y-91304571D01*
X111883148Y-91256952D01*
X111978386Y-91161714D01*
X112026005Y-91018857D01*
X112026005Y-90780761D01*
X112121244Y-91542666D02*
X112121244Y-92304571D01*
X111026005Y-92447428D02*
X111026005Y-93066476D01*
X111406958Y-92733142D01*
X111406958Y-92876000D01*
X111454577Y-92971238D01*
X111502196Y-93018857D01*
X111597434Y-93066476D01*
X111835529Y-93066476D01*
X111930767Y-93018857D01*
X111978386Y-92971238D01*
X112026005Y-92876000D01*
X112026005Y-92590285D01*
X111978386Y-92495047D01*
X111930767Y-92447428D01*
X111026005Y-93923619D02*
X111026005Y-93733142D01*
X111073625Y-93637904D01*
X111121244Y-93590285D01*
X111264101Y-93495047D01*
X111454577Y-93447428D01*
X111835529Y-93447428D01*
X111930767Y-93495047D01*
X111978386Y-93542666D01*
X112026005Y-93637904D01*
X112026005Y-93828380D01*
X111978386Y-93923619D01*
X111930767Y-93971238D01*
X111835529Y-94018857D01*
X111597434Y-94018857D01*
X111502196Y-93971238D01*
X111454577Y-93923619D01*
X111406958Y-93828380D01*
X111406958Y-93637904D01*
X111454577Y-93542666D01*
X111502196Y-93495047D01*
X111597434Y-93447428D01*
X302526005Y-33630761D02*
X301526005Y-33630761D01*
X301526005Y-33868857D01*
X301573625Y-34011714D01*
X301668863Y-34106952D01*
X301764101Y-34154571D01*
X301954577Y-34202190D01*
X302097434Y-34202190D01*
X302287910Y-34154571D01*
X302383148Y-34106952D01*
X302478386Y-34011714D01*
X302526005Y-33868857D01*
X302526005Y-33630761D01*
X302621244Y-34392666D02*
X302621244Y-35154571D01*
X302526005Y-35916476D02*
X302526005Y-35345047D01*
X302526005Y-35630761D02*
X301526005Y-35630761D01*
X301668863Y-35535523D01*
X301764101Y-35440285D01*
X301811720Y-35345047D01*
X301526005Y-36535523D02*
X301526005Y-36630761D01*
X301573625Y-36726000D01*
X301621244Y-36773619D01*
X301716482Y-36821238D01*
X301906958Y-36868857D01*
X302145053Y-36868857D01*
X302335529Y-36821238D01*
X302430767Y-36773619D01*
X302478386Y-36726000D01*
X302526005Y-36630761D01*
X302526005Y-36535523D01*
X302478386Y-36440285D01*
X302430767Y-36392666D01*
X302335529Y-36345047D01*
X302145053Y-36297428D01*
X301906958Y-36297428D01*
X301716482Y-36345047D01*
X301621244Y-36392666D01*
X301573625Y-36440285D01*
X301526005Y-36535523D01*
X131076005Y-34106952D02*
X130076005Y-34106952D01*
X130076005Y-34345047D01*
X130123625Y-34487904D01*
X130218863Y-34583142D01*
X130314101Y-34630761D01*
X130504577Y-34678380D01*
X130647434Y-34678380D01*
X130837910Y-34630761D01*
X130933148Y-34583142D01*
X131028386Y-34487904D01*
X131076005Y-34345047D01*
X131076005Y-34106952D01*
X131171244Y-34868857D02*
X131171244Y-35630761D01*
X131076005Y-36392666D02*
X131076005Y-35821238D01*
X131076005Y-36106952D02*
X130076005Y-36106952D01*
X130218863Y-36011714D01*
X130314101Y-35916476D01*
X130361720Y-35821238D01*
X245376005Y-71730761D02*
X244376005Y-71730761D01*
X244376005Y-71968857D01*
X244423625Y-72111714D01*
X244518863Y-72206952D01*
X244614101Y-72254571D01*
X244804577Y-72302190D01*
X244947434Y-72302190D01*
X245137910Y-72254571D01*
X245233148Y-72206952D01*
X245328386Y-72111714D01*
X245376005Y-71968857D01*
X245376005Y-71730761D01*
X245471244Y-72492666D02*
X245471244Y-73254571D01*
X244376005Y-73397428D02*
X244376005Y-74016476D01*
X244756958Y-73683142D01*
X244756958Y-73826000D01*
X244804577Y-73921238D01*
X244852196Y-73968857D01*
X244947434Y-74016476D01*
X245185529Y-74016476D01*
X245280767Y-73968857D01*
X245328386Y-73921238D01*
X245376005Y-73826000D01*
X245376005Y-73540285D01*
X245328386Y-73445047D01*
X245280767Y-73397428D01*
X245376005Y-74968857D02*
X245376005Y-74397428D01*
X245376005Y-74683142D02*
X244376005Y-74683142D01*
X244518863Y-74587904D01*
X244614101Y-74492666D01*
X244661720Y-74397428D01*
X283476005Y-90780761D02*
X282476005Y-90780761D01*
X282476005Y-91018857D01*
X282523625Y-91161714D01*
X282618863Y-91256952D01*
X282714101Y-91304571D01*
X282904577Y-91352190D01*
X283047434Y-91352190D01*
X283237910Y-91304571D01*
X283333148Y-91256952D01*
X283428386Y-91161714D01*
X283476005Y-91018857D01*
X283476005Y-90780761D01*
X283571244Y-91542666D02*
X283571244Y-92304571D01*
X282809339Y-92971238D02*
X283476005Y-92971238D01*
X282428386Y-92733142D02*
X283142672Y-92495047D01*
X283142672Y-93114095D01*
X282809339Y-93923619D02*
X283476005Y-93923619D01*
X282428386Y-93685523D02*
X283142672Y-93447428D01*
X283142672Y-94066476D01*
X226326005Y-34106952D02*
X225326005Y-34106952D01*
X225326005Y-34345047D01*
X225373625Y-34487904D01*
X225468863Y-34583142D01*
X225564101Y-34630761D01*
X225754577Y-34678380D01*
X225897434Y-34678380D01*
X226087910Y-34630761D01*
X226183148Y-34583142D01*
X226278386Y-34487904D01*
X226326005Y-34345047D01*
X226326005Y-34106952D01*
X226421244Y-34868857D02*
X226421244Y-35630761D01*
X225326005Y-36297428D02*
X225326005Y-36106952D01*
X225373625Y-36011714D01*
X225421244Y-35964095D01*
X225564101Y-35868857D01*
X225754577Y-35821238D01*
X226135529Y-35821238D01*
X226230767Y-35868857D01*
X226278386Y-35916476D01*
X226326005Y-36011714D01*
X226326005Y-36202190D01*
X226278386Y-36297428D01*
X226230767Y-36345047D01*
X226135529Y-36392666D01*
X225897434Y-36392666D01*
X225802196Y-36345047D01*
X225754577Y-36297428D01*
X225706958Y-36202190D01*
X225706958Y-36011714D01*
X225754577Y-35916476D01*
X225802196Y-35868857D01*
X225897434Y-35821238D01*
X331101005Y-33630761D02*
X330101005Y-33630761D01*
X330101005Y-33868857D01*
X330148625Y-34011714D01*
X330243863Y-34106952D01*
X330339101Y-34154571D01*
X330529577Y-34202190D01*
X330672434Y-34202190D01*
X330862910Y-34154571D01*
X330958148Y-34106952D01*
X331053386Y-34011714D01*
X331101005Y-33868857D01*
X331101005Y-33630761D01*
X331196244Y-34392666D02*
X331196244Y-35154571D01*
X331101005Y-35916476D02*
X331101005Y-35345047D01*
X331101005Y-35630761D02*
X330101005Y-35630761D01*
X330243863Y-35535523D01*
X330339101Y-35440285D01*
X330386720Y-35345047D01*
X331101005Y-36868857D02*
X331101005Y-36297428D01*
X331101005Y-36583142D02*
X330101005Y-36583142D01*
X330243863Y-36487904D01*
X330339101Y-36392666D01*
X330386720Y-36297428D01*
X112026005Y-52680761D02*
X111026005Y-52680761D01*
X111026005Y-52918857D01*
X111073625Y-53061714D01*
X111168863Y-53156952D01*
X111264101Y-53204571D01*
X111454577Y-53252190D01*
X111597434Y-53252190D01*
X111787910Y-53204571D01*
X111883148Y-53156952D01*
X111978386Y-53061714D01*
X112026005Y-52918857D01*
X112026005Y-52680761D01*
X112121244Y-53442666D02*
X112121244Y-54204571D01*
X112026005Y-54966476D02*
X112026005Y-54395047D01*
X112026005Y-54680761D02*
X111026005Y-54680761D01*
X111168863Y-54585523D01*
X111264101Y-54490285D01*
X111311720Y-54395047D01*
X111121244Y-55347428D02*
X111073625Y-55395047D01*
X111026005Y-55490285D01*
X111026005Y-55728380D01*
X111073625Y-55823619D01*
X111121244Y-55871238D01*
X111216482Y-55918857D01*
X111311720Y-55918857D01*
X111454577Y-55871238D01*
X112026005Y-55299809D01*
X112026005Y-55918857D01*
X112026005Y-71730761D02*
X111026005Y-71730761D01*
X111026005Y-71968857D01*
X111073625Y-72111714D01*
X111168863Y-72206952D01*
X111264101Y-72254571D01*
X111454577Y-72302190D01*
X111597434Y-72302190D01*
X111787910Y-72254571D01*
X111883148Y-72206952D01*
X111978386Y-72111714D01*
X112026005Y-71968857D01*
X112026005Y-71730761D01*
X112121244Y-72492666D02*
X112121244Y-73254571D01*
X111121244Y-73445047D02*
X111073625Y-73492666D01*
X111026005Y-73587904D01*
X111026005Y-73826000D01*
X111073625Y-73921238D01*
X111121244Y-73968857D01*
X111216482Y-74016476D01*
X111311720Y-74016476D01*
X111454577Y-73968857D01*
X112026005Y-73397428D01*
X112026005Y-74016476D01*
X111359339Y-74873619D02*
X112026005Y-74873619D01*
X110978386Y-74635523D02*
X111692672Y-74397428D01*
X111692672Y-75016476D01*
X169176005Y-34106952D02*
X168176005Y-34106952D01*
X168176005Y-34345047D01*
X168223625Y-34487904D01*
X168318863Y-34583142D01*
X168414101Y-34630761D01*
X168604577Y-34678380D01*
X168747434Y-34678380D01*
X168937910Y-34630761D01*
X169033148Y-34583142D01*
X169128386Y-34487904D01*
X169176005Y-34345047D01*
X169176005Y-34106952D01*
X169271244Y-34868857D02*
X169271244Y-35630761D01*
X168176005Y-35773619D02*
X168176005Y-36392666D01*
X168556958Y-36059333D01*
X168556958Y-36202190D01*
X168604577Y-36297428D01*
X168652196Y-36345047D01*
X168747434Y-36392666D01*
X168985529Y-36392666D01*
X169080767Y-36345047D01*
X169128386Y-36297428D01*
X169176005Y-36202190D01*
X169176005Y-35916476D01*
X169128386Y-35821238D01*
X169080767Y-35773619D01*
X283476005Y-34106952D02*
X282476005Y-34106952D01*
X282476005Y-34345047D01*
X282523625Y-34487904D01*
X282618863Y-34583142D01*
X282714101Y-34630761D01*
X282904577Y-34678380D01*
X283047434Y-34678380D01*
X283237910Y-34630761D01*
X283333148Y-34583142D01*
X283428386Y-34487904D01*
X283476005Y-34345047D01*
X283476005Y-34106952D01*
X283571244Y-34868857D02*
X283571244Y-35630761D01*
X283476005Y-35916476D02*
X283476005Y-36106952D01*
X283428386Y-36202190D01*
X283380767Y-36249809D01*
X283237910Y-36345047D01*
X283047434Y-36392666D01*
X282666482Y-36392666D01*
X282571244Y-36345047D01*
X282523625Y-36297428D01*
X282476005Y-36202190D01*
X282476005Y-36011714D01*
X282523625Y-35916476D01*
X282571244Y-35868857D01*
X282666482Y-35821238D01*
X282904577Y-35821238D01*
X282999815Y-35868857D01*
X283047434Y-35916476D01*
X283095053Y-36011714D01*
X283095053Y-36202190D01*
X283047434Y-36297428D01*
X282999815Y-36345047D01*
X282904577Y-36392666D01*
X188226005Y-52680761D02*
X187226005Y-52680761D01*
X187226005Y-52918857D01*
X187273625Y-53061714D01*
X187368863Y-53156952D01*
X187464101Y-53204571D01*
X187654577Y-53252190D01*
X187797434Y-53252190D01*
X187987910Y-53204571D01*
X188083148Y-53156952D01*
X188178386Y-53061714D01*
X188226005Y-52918857D01*
X188226005Y-52680761D01*
X188321244Y-53442666D02*
X188321244Y-54204571D01*
X188226005Y-54966476D02*
X188226005Y-54395047D01*
X188226005Y-54680761D02*
X187226005Y-54680761D01*
X187368863Y-54585523D01*
X187464101Y-54490285D01*
X187511720Y-54395047D01*
X187226005Y-55823619D02*
X187226005Y-55633142D01*
X187273625Y-55537904D01*
X187321244Y-55490285D01*
X187464101Y-55395047D01*
X187654577Y-55347428D01*
X188035529Y-55347428D01*
X188130767Y-55395047D01*
X188178386Y-55442666D01*
X188226005Y-55537904D01*
X188226005Y-55728380D01*
X188178386Y-55823619D01*
X188130767Y-55871238D01*
X188035529Y-55918857D01*
X187797434Y-55918857D01*
X187702196Y-55871238D01*
X187654577Y-55823619D01*
X187606958Y-55728380D01*
X187606958Y-55537904D01*
X187654577Y-55442666D01*
X187702196Y-55395047D01*
X187797434Y-55347428D01*
X283476005Y-52680761D02*
X282476005Y-52680761D01*
X282476005Y-52918857D01*
X282523625Y-53061714D01*
X282618863Y-53156952D01*
X282714101Y-53204571D01*
X282904577Y-53252190D01*
X283047434Y-53252190D01*
X283237910Y-53204571D01*
X283333148Y-53156952D01*
X283428386Y-53061714D01*
X283476005Y-52918857D01*
X283476005Y-52680761D01*
X283571244Y-53442666D02*
X283571244Y-54204571D01*
X282571244Y-54395047D02*
X282523625Y-54442666D01*
X282476005Y-54537904D01*
X282476005Y-54776000D01*
X282523625Y-54871238D01*
X282571244Y-54918857D01*
X282666482Y-54966476D01*
X282761720Y-54966476D01*
X282904577Y-54918857D01*
X283476005Y-54347428D01*
X283476005Y-54966476D01*
X283476005Y-55918857D02*
X283476005Y-55347428D01*
X283476005Y-55633142D02*
X282476005Y-55633142D01*
X282618863Y-55537904D01*
X282714101Y-55442666D01*
X282761720Y-55347428D01*
X245376005Y-52680761D02*
X244376005Y-52680761D01*
X244376005Y-52918857D01*
X244423625Y-53061714D01*
X244518863Y-53156952D01*
X244614101Y-53204571D01*
X244804577Y-53252190D01*
X244947434Y-53252190D01*
X245137910Y-53204571D01*
X245233148Y-53156952D01*
X245328386Y-53061714D01*
X245376005Y-52918857D01*
X245376005Y-52680761D01*
X245471244Y-53442666D02*
X245471244Y-54204571D01*
X245376005Y-54966476D02*
X245376005Y-54395047D01*
X245376005Y-54680761D02*
X244376005Y-54680761D01*
X244518863Y-54585523D01*
X244614101Y-54490285D01*
X244661720Y-54395047D01*
X245376005Y-55442666D02*
X245376005Y-55633142D01*
X245328386Y-55728380D01*
X245280767Y-55776000D01*
X245137910Y-55871238D01*
X244947434Y-55918857D01*
X244566482Y-55918857D01*
X244471244Y-55871238D01*
X244423625Y-55823619D01*
X244376005Y-55728380D01*
X244376005Y-55537904D01*
X244423625Y-55442666D01*
X244471244Y-55395047D01*
X244566482Y-55347428D01*
X244804577Y-55347428D01*
X244899815Y-55395047D01*
X244947434Y-55442666D01*
X244995053Y-55537904D01*
X244995053Y-55728380D01*
X244947434Y-55823619D01*
X244899815Y-55871238D01*
X244804577Y-55918857D01*
X245376005Y-90780761D02*
X244376005Y-90780761D01*
X244376005Y-91018857D01*
X244423625Y-91161714D01*
X244518863Y-91256952D01*
X244614101Y-91304571D01*
X244804577Y-91352190D01*
X244947434Y-91352190D01*
X245137910Y-91304571D01*
X245233148Y-91256952D01*
X245328386Y-91161714D01*
X245376005Y-91018857D01*
X245376005Y-90780761D01*
X245471244Y-91542666D02*
X245471244Y-92304571D01*
X244709339Y-92971238D02*
X245376005Y-92971238D01*
X244328386Y-92733142D02*
X245042672Y-92495047D01*
X245042672Y-93114095D01*
X244471244Y-93447428D02*
X244423625Y-93495047D01*
X244376005Y-93590285D01*
X244376005Y-93828380D01*
X244423625Y-93923619D01*
X244471244Y-93971238D01*
X244566482Y-94018857D01*
X244661720Y-94018857D01*
X244804577Y-93971238D01*
X245376005Y-93399809D01*
X245376005Y-94018857D01*
X264426005Y-90780761D02*
X263426005Y-90780761D01*
X263426005Y-91018857D01*
X263473625Y-91161714D01*
X263568863Y-91256952D01*
X263664101Y-91304571D01*
X263854577Y-91352190D01*
X263997434Y-91352190D01*
X264187910Y-91304571D01*
X264283148Y-91256952D01*
X264378386Y-91161714D01*
X264426005Y-91018857D01*
X264426005Y-90780761D01*
X264521244Y-91542666D02*
X264521244Y-92304571D01*
X263759339Y-92971238D02*
X264426005Y-92971238D01*
X263378386Y-92733142D02*
X264092672Y-92495047D01*
X264092672Y-93114095D01*
X263426005Y-93399809D02*
X263426005Y-94018857D01*
X263806958Y-93685523D01*
X263806958Y-93828380D01*
X263854577Y-93923619D01*
X263902196Y-93971238D01*
X263997434Y-94018857D01*
X264235529Y-94018857D01*
X264330767Y-93971238D01*
X264378386Y-93923619D01*
X264426005Y-93828380D01*
X264426005Y-93542666D01*
X264378386Y-93447428D01*
X264330767Y-93399809D01*
X169176005Y-90780761D02*
X168176005Y-90780761D01*
X168176005Y-91018857D01*
X168223625Y-91161714D01*
X168318863Y-91256952D01*
X168414101Y-91304571D01*
X168604577Y-91352190D01*
X168747434Y-91352190D01*
X168937910Y-91304571D01*
X169033148Y-91256952D01*
X169128386Y-91161714D01*
X169176005Y-91018857D01*
X169176005Y-90780761D01*
X169271244Y-91542666D02*
X169271244Y-92304571D01*
X168176005Y-92447428D02*
X168176005Y-93066476D01*
X168556958Y-92733142D01*
X168556958Y-92876000D01*
X168604577Y-92971238D01*
X168652196Y-93018857D01*
X168747434Y-93066476D01*
X168985529Y-93066476D01*
X169080767Y-93018857D01*
X169128386Y-92971238D01*
X169176005Y-92876000D01*
X169176005Y-92590285D01*
X169128386Y-92495047D01*
X169080767Y-92447428D01*
X169176005Y-93542666D02*
X169176005Y-93733142D01*
X169128386Y-93828380D01*
X169080767Y-93876000D01*
X168937910Y-93971238D01*
X168747434Y-94018857D01*
X168366482Y-94018857D01*
X168271244Y-93971238D01*
X168223625Y-93923619D01*
X168176005Y-93828380D01*
X168176005Y-93637904D01*
X168223625Y-93542666D01*
X168271244Y-93495047D01*
X168366482Y-93447428D01*
X168604577Y-93447428D01*
X168699815Y-93495047D01*
X168747434Y-93542666D01*
X168795053Y-93637904D01*
X168795053Y-93828380D01*
X168747434Y-93923619D01*
X168699815Y-93971238D01*
X168604577Y-94018857D01*
X207276005Y-71730761D02*
X206276005Y-71730761D01*
X206276005Y-71968857D01*
X206323625Y-72111714D01*
X206418863Y-72206952D01*
X206514101Y-72254571D01*
X206704577Y-72302190D01*
X206847434Y-72302190D01*
X207037910Y-72254571D01*
X207133148Y-72206952D01*
X207228386Y-72111714D01*
X207276005Y-71968857D01*
X207276005Y-71730761D01*
X207371244Y-72492666D02*
X207371244Y-73254571D01*
X206371244Y-73445047D02*
X206323625Y-73492666D01*
X206276005Y-73587904D01*
X206276005Y-73826000D01*
X206323625Y-73921238D01*
X206371244Y-73968857D01*
X206466482Y-74016476D01*
X206561720Y-74016476D01*
X206704577Y-73968857D01*
X207276005Y-73397428D01*
X207276005Y-74016476D01*
X207276005Y-74492666D02*
X207276005Y-74683142D01*
X207228386Y-74778380D01*
X207180767Y-74826000D01*
X207037910Y-74921238D01*
X206847434Y-74968857D01*
X206466482Y-74968857D01*
X206371244Y-74921238D01*
X206323625Y-74873619D01*
X206276005Y-74778380D01*
X206276005Y-74587904D01*
X206323625Y-74492666D01*
X206371244Y-74445047D01*
X206466482Y-74397428D01*
X206704577Y-74397428D01*
X206799815Y-74445047D01*
X206847434Y-74492666D01*
X206895053Y-74587904D01*
X206895053Y-74778380D01*
X206847434Y-74873619D01*
X206799815Y-74921238D01*
X206704577Y-74968857D01*
X131076005Y-71730761D02*
X130076005Y-71730761D01*
X130076005Y-71968857D01*
X130123625Y-72111714D01*
X130218863Y-72206952D01*
X130314101Y-72254571D01*
X130504577Y-72302190D01*
X130647434Y-72302190D01*
X130837910Y-72254571D01*
X130933148Y-72206952D01*
X131028386Y-72111714D01*
X131076005Y-71968857D01*
X131076005Y-71730761D01*
X131171244Y-72492666D02*
X131171244Y-73254571D01*
X130171244Y-73445047D02*
X130123625Y-73492666D01*
X130076005Y-73587904D01*
X130076005Y-73826000D01*
X130123625Y-73921238D01*
X130171244Y-73968857D01*
X130266482Y-74016476D01*
X130361720Y-74016476D01*
X130504577Y-73968857D01*
X131076005Y-73397428D01*
X131076005Y-74016476D01*
X130076005Y-74921238D02*
X130076005Y-74445047D01*
X130552196Y-74397428D01*
X130504577Y-74445047D01*
X130456958Y-74540285D01*
X130456958Y-74778380D01*
X130504577Y-74873619D01*
X130552196Y-74921238D01*
X130647434Y-74968857D01*
X130885529Y-74968857D01*
X130980767Y-74921238D01*
X131028386Y-74873619D01*
X131076005Y-74778380D01*
X131076005Y-74540285D01*
X131028386Y-74445047D01*
X130980767Y-74397428D01*
X188226005Y-34106952D02*
X187226005Y-34106952D01*
X187226005Y-34345047D01*
X187273625Y-34487904D01*
X187368863Y-34583142D01*
X187464101Y-34630761D01*
X187654577Y-34678380D01*
X187797434Y-34678380D01*
X187987910Y-34630761D01*
X188083148Y-34583142D01*
X188178386Y-34487904D01*
X188226005Y-34345047D01*
X188226005Y-34106952D01*
X188321244Y-34868857D02*
X188321244Y-35630761D01*
X187559339Y-36297428D02*
X188226005Y-36297428D01*
X187178386Y-36059333D02*
X187892672Y-35821238D01*
X187892672Y-36440285D01*
X264426005Y-52680761D02*
X263426005Y-52680761D01*
X263426005Y-52918857D01*
X263473625Y-53061714D01*
X263568863Y-53156952D01*
X263664101Y-53204571D01*
X263854577Y-53252190D01*
X263997434Y-53252190D01*
X264187910Y-53204571D01*
X264283148Y-53156952D01*
X264378386Y-53061714D01*
X264426005Y-52918857D01*
X264426005Y-52680761D01*
X264521244Y-53442666D02*
X264521244Y-54204571D01*
X263521244Y-54395047D02*
X263473625Y-54442666D01*
X263426005Y-54537904D01*
X263426005Y-54776000D01*
X263473625Y-54871238D01*
X263521244Y-54918857D01*
X263616482Y-54966476D01*
X263711720Y-54966476D01*
X263854577Y-54918857D01*
X264426005Y-54347428D01*
X264426005Y-54966476D01*
X263426005Y-55585523D02*
X263426005Y-55680761D01*
X263473625Y-55776000D01*
X263521244Y-55823619D01*
X263616482Y-55871238D01*
X263806958Y-55918857D01*
X264045053Y-55918857D01*
X264235529Y-55871238D01*
X264330767Y-55823619D01*
X264378386Y-55776000D01*
X264426005Y-55680761D01*
X264426005Y-55585523D01*
X264378386Y-55490285D01*
X264330767Y-55442666D01*
X264235529Y-55395047D01*
X264045053Y-55347428D01*
X263806958Y-55347428D01*
X263616482Y-55395047D01*
X263521244Y-55442666D01*
X263473625Y-55490285D01*
X263426005Y-55585523D01*
X150126005Y-52680761D02*
X149126005Y-52680761D01*
X149126005Y-52918857D01*
X149173625Y-53061714D01*
X149268863Y-53156952D01*
X149364101Y-53204571D01*
X149554577Y-53252190D01*
X149697434Y-53252190D01*
X149887910Y-53204571D01*
X149983148Y-53156952D01*
X150078386Y-53061714D01*
X150126005Y-52918857D01*
X150126005Y-52680761D01*
X150221244Y-53442666D02*
X150221244Y-54204571D01*
X150126005Y-54966476D02*
X150126005Y-54395047D01*
X150126005Y-54680761D02*
X149126005Y-54680761D01*
X149268863Y-54585523D01*
X149364101Y-54490285D01*
X149411720Y-54395047D01*
X149459339Y-55823619D02*
X150126005Y-55823619D01*
X149078386Y-55585523D02*
X149792672Y-55347428D01*
X149792672Y-55966476D01*
X226326005Y-71730761D02*
X225326005Y-71730761D01*
X225326005Y-71968857D01*
X225373625Y-72111714D01*
X225468863Y-72206952D01*
X225564101Y-72254571D01*
X225754577Y-72302190D01*
X225897434Y-72302190D01*
X226087910Y-72254571D01*
X226183148Y-72206952D01*
X226278386Y-72111714D01*
X226326005Y-71968857D01*
X226326005Y-71730761D01*
X226421244Y-72492666D02*
X226421244Y-73254571D01*
X225326005Y-73397428D02*
X225326005Y-74016476D01*
X225706958Y-73683142D01*
X225706958Y-73826000D01*
X225754577Y-73921238D01*
X225802196Y-73968857D01*
X225897434Y-74016476D01*
X226135529Y-74016476D01*
X226230767Y-73968857D01*
X226278386Y-73921238D01*
X226326005Y-73826000D01*
X226326005Y-73540285D01*
X226278386Y-73445047D01*
X226230767Y-73397428D01*
X225326005Y-74635523D02*
X225326005Y-74730761D01*
X225373625Y-74826000D01*
X225421244Y-74873619D01*
X225516482Y-74921238D01*
X225706958Y-74968857D01*
X225945053Y-74968857D01*
X226135529Y-74921238D01*
X226230767Y-74873619D01*
X226278386Y-74826000D01*
X226326005Y-74730761D01*
X226326005Y-74635523D01*
X226278386Y-74540285D01*
X226230767Y-74492666D01*
X226135529Y-74445047D01*
X225945053Y-74397428D01*
X225706958Y-74397428D01*
X225516482Y-74445047D01*
X225421244Y-74492666D01*
X225373625Y-74540285D01*
X225326005Y-74635523D01*
X169176005Y-71730761D02*
X168176005Y-71730761D01*
X168176005Y-71968857D01*
X168223625Y-72111714D01*
X168318863Y-72206952D01*
X168414101Y-72254571D01*
X168604577Y-72302190D01*
X168747434Y-72302190D01*
X168937910Y-72254571D01*
X169033148Y-72206952D01*
X169128386Y-72111714D01*
X169176005Y-71968857D01*
X169176005Y-71730761D01*
X169271244Y-72492666D02*
X169271244Y-73254571D01*
X168271244Y-73445047D02*
X168223625Y-73492666D01*
X168176005Y-73587904D01*
X168176005Y-73826000D01*
X168223625Y-73921238D01*
X168271244Y-73968857D01*
X168366482Y-74016476D01*
X168461720Y-74016476D01*
X168604577Y-73968857D01*
X169176005Y-73397428D01*
X169176005Y-74016476D01*
X168176005Y-74349809D02*
X168176005Y-75016476D01*
X169176005Y-74587904D01*
X150126005Y-71730761D02*
X149126005Y-71730761D01*
X149126005Y-71968857D01*
X149173625Y-72111714D01*
X149268863Y-72206952D01*
X149364101Y-72254571D01*
X149554577Y-72302190D01*
X149697434Y-72302190D01*
X149887910Y-72254571D01*
X149983148Y-72206952D01*
X150078386Y-72111714D01*
X150126005Y-71968857D01*
X150126005Y-71730761D01*
X150221244Y-72492666D02*
X150221244Y-73254571D01*
X149221244Y-73445047D02*
X149173625Y-73492666D01*
X149126005Y-73587904D01*
X149126005Y-73826000D01*
X149173625Y-73921238D01*
X149221244Y-73968857D01*
X149316482Y-74016476D01*
X149411720Y-74016476D01*
X149554577Y-73968857D01*
X150126005Y-73397428D01*
X150126005Y-74016476D01*
X149126005Y-74873619D02*
X149126005Y-74683142D01*
X149173625Y-74587904D01*
X149221244Y-74540285D01*
X149364101Y-74445047D01*
X149554577Y-74397428D01*
X149935529Y-74397428D01*
X150030767Y-74445047D01*
X150078386Y-74492666D01*
X150126005Y-74587904D01*
X150126005Y-74778380D01*
X150078386Y-74873619D01*
X150030767Y-74921238D01*
X149935529Y-74968857D01*
X149697434Y-74968857D01*
X149602196Y-74921238D01*
X149554577Y-74873619D01*
X149506958Y-74778380D01*
X149506958Y-74587904D01*
X149554577Y-74492666D01*
X149602196Y-74445047D01*
X149697434Y-74397428D01*
X150126005Y-90780761D02*
X149126005Y-90780761D01*
X149126005Y-91018857D01*
X149173625Y-91161714D01*
X149268863Y-91256952D01*
X149364101Y-91304571D01*
X149554577Y-91352190D01*
X149697434Y-91352190D01*
X149887910Y-91304571D01*
X149983148Y-91256952D01*
X150078386Y-91161714D01*
X150126005Y-91018857D01*
X150126005Y-90780761D01*
X150221244Y-91542666D02*
X150221244Y-92304571D01*
X149126005Y-92447428D02*
X149126005Y-93066476D01*
X149506958Y-92733142D01*
X149506958Y-92876000D01*
X149554577Y-92971238D01*
X149602196Y-93018857D01*
X149697434Y-93066476D01*
X149935529Y-93066476D01*
X150030767Y-93018857D01*
X150078386Y-92971238D01*
X150126005Y-92876000D01*
X150126005Y-92590285D01*
X150078386Y-92495047D01*
X150030767Y-92447428D01*
X149554577Y-93637904D02*
X149506958Y-93542666D01*
X149459339Y-93495047D01*
X149364101Y-93447428D01*
X149316482Y-93447428D01*
X149221244Y-93495047D01*
X149173625Y-93542666D01*
X149126005Y-93637904D01*
X149126005Y-93828380D01*
X149173625Y-93923619D01*
X149221244Y-93971238D01*
X149316482Y-94018857D01*
X149364101Y-94018857D01*
X149459339Y-93971238D01*
X149506958Y-93923619D01*
X149554577Y-93828380D01*
X149554577Y-93637904D01*
X149602196Y-93542666D01*
X149649815Y-93495047D01*
X149745053Y-93447428D01*
X149935529Y-93447428D01*
X150030767Y-93495047D01*
X150078386Y-93542666D01*
X150126005Y-93637904D01*
X150126005Y-93828380D01*
X150078386Y-93923619D01*
X150030767Y-93971238D01*
X149935529Y-94018857D01*
X149745053Y-94018857D01*
X149649815Y-93971238D01*
X149602196Y-93923619D01*
X149554577Y-93828380D01*
X188226005Y-90780761D02*
X187226005Y-90780761D01*
X187226005Y-91018857D01*
X187273625Y-91161714D01*
X187368863Y-91256952D01*
X187464101Y-91304571D01*
X187654577Y-91352190D01*
X187797434Y-91352190D01*
X187987910Y-91304571D01*
X188083148Y-91256952D01*
X188178386Y-91161714D01*
X188226005Y-91018857D01*
X188226005Y-90780761D01*
X188321244Y-91542666D02*
X188321244Y-92304571D01*
X187559339Y-92971238D02*
X188226005Y-92971238D01*
X187178386Y-92733142D02*
X187892672Y-92495047D01*
X187892672Y-93114095D01*
X187226005Y-93685523D02*
X187226005Y-93780761D01*
X187273625Y-93876000D01*
X187321244Y-93923619D01*
X187416482Y-93971238D01*
X187606958Y-94018857D01*
X187845053Y-94018857D01*
X188035529Y-93971238D01*
X188130767Y-93923619D01*
X188178386Y-93876000D01*
X188226005Y-93780761D01*
X188226005Y-93685523D01*
X188178386Y-93590285D01*
X188130767Y-93542666D01*
X188035529Y-93495047D01*
X187845053Y-93447428D01*
X187606958Y-93447428D01*
X187416482Y-93495047D01*
X187321244Y-93542666D01*
X187273625Y-93590285D01*
X187226005Y-93685523D01*
X207276005Y-52680761D02*
X206276005Y-52680761D01*
X206276005Y-52918857D01*
X206323625Y-53061714D01*
X206418863Y-53156952D01*
X206514101Y-53204571D01*
X206704577Y-53252190D01*
X206847434Y-53252190D01*
X207037910Y-53204571D01*
X207133148Y-53156952D01*
X207228386Y-53061714D01*
X207276005Y-52918857D01*
X207276005Y-52680761D01*
X207371244Y-53442666D02*
X207371244Y-54204571D01*
X207276005Y-54966476D02*
X207276005Y-54395047D01*
X207276005Y-54680761D02*
X206276005Y-54680761D01*
X206418863Y-54585523D01*
X206514101Y-54490285D01*
X206561720Y-54395047D01*
X206276005Y-55299809D02*
X206276005Y-55966476D01*
X207276005Y-55537904D01*
X112026005Y-34106952D02*
X111026005Y-34106952D01*
X111026005Y-34345047D01*
X111073625Y-34487904D01*
X111168863Y-34583142D01*
X111264101Y-34630761D01*
X111454577Y-34678380D01*
X111597434Y-34678380D01*
X111787910Y-34630761D01*
X111883148Y-34583142D01*
X111978386Y-34487904D01*
X112026005Y-34345047D01*
X112026005Y-34106952D01*
X112121244Y-34868857D02*
X112121244Y-35630761D01*
X111026005Y-36059333D02*
X111026005Y-36154571D01*
X111073625Y-36249809D01*
X111121244Y-36297428D01*
X111216482Y-36345047D01*
X111406958Y-36392666D01*
X111645053Y-36392666D01*
X111835529Y-36345047D01*
X111930767Y-36297428D01*
X111978386Y-36249809D01*
X112026005Y-36154571D01*
X112026005Y-36059333D01*
X111978386Y-35964095D01*
X111930767Y-35916476D01*
X111835529Y-35868857D01*
X111645053Y-35821238D01*
X111406958Y-35821238D01*
X111216482Y-35868857D01*
X111121244Y-35916476D01*
X111073625Y-35964095D01*
X111026005Y-36059333D01*
X207276005Y-34106952D02*
X206276005Y-34106952D01*
X206276005Y-34345047D01*
X206323625Y-34487904D01*
X206418863Y-34583142D01*
X206514101Y-34630761D01*
X206704577Y-34678380D01*
X206847434Y-34678380D01*
X207037910Y-34630761D01*
X207133148Y-34583142D01*
X207228386Y-34487904D01*
X207276005Y-34345047D01*
X207276005Y-34106952D01*
X207371244Y-34868857D02*
X207371244Y-35630761D01*
X206276005Y-36345047D02*
X206276005Y-35868857D01*
X206752196Y-35821238D01*
X206704577Y-35868857D01*
X206656958Y-35964095D01*
X206656958Y-36202190D01*
X206704577Y-36297428D01*
X206752196Y-36345047D01*
X206847434Y-36392666D01*
X207085529Y-36392666D01*
X207180767Y-36345047D01*
X207228386Y-36297428D01*
X207276005Y-36202190D01*
X207276005Y-35964095D01*
X207228386Y-35868857D01*
X207180767Y-35821238D01*
X226326005Y-52680761D02*
X225326005Y-52680761D01*
X225326005Y-52918857D01*
X225373625Y-53061714D01*
X225468863Y-53156952D01*
X225564101Y-53204571D01*
X225754577Y-53252190D01*
X225897434Y-53252190D01*
X226087910Y-53204571D01*
X226183148Y-53156952D01*
X226278386Y-53061714D01*
X226326005Y-52918857D01*
X226326005Y-52680761D01*
X226421244Y-53442666D02*
X226421244Y-54204571D01*
X226326005Y-54966476D02*
X226326005Y-54395047D01*
X226326005Y-54680761D02*
X225326005Y-54680761D01*
X225468863Y-54585523D01*
X225564101Y-54490285D01*
X225611720Y-54395047D01*
X225754577Y-55537904D02*
X225706958Y-55442666D01*
X225659339Y-55395047D01*
X225564101Y-55347428D01*
X225516482Y-55347428D01*
X225421244Y-55395047D01*
X225373625Y-55442666D01*
X225326005Y-55537904D01*
X225326005Y-55728380D01*
X225373625Y-55823619D01*
X225421244Y-55871238D01*
X225516482Y-55918857D01*
X225564101Y-55918857D01*
X225659339Y-55871238D01*
X225706958Y-55823619D01*
X225754577Y-55728380D01*
X225754577Y-55537904D01*
X225802196Y-55442666D01*
X225849815Y-55395047D01*
X225945053Y-55347428D01*
X226135529Y-55347428D01*
X226230767Y-55395047D01*
X226278386Y-55442666D01*
X226326005Y-55537904D01*
X226326005Y-55728380D01*
X226278386Y-55823619D01*
X226230767Y-55871238D01*
X226135529Y-55918857D01*
X225945053Y-55918857D01*
X225849815Y-55871238D01*
X225802196Y-55823619D01*
X225754577Y-55728380D01*
X188226005Y-71730761D02*
X187226005Y-71730761D01*
X187226005Y-71968857D01*
X187273625Y-72111714D01*
X187368863Y-72206952D01*
X187464101Y-72254571D01*
X187654577Y-72302190D01*
X187797434Y-72302190D01*
X187987910Y-72254571D01*
X188083148Y-72206952D01*
X188178386Y-72111714D01*
X188226005Y-71968857D01*
X188226005Y-71730761D01*
X188321244Y-72492666D02*
X188321244Y-73254571D01*
X187321244Y-73445047D02*
X187273625Y-73492666D01*
X187226005Y-73587904D01*
X187226005Y-73826000D01*
X187273625Y-73921238D01*
X187321244Y-73968857D01*
X187416482Y-74016476D01*
X187511720Y-74016476D01*
X187654577Y-73968857D01*
X188226005Y-73397428D01*
X188226005Y-74016476D01*
X187654577Y-74587904D02*
X187606958Y-74492666D01*
X187559339Y-74445047D01*
X187464101Y-74397428D01*
X187416482Y-74397428D01*
X187321244Y-74445047D01*
X187273625Y-74492666D01*
X187226005Y-74587904D01*
X187226005Y-74778380D01*
X187273625Y-74873619D01*
X187321244Y-74921238D01*
X187416482Y-74968857D01*
X187464101Y-74968857D01*
X187559339Y-74921238D01*
X187606958Y-74873619D01*
X187654577Y-74778380D01*
X187654577Y-74587904D01*
X187702196Y-74492666D01*
X187749815Y-74445047D01*
X187845053Y-74397428D01*
X188035529Y-74397428D01*
X188130767Y-74445047D01*
X188178386Y-74492666D01*
X188226005Y-74587904D01*
X188226005Y-74778380D01*
X188178386Y-74873619D01*
X188130767Y-74921238D01*
X188035529Y-74968857D01*
X187845053Y-74968857D01*
X187749815Y-74921238D01*
X187702196Y-74873619D01*
X187654577Y-74778380D01*
X283476005Y-71730761D02*
X282476005Y-71730761D01*
X282476005Y-71968857D01*
X282523625Y-72111714D01*
X282618863Y-72206952D01*
X282714101Y-72254571D01*
X282904577Y-72302190D01*
X283047434Y-72302190D01*
X283237910Y-72254571D01*
X283333148Y-72206952D01*
X283428386Y-72111714D01*
X283476005Y-71968857D01*
X283476005Y-71730761D01*
X283571244Y-72492666D02*
X283571244Y-73254571D01*
X282476005Y-73397428D02*
X282476005Y-74016476D01*
X282856958Y-73683142D01*
X282856958Y-73826000D01*
X282904577Y-73921238D01*
X282952196Y-73968857D01*
X283047434Y-74016476D01*
X283285529Y-74016476D01*
X283380767Y-73968857D01*
X283428386Y-73921238D01*
X283476005Y-73826000D01*
X283476005Y-73540285D01*
X283428386Y-73445047D01*
X283380767Y-73397428D01*
X282476005Y-74349809D02*
X282476005Y-74968857D01*
X282856958Y-74635523D01*
X282856958Y-74778380D01*
X282904577Y-74873619D01*
X282952196Y-74921238D01*
X283047434Y-74968857D01*
X283285529Y-74968857D01*
X283380767Y-74921238D01*
X283428386Y-74873619D01*
X283476005Y-74778380D01*
X283476005Y-74492666D01*
X283428386Y-74397428D01*
X283380767Y-74349809D01*
X326338505Y-90780761D02*
X325338505Y-90780761D01*
X325338505Y-91018857D01*
X325386125Y-91161714D01*
X325481363Y-91256952D01*
X325576601Y-91304571D01*
X325767077Y-91352190D01*
X325909934Y-91352190D01*
X326100410Y-91304571D01*
X326195648Y-91256952D01*
X326290886Y-91161714D01*
X326338505Y-91018857D01*
X326338505Y-90780761D01*
X326433744Y-91542666D02*
X326433744Y-92304571D01*
X325671839Y-92971238D02*
X326338505Y-92971238D01*
X325290886Y-92733142D02*
X326005172Y-92495047D01*
X326005172Y-93114095D01*
X325338505Y-93923619D02*
X325338505Y-93733142D01*
X325386125Y-93637904D01*
X325433744Y-93590285D01*
X325576601Y-93495047D01*
X325767077Y-93447428D01*
X326148029Y-93447428D01*
X326243267Y-93495047D01*
X326290886Y-93542666D01*
X326338505Y-93637904D01*
X326338505Y-93828380D01*
X326290886Y-93923619D01*
X326243267Y-93971238D01*
X326148029Y-94018857D01*
X325909934Y-94018857D01*
X325814696Y-93971238D01*
X325767077Y-93923619D01*
X325719458Y-93828380D01*
X325719458Y-93637904D01*
X325767077Y-93542666D01*
X325814696Y-93495047D01*
X325909934Y-93447428D01*
X302526005Y-90780761D02*
X301526005Y-90780761D01*
X301526005Y-91018857D01*
X301573625Y-91161714D01*
X301668863Y-91256952D01*
X301764101Y-91304571D01*
X301954577Y-91352190D01*
X302097434Y-91352190D01*
X302287910Y-91304571D01*
X302383148Y-91256952D01*
X302478386Y-91161714D01*
X302526005Y-91018857D01*
X302526005Y-90780761D01*
X302621244Y-91542666D02*
X302621244Y-92304571D01*
X301859339Y-92971238D02*
X302526005Y-92971238D01*
X301478386Y-92733142D02*
X302192672Y-92495047D01*
X302192672Y-93114095D01*
X301526005Y-93971238D02*
X301526005Y-93495047D01*
X302002196Y-93447428D01*
X301954577Y-93495047D01*
X301906958Y-93590285D01*
X301906958Y-93828380D01*
X301954577Y-93923619D01*
X302002196Y-93971238D01*
X302097434Y-94018857D01*
X302335529Y-94018857D01*
X302430767Y-93971238D01*
X302478386Y-93923619D01*
X302526005Y-93828380D01*
X302526005Y-93590285D01*
X302478386Y-93495047D01*
X302430767Y-93447428D01*
X226326005Y-90780761D02*
X225326005Y-90780761D01*
X225326005Y-91018857D01*
X225373625Y-91161714D01*
X225468863Y-91256952D01*
X225564101Y-91304571D01*
X225754577Y-91352190D01*
X225897434Y-91352190D01*
X226087910Y-91304571D01*
X226183148Y-91256952D01*
X226278386Y-91161714D01*
X226326005Y-91018857D01*
X226326005Y-90780761D01*
X226421244Y-91542666D02*
X226421244Y-92304571D01*
X225659339Y-92971238D02*
X226326005Y-92971238D01*
X225278386Y-92733142D02*
X225992672Y-92495047D01*
X225992672Y-93114095D01*
X226326005Y-94018857D02*
X226326005Y-93447428D01*
X226326005Y-93733142D02*
X225326005Y-93733142D01*
X225468863Y-93637904D01*
X225564101Y-93542666D01*
X225611720Y-93447428D01*
X169176005Y-52680761D02*
X168176005Y-52680761D01*
X168176005Y-52918857D01*
X168223625Y-53061714D01*
X168318863Y-53156952D01*
X168414101Y-53204571D01*
X168604577Y-53252190D01*
X168747434Y-53252190D01*
X168937910Y-53204571D01*
X169033148Y-53156952D01*
X169128386Y-53061714D01*
X169176005Y-52918857D01*
X169176005Y-52680761D01*
X169271244Y-53442666D02*
X169271244Y-54204571D01*
X169176005Y-54966476D02*
X169176005Y-54395047D01*
X169176005Y-54680761D02*
X168176005Y-54680761D01*
X168318863Y-54585523D01*
X168414101Y-54490285D01*
X168461720Y-54395047D01*
X168176005Y-55871238D02*
X168176005Y-55395047D01*
X168652196Y-55347428D01*
X168604577Y-55395047D01*
X168556958Y-55490285D01*
X168556958Y-55728380D01*
X168604577Y-55823619D01*
X168652196Y-55871238D01*
X168747434Y-55918857D01*
X168985529Y-55918857D01*
X169080767Y-55871238D01*
X169128386Y-55823619D01*
X169176005Y-55728380D01*
X169176005Y-55490285D01*
X169128386Y-55395047D01*
X169080767Y-55347428D01*
X302526005Y-71730761D02*
X301526005Y-71730761D01*
X301526005Y-71968857D01*
X301573625Y-72111714D01*
X301668863Y-72206952D01*
X301764101Y-72254571D01*
X301954577Y-72302190D01*
X302097434Y-72302190D01*
X302287910Y-72254571D01*
X302383148Y-72206952D01*
X302478386Y-72111714D01*
X302526005Y-71968857D01*
X302526005Y-71730761D01*
X302621244Y-72492666D02*
X302621244Y-73254571D01*
X301526005Y-73397428D02*
X301526005Y-74016476D01*
X301906958Y-73683142D01*
X301906958Y-73826000D01*
X301954577Y-73921238D01*
X302002196Y-73968857D01*
X302097434Y-74016476D01*
X302335529Y-74016476D01*
X302430767Y-73968857D01*
X302478386Y-73921238D01*
X302526005Y-73826000D01*
X302526005Y-73540285D01*
X302478386Y-73445047D01*
X302430767Y-73397428D01*
X301859339Y-74873619D02*
X302526005Y-74873619D01*
X301478386Y-74635523D02*
X302192672Y-74397428D01*
X302192672Y-75016476D01*
X245376005Y-34106952D02*
X244376005Y-34106952D01*
X244376005Y-34345047D01*
X244423625Y-34487904D01*
X244518863Y-34583142D01*
X244614101Y-34630761D01*
X244804577Y-34678380D01*
X244947434Y-34678380D01*
X245137910Y-34630761D01*
X245233148Y-34583142D01*
X245328386Y-34487904D01*
X245376005Y-34345047D01*
X245376005Y-34106952D01*
X245471244Y-34868857D02*
X245471244Y-35630761D01*
X244376005Y-35773619D02*
X244376005Y-36440285D01*
X245376005Y-36011714D01*
D11*
X86253125Y-27741000D02*
X86253125Y-58221000D01*
X86253125Y-58221000D02*
X68473125Y-58221000D01*
X68473125Y-58221000D02*
X68473125Y-27741000D01*
X83713125Y-27741000D02*
X83713125Y-30281000D01*
X83713125Y-30281000D02*
X86253125Y-30281000D01*
G36*
X72531557Y-33920360D02*
G01*
X72431557Y-33920360D01*
X72431557Y-33620360D01*
X72531557Y-33620360D01*
X72531557Y-33920360D01*
G37*
D10*
X72531557Y-33920360D02*
X72431557Y-33920360D01*
X72431557Y-33620360D01*
X72531557Y-33620360D01*
X72531557Y-33920360D01*
G36*
X72731557Y-34120360D02*
G01*
X72631557Y-34120360D01*
X72631557Y-34020360D01*
X72731557Y-34020360D01*
X72731557Y-34120360D01*
G37*
X72731557Y-34120360D02*
X72631557Y-34120360D01*
X72631557Y-34020360D01*
X72731557Y-34020360D01*
X72731557Y-34120360D01*
G36*
X72931557Y-33720360D02*
G01*
X72431557Y-33720360D01*
X72431557Y-33620360D01*
X72931557Y-33620360D01*
X72931557Y-33720360D01*
G37*
X72931557Y-33720360D02*
X72431557Y-33720360D01*
X72431557Y-33620360D01*
X72931557Y-33620360D01*
X72931557Y-33720360D01*
G36*
X72931557Y-34420360D02*
G01*
X72831557Y-34420360D01*
X72831557Y-33620360D01*
X72931557Y-33620360D01*
X72931557Y-34420360D01*
G37*
X72931557Y-34420360D02*
X72831557Y-34420360D01*
X72831557Y-33620360D01*
X72931557Y-33620360D01*
X72931557Y-34420360D01*
G36*
X72531557Y-34420360D02*
G01*
X72431557Y-34420360D01*
X72431557Y-34220360D01*
X72531557Y-34220360D01*
X72531557Y-34420360D01*
G37*
X72531557Y-34420360D02*
X72431557Y-34420360D01*
X72431557Y-34220360D01*
X72531557Y-34220360D01*
X72531557Y-34420360D01*
D11*
X68473125Y-27741000D02*
X68473125Y-25201000D01*
X68473125Y-25201000D02*
X86253125Y-25201000D01*
X86253125Y-25201000D02*
X86253125Y-27741000D01*
X83713125Y-27741000D02*
X86253125Y-27741000D01*
D12*
X129623625Y-56526000D02*
X127623625Y-56526000D01*
X129623625Y-56526000D02*
X129623625Y-52626000D01*
X127623625Y-56526000D02*
X127623625Y-52626000D01*
X148673625Y-37476000D02*
X146673625Y-37476000D01*
X148673625Y-37476000D02*
X148673625Y-33576000D01*
X146673625Y-37476000D02*
X146673625Y-33576000D01*
X301073625Y-56526000D02*
X299073625Y-56526000D01*
X301073625Y-56526000D02*
X301073625Y-52626000D01*
X299073625Y-56526000D02*
X299073625Y-52626000D01*
X341936125Y-56526000D02*
X341936125Y-52626000D01*
X343936125Y-56526000D02*
X343936125Y-52626000D01*
X343936125Y-56526000D02*
X341936125Y-56526000D01*
X262973625Y-75576000D02*
X262973625Y-71676000D01*
X260973625Y-75576000D02*
X260973625Y-71676000D01*
X262973625Y-75576000D02*
X260973625Y-75576000D01*
X260973625Y-37476000D02*
X260973625Y-33576000D01*
X262973625Y-37476000D02*
X262973625Y-33576000D01*
X262973625Y-37476000D02*
X260973625Y-37476000D01*
X129623625Y-94626000D02*
X127623625Y-94626000D01*
X127623625Y-94626000D02*
X127623625Y-90726000D01*
X129623625Y-94626000D02*
X129623625Y-90726000D01*
X351461125Y-75576000D02*
X351461125Y-71676000D01*
X353461125Y-75576000D02*
X351461125Y-75576000D01*
X353461125Y-75576000D02*
X353461125Y-71676000D01*
X110573625Y-94626000D02*
X110573625Y-90726000D01*
X110573625Y-94626000D02*
X108573625Y-94626000D01*
X108573625Y-94626000D02*
X108573625Y-90726000D01*
X301073625Y-37476000D02*
X301073625Y-33576000D01*
X299073625Y-37476000D02*
X299073625Y-33576000D01*
X301073625Y-37476000D02*
X299073625Y-37476000D01*
X127623625Y-37476000D02*
X127623625Y-33576000D01*
X129623625Y-37476000D02*
X127623625Y-37476000D01*
X129623625Y-37476000D02*
X129623625Y-33576000D01*
X243923625Y-75576000D02*
X241923625Y-75576000D01*
X243923625Y-75576000D02*
X243923625Y-71676000D01*
X241923625Y-75576000D02*
X241923625Y-71676000D01*
X282023625Y-94626000D02*
X282023625Y-90726000D01*
X280023625Y-94626000D02*
X280023625Y-90726000D01*
X282023625Y-94626000D02*
X280023625Y-94626000D01*
X222873625Y-37476000D02*
X222873625Y-33576000D01*
X224873625Y-37476000D02*
X222873625Y-37476000D01*
X224873625Y-37476000D02*
X224873625Y-33576000D01*
X329648625Y-37476000D02*
X327648625Y-37476000D01*
X329648625Y-37476000D02*
X329648625Y-33576000D01*
X327648625Y-37476000D02*
X327648625Y-33576000D01*
X108573625Y-56526000D02*
X108573625Y-52626000D01*
X110573625Y-56526000D02*
X108573625Y-56526000D01*
X110573625Y-56526000D02*
X110573625Y-52626000D01*
X110573625Y-75576000D02*
X108573625Y-75576000D01*
X108573625Y-75576000D02*
X108573625Y-71676000D01*
X110573625Y-75576000D02*
X110573625Y-71676000D01*
X167723625Y-37476000D02*
X167723625Y-33576000D01*
X165723625Y-37476000D02*
X165723625Y-33576000D01*
X167723625Y-37476000D02*
X165723625Y-37476000D01*
X282023625Y-37476000D02*
X280023625Y-37476000D01*
X282023625Y-37476000D02*
X282023625Y-33576000D01*
X280023625Y-37476000D02*
X280023625Y-33576000D01*
X186773625Y-56526000D02*
X184773625Y-56526000D01*
X186773625Y-56526000D02*
X186773625Y-52626000D01*
X184773625Y-56526000D02*
X184773625Y-52626000D01*
X280023625Y-56526000D02*
X280023625Y-52626000D01*
X282023625Y-56526000D02*
X280023625Y-56526000D01*
X282023625Y-56526000D02*
X282023625Y-52626000D01*
X243923625Y-56526000D02*
X241923625Y-56526000D01*
X243923625Y-56526000D02*
X243923625Y-52626000D01*
X241923625Y-56526000D02*
X241923625Y-52626000D01*
X243923625Y-94626000D02*
X241923625Y-94626000D01*
X243923625Y-94626000D02*
X243923625Y-90726000D01*
X241923625Y-94626000D02*
X241923625Y-90726000D01*
X262973625Y-94626000D02*
X262973625Y-90726000D01*
X262973625Y-94626000D02*
X260973625Y-94626000D01*
X260973625Y-94626000D02*
X260973625Y-90726000D01*
X167723625Y-94626000D02*
X165723625Y-94626000D01*
X167723625Y-94626000D02*
X167723625Y-90726000D01*
X165723625Y-94626000D02*
X165723625Y-90726000D01*
X205823625Y-75576000D02*
X203823625Y-75576000D01*
X203823625Y-75576000D02*
X203823625Y-71676000D01*
X205823625Y-75576000D02*
X205823625Y-71676000D01*
X127623625Y-75576000D02*
X127623625Y-71676000D01*
X129623625Y-75576000D02*
X129623625Y-71676000D01*
X129623625Y-75576000D02*
X127623625Y-75576000D01*
X186773625Y-37476000D02*
X186773625Y-33576000D01*
X186773625Y-37476000D02*
X184773625Y-37476000D01*
X184773625Y-37476000D02*
X184773625Y-33576000D01*
X262973625Y-56526000D02*
X262973625Y-52626000D01*
X260973625Y-56526000D02*
X260973625Y-52626000D01*
X262973625Y-56526000D02*
X260973625Y-56526000D01*
X146673625Y-56526000D02*
X146673625Y-52626000D01*
X148673625Y-56526000D02*
X148673625Y-52626000D01*
X148673625Y-56526000D02*
X146673625Y-56526000D01*
X224873625Y-75576000D02*
X222873625Y-75576000D01*
X224873625Y-75576000D02*
X224873625Y-71676000D01*
X222873625Y-75576000D02*
X222873625Y-71676000D01*
X167723625Y-75576000D02*
X167723625Y-71676000D01*
X167723625Y-75576000D02*
X165723625Y-75576000D01*
X165723625Y-75576000D02*
X165723625Y-71676000D01*
X148673625Y-75576000D02*
X148673625Y-71676000D01*
X148673625Y-75576000D02*
X146673625Y-75576000D01*
X146673625Y-75576000D02*
X146673625Y-71676000D01*
X146673625Y-94626000D02*
X146673625Y-90726000D01*
X148673625Y-94626000D02*
X146673625Y-94626000D01*
X148673625Y-94626000D02*
X148673625Y-90726000D01*
X184773625Y-94626000D02*
X184773625Y-90726000D01*
X186773625Y-94626000D02*
X184773625Y-94626000D01*
X186773625Y-94626000D02*
X186773625Y-90726000D01*
X205823625Y-56526000D02*
X203823625Y-56526000D01*
X205823625Y-56526000D02*
X205823625Y-52626000D01*
X203823625Y-56526000D02*
X203823625Y-52626000D01*
X110573625Y-37476000D02*
X108573625Y-37476000D01*
X110573625Y-37476000D02*
X110573625Y-33576000D01*
X108573625Y-37476000D02*
X108573625Y-33576000D01*
X203823625Y-37476000D02*
X203823625Y-33576000D01*
X205823625Y-37476000D02*
X203823625Y-37476000D01*
X205823625Y-37476000D02*
X205823625Y-33576000D01*
X224873625Y-56526000D02*
X224873625Y-52626000D01*
X222873625Y-56526000D02*
X222873625Y-52626000D01*
X224873625Y-56526000D02*
X222873625Y-56526000D01*
X184773625Y-75576000D02*
X184773625Y-71676000D01*
X186773625Y-75576000D02*
X186773625Y-71676000D01*
X186773625Y-75576000D02*
X184773625Y-75576000D01*
X282023625Y-75576000D02*
X280023625Y-75576000D01*
X282023625Y-75576000D02*
X282023625Y-71676000D01*
X280023625Y-75576000D02*
X280023625Y-71676000D01*
X322886125Y-94626000D02*
X322886125Y-90726000D01*
X324886125Y-94626000D02*
X324886125Y-90726000D01*
X324886125Y-94626000D02*
X322886125Y-94626000D01*
X301073625Y-94626000D02*
X301073625Y-90726000D01*
X299073625Y-94626000D02*
X299073625Y-90726000D01*
X301073625Y-94626000D02*
X299073625Y-94626000D01*
X224873625Y-94626000D02*
X222873625Y-94626000D01*
X224873625Y-94626000D02*
X224873625Y-90726000D01*
X222873625Y-94626000D02*
X222873625Y-90726000D01*
X167723625Y-56526000D02*
X167723625Y-52626000D01*
X165723625Y-56526000D02*
X165723625Y-52626000D01*
X167723625Y-56526000D02*
X165723625Y-56526000D01*
X301073625Y-75576000D02*
X299073625Y-75576000D01*
X299073625Y-75576000D02*
X299073625Y-71676000D01*
X301073625Y-75576000D02*
X301073625Y-71676000D01*
X241923625Y-37476000D02*
X241923625Y-33576000D01*
X243923625Y-37476000D02*
X243923625Y-33576000D01*
X243923625Y-37476000D02*
X241923625Y-37476000D01*
D13*
X84983125Y-29011000D03*
D14*
X84983125Y-31551000D03*
X84983125Y-34091000D03*
X84983125Y-36631000D03*
X84983125Y-39171000D03*
X84983125Y-41711000D03*
X84983125Y-44251000D03*
X84983125Y-46791000D03*
X84983125Y-49331000D03*
X84983125Y-51871000D03*
X84983125Y-54411000D03*
X69743125Y-56951000D03*
X69743125Y-54411000D03*
X69743125Y-51871000D03*
X69743125Y-49331000D03*
X69743125Y-46791000D03*
X69743125Y-44251000D03*
X69743125Y-41711000D03*
X69743125Y-39171000D03*
X69743125Y-36631000D03*
X69743125Y-34091000D03*
X69743125Y-31551000D03*
X84983125Y-56951000D03*
X69743125Y-29011000D03*
M02*
