G04 #@! TF.GenerationSoftware,KiCad,Pcbnew,(6.0.7)*
G04 #@! TF.CreationDate,2022-10-02T14:26:17-07:00*
G04 #@! TF.ProjectId,keyboard,6b657962-6f61-4726-942e-6b696361645f,rev?*
G04 #@! TF.SameCoordinates,Original*
G04 #@! TF.FileFunction,Copper,L2,Bot*
G04 #@! TF.FilePolarity,Positive*
%FSLAX46Y46*%
G04 Gerber Fmt 4.6, Leading zero omitted, Abs format (unit mm)*
G04 Created by KiCad (PCBNEW (6.0.7)) date 2022-10-02 14:26:17*
%MOMM*%
%LPD*%
G01*
G04 APERTURE LIST*
G04 Aperture macros list*
%AMHorizOval*
0 Thick line with rounded ends*
0 $1 width*
0 $2 $3 position (X,Y) of the first rounded end (center of the circle)*
0 $4 $5 position (X,Y) of the second rounded end (center of the circle)*
0 Add line between two ends*
20,1,$1,$2,$3,$4,$5,0*
0 Add two circle primitives to create the rounded ends*
1,1,$1,$2,$3*
1,1,$1,$4,$5*%
G04 Aperture macros list end*
G04 #@! TA.AperFunction,ComponentPad*
%ADD10C,2.250000*%
G04 #@! TD*
G04 #@! TA.AperFunction,ComponentPad*
%ADD11HorizOval,2.250000X0.655001X0.730000X-0.655001X-0.730000X0*%
G04 #@! TD*
G04 #@! TA.AperFunction,ComponentPad*
%ADD12HorizOval,2.250000X0.020000X0.290000X-0.020000X-0.290000X0*%
G04 #@! TD*
G04 #@! TA.AperFunction,ComponentPad*
%ADD13R,1.752600X1.752600*%
G04 #@! TD*
G04 #@! TA.AperFunction,ComponentPad*
%ADD14C,1.752600*%
G04 #@! TD*
G04 #@! TA.AperFunction,SMDPad,CuDef*
%ADD15R,1.200000X0.900000*%
G04 #@! TD*
G04 #@! TA.AperFunction,Conductor*
%ADD16C,0.250000*%
G04 #@! TD*
G04 APERTURE END LIST*
D10*
X136648625Y-87876000D03*
D11*
X135993626Y-88606000D03*
D10*
X141688625Y-86796000D03*
D12*
X141668625Y-87086000D03*
D13*
X84983125Y-29011000D03*
D14*
X84983125Y-31551000D03*
X84983125Y-34091000D03*
X84983125Y-36631000D03*
X84983125Y-39171000D03*
X84983125Y-41711000D03*
X84983125Y-44251000D03*
X84983125Y-46791000D03*
X84983125Y-49331000D03*
X84983125Y-51871000D03*
X84983125Y-54411000D03*
X69743125Y-56951000D03*
X69743125Y-54411000D03*
X69743125Y-51871000D03*
X69743125Y-49331000D03*
X69743125Y-46791000D03*
X69743125Y-44251000D03*
X69743125Y-41711000D03*
X69743125Y-39171000D03*
X69743125Y-36631000D03*
X69743125Y-34091000D03*
X69743125Y-31551000D03*
X84983125Y-56951000D03*
X69743125Y-29011000D03*
D10*
X294088625Y-29646000D03*
D12*
X294068625Y-29936000D03*
D10*
X289048625Y-30726000D03*
D11*
X288393626Y-31456000D03*
D10*
X136648625Y-49776000D03*
D11*
X135993626Y-50506000D03*
D10*
X141688625Y-48696000D03*
D12*
X141668625Y-48986000D03*
D11*
X231243626Y-88606000D03*
D10*
X231898625Y-87876000D03*
X236938625Y-86796000D03*
D12*
X236918625Y-87086000D03*
D10*
X212848625Y-68826000D03*
D11*
X212193626Y-69556000D03*
D10*
X217888625Y-67746000D03*
D12*
X217868625Y-68036000D03*
D10*
X269998625Y-87876000D03*
D11*
X269343626Y-88606000D03*
D12*
X275018625Y-87086000D03*
D10*
X275038625Y-86796000D03*
D11*
X231243626Y-69556000D03*
D10*
X231898625Y-68826000D03*
D12*
X236918625Y-68036000D03*
D10*
X236938625Y-67746000D03*
X96167375Y-87876000D03*
D11*
X95512376Y-88606000D03*
D12*
X101187375Y-87086000D03*
D10*
X101207375Y-86796000D03*
X231898625Y-49776000D03*
D11*
X231243626Y-50506000D03*
D12*
X236918625Y-48986000D03*
D10*
X236938625Y-48696000D03*
X174748625Y-68826000D03*
D11*
X174093626Y-69556000D03*
D10*
X179788625Y-67746000D03*
D12*
X179768625Y-68036000D03*
D11*
X174093626Y-50506000D03*
D10*
X174748625Y-49776000D03*
X179788625Y-48696000D03*
D12*
X179768625Y-48986000D03*
D11*
X288393626Y-88606000D03*
D10*
X289048625Y-87876000D03*
D12*
X294068625Y-87086000D03*
D10*
X294088625Y-86796000D03*
X174748625Y-30726000D03*
D11*
X174093626Y-31456000D03*
D12*
X179768625Y-29936000D03*
D10*
X179788625Y-29646000D03*
D11*
X116943626Y-69556000D03*
D10*
X117598625Y-68826000D03*
X122638625Y-67746000D03*
D12*
X122618625Y-68036000D03*
D11*
X116943626Y-31456000D03*
D10*
X117598625Y-30726000D03*
X122638625Y-29646000D03*
D12*
X122618625Y-29936000D03*
D11*
X250293626Y-69556000D03*
D10*
X250948625Y-68826000D03*
X255988625Y-67746000D03*
D12*
X255968625Y-68036000D03*
D10*
X155698625Y-49776000D03*
D11*
X155043626Y-50506000D03*
D12*
X160718625Y-48986000D03*
D10*
X160738625Y-48696000D03*
D11*
X155043626Y-88606000D03*
D10*
X155698625Y-87876000D03*
D12*
X160718625Y-87086000D03*
D10*
X160738625Y-86796000D03*
X136648625Y-30726000D03*
D11*
X135993626Y-31456000D03*
D10*
X141688625Y-29646000D03*
D12*
X141668625Y-29936000D03*
D10*
X160738625Y-29646000D03*
D12*
X160718625Y-29936000D03*
D11*
X155043626Y-31456000D03*
D10*
X155698625Y-30726000D03*
D11*
X269343626Y-50506000D03*
D10*
X269998625Y-49776000D03*
X275038625Y-48696000D03*
D12*
X275018625Y-48986000D03*
D11*
X212193626Y-50506000D03*
D10*
X212848625Y-49776000D03*
X217888625Y-48696000D03*
D12*
X217868625Y-48986000D03*
D10*
X250948625Y-87876000D03*
D11*
X250293626Y-88606000D03*
D12*
X255968625Y-87086000D03*
D10*
X255988625Y-86796000D03*
D11*
X193143626Y-50506000D03*
D10*
X193798625Y-49776000D03*
X198838625Y-48696000D03*
D12*
X198818625Y-48986000D03*
D11*
X193143626Y-31456000D03*
D10*
X193798625Y-30726000D03*
D12*
X198818625Y-29936000D03*
D10*
X198838625Y-29646000D03*
X250948625Y-49776000D03*
D11*
X250293626Y-50506000D03*
D10*
X255988625Y-48696000D03*
D12*
X255968625Y-48986000D03*
D11*
X250293626Y-31456000D03*
D10*
X250948625Y-30726000D03*
X255988625Y-29646000D03*
D12*
X255968625Y-29936000D03*
D11*
X231243626Y-31456000D03*
D10*
X231898625Y-30726000D03*
D12*
X236918625Y-29936000D03*
D10*
X236938625Y-29646000D03*
D11*
X90749876Y-50506000D03*
D10*
X91404875Y-49776000D03*
X96444875Y-48696000D03*
D12*
X96424875Y-48986000D03*
D10*
X320004875Y-49776000D03*
D11*
X319349876Y-50506000D03*
D10*
X325044875Y-48696000D03*
D12*
X325024875Y-48986000D03*
D10*
X269998625Y-68826000D03*
D11*
X269343626Y-69556000D03*
D12*
X275018625Y-68036000D03*
D10*
X275038625Y-67746000D03*
X193798625Y-68826000D03*
D11*
X193143626Y-69556000D03*
D12*
X198818625Y-68036000D03*
D10*
X198838625Y-67746000D03*
X93786125Y-30726000D03*
D11*
X93131126Y-31456000D03*
D12*
X98806125Y-29936000D03*
D10*
X98826125Y-29646000D03*
D11*
X85987376Y-69556000D03*
D10*
X86642375Y-68826000D03*
X91682375Y-67746000D03*
D12*
X91662375Y-68036000D03*
D10*
X117598625Y-87876000D03*
D11*
X116943626Y-88606000D03*
D12*
X122618625Y-87086000D03*
D10*
X122638625Y-86796000D03*
D11*
X202668626Y-88606000D03*
D10*
X203323625Y-87876000D03*
X208363625Y-86796000D03*
D12*
X208343625Y-87086000D03*
D11*
X269343626Y-31456000D03*
D10*
X269998625Y-30726000D03*
X275038625Y-29646000D03*
D12*
X275018625Y-29936000D03*
D10*
X310479875Y-87876000D03*
D11*
X309824876Y-88606000D03*
D10*
X315519875Y-86796000D03*
D12*
X315499875Y-87086000D03*
D11*
X155043626Y-69556000D03*
D10*
X155698625Y-68826000D03*
D12*
X160718625Y-68036000D03*
D10*
X160738625Y-67746000D03*
X289048625Y-49776000D03*
D11*
X288393626Y-50506000D03*
D10*
X294088625Y-48696000D03*
D12*
X294068625Y-48986000D03*
X141668625Y-68036000D03*
D10*
X141688625Y-67746000D03*
X136648625Y-68826000D03*
D11*
X135993626Y-69556000D03*
D10*
X174748625Y-87876000D03*
D11*
X174093626Y-88606000D03*
D12*
X179768625Y-87086000D03*
D10*
X179788625Y-86796000D03*
D11*
X324112376Y-69556000D03*
D10*
X324767375Y-68826000D03*
X329807375Y-67746000D03*
D12*
X329787375Y-68036000D03*
D10*
X289048625Y-68826000D03*
D11*
X288393626Y-69556000D03*
D12*
X294068625Y-68036000D03*
D10*
X294088625Y-67746000D03*
D11*
X116943626Y-50506000D03*
D10*
X117598625Y-49776000D03*
X122638625Y-48696000D03*
D12*
X122618625Y-48986000D03*
D10*
X312861125Y-30726000D03*
D11*
X312206126Y-31456000D03*
D12*
X317881125Y-29936000D03*
D10*
X317901125Y-29646000D03*
X212848625Y-30726000D03*
D11*
X212193626Y-31456000D03*
D10*
X217888625Y-29646000D03*
D12*
X217868625Y-29936000D03*
D15*
X128623625Y-55926000D03*
X128623625Y-52626000D03*
X147673625Y-36876000D03*
X147673625Y-33576000D03*
X300073625Y-55926000D03*
X300073625Y-52626000D03*
X342936125Y-55926000D03*
X342936125Y-52626000D03*
X261973625Y-74976000D03*
X261973625Y-71676000D03*
X261973625Y-36876000D03*
X261973625Y-33576000D03*
X128623625Y-94026000D03*
X128623625Y-90726000D03*
X352461125Y-74976000D03*
X352461125Y-71676000D03*
X109573625Y-94026000D03*
X109573625Y-90726000D03*
X300073625Y-36876000D03*
X300073625Y-33576000D03*
X128623625Y-36876000D03*
X128623625Y-33576000D03*
X242923625Y-74976000D03*
X242923625Y-71676000D03*
X281023625Y-94026000D03*
X281023625Y-90726000D03*
X223873625Y-36876000D03*
X223873625Y-33576000D03*
X328648625Y-36876000D03*
X328648625Y-33576000D03*
X109573625Y-55926000D03*
X109573625Y-52626000D03*
X109573625Y-74976000D03*
X109573625Y-71676000D03*
X166723625Y-36876000D03*
X166723625Y-33576000D03*
X281023625Y-36876000D03*
X281023625Y-33576000D03*
X185773625Y-55926000D03*
X185773625Y-52626000D03*
X281023625Y-55926000D03*
X281023625Y-52626000D03*
X242923625Y-55926000D03*
X242923625Y-52626000D03*
X242923625Y-94026000D03*
X242923625Y-90726000D03*
X261973625Y-94026000D03*
X261973625Y-90726000D03*
X166723625Y-94026000D03*
X166723625Y-90726000D03*
X204823625Y-74976000D03*
X204823625Y-71676000D03*
X128623625Y-74976000D03*
X128623625Y-71676000D03*
X185773625Y-36876000D03*
X185773625Y-33576000D03*
X261973625Y-55926000D03*
X261973625Y-52626000D03*
X147673625Y-55926000D03*
X147673625Y-52626000D03*
X223873625Y-74976000D03*
X223873625Y-71676000D03*
X166723625Y-74976000D03*
X166723625Y-71676000D03*
X147673625Y-74976000D03*
X147673625Y-71676000D03*
X147673625Y-94026000D03*
X147673625Y-90726000D03*
X185773625Y-94026000D03*
X185773625Y-90726000D03*
X204823625Y-55926000D03*
X204823625Y-52626000D03*
X109573625Y-36876000D03*
X109573625Y-33576000D03*
X204823625Y-36876000D03*
X204823625Y-33576000D03*
X223873625Y-55926000D03*
X223873625Y-52626000D03*
X185773625Y-74976000D03*
X185773625Y-71676000D03*
X281023625Y-74976000D03*
X281023625Y-71676000D03*
X323886125Y-94026000D03*
X323886125Y-90726000D03*
X300073625Y-94026000D03*
X300073625Y-90726000D03*
X223873625Y-94026000D03*
X223873625Y-90726000D03*
X166723625Y-55926000D03*
X166723625Y-52626000D03*
X300073625Y-74976000D03*
X300073625Y-71676000D03*
X242923625Y-36876000D03*
X242923625Y-33576000D03*
D16*
X301397625Y-27500000D02*
X85750000Y-27500000D01*
X84983125Y-28266875D02*
X84983125Y-29011000D01*
X304623625Y-30726000D02*
X301397625Y-27500000D01*
X85750000Y-27500000D02*
X84983125Y-28266875D01*
X312861125Y-30726000D02*
X304623625Y-30726000D01*
X88449000Y-31551000D02*
X84983125Y-31551000D01*
X91804000Y-28196000D02*
X88449000Y-31551000D01*
X286518625Y-28196000D02*
X91804000Y-28196000D01*
X289048625Y-30726000D02*
X286518625Y-28196000D01*
X93926094Y-95750255D02*
X82804000Y-84628161D01*
X82804000Y-48970125D02*
X84983125Y-46791000D01*
X107849370Y-95750255D02*
X93926094Y-95750255D01*
X82804000Y-84628161D02*
X82804000Y-48970125D01*
X109573625Y-94026000D02*
X107849370Y-95750255D01*
X87376000Y-46643875D02*
X84983125Y-44251000D01*
X87884000Y-56896000D02*
X87376000Y-56388000D01*
X87376000Y-56388000D02*
X87376000Y-46643875D01*
X97506560Y-56896000D02*
X87884000Y-56896000D01*
X110498625Y-69888065D02*
X97506560Y-56896000D01*
X110498625Y-74051000D02*
X110498625Y-69888065D01*
X109573625Y-74976000D02*
X110498625Y-74051000D01*
X95953092Y-51249092D02*
X86415000Y-41711000D01*
X86415000Y-41711000D02*
X84983125Y-41711000D01*
X104896717Y-51249092D02*
X95953092Y-51249092D01*
X109573625Y-55926000D02*
X104896717Y-51249092D01*
X109573625Y-36876000D02*
X107278625Y-39171000D01*
X107278625Y-39171000D02*
X84983125Y-39171000D01*
X84983125Y-34091000D02*
X84983125Y-36631000D01*
X69743125Y-31551000D02*
X82443125Y-31551000D01*
X82443125Y-31551000D02*
X84983125Y-34091000D01*
X302567625Y-96520000D02*
X321392125Y-96520000D01*
X321392125Y-96520000D02*
X323886125Y-94026000D01*
X300073625Y-94026000D02*
X302567625Y-96520000D01*
X298658000Y-94026000D02*
X300073625Y-94026000D01*
X297180000Y-95504000D02*
X298658000Y-94026000D01*
X282501625Y-95504000D02*
X297180000Y-95504000D01*
X281023625Y-94026000D02*
X282501625Y-95504000D01*
X278846000Y-94026000D02*
X281023625Y-94026000D01*
X276352000Y-96520000D02*
X278846000Y-94026000D01*
X264467625Y-96520000D02*
X276352000Y-96520000D01*
X261973625Y-94026000D02*
X264467625Y-96520000D01*
X261066000Y-94026000D02*
X261973625Y-94026000D01*
X259588000Y-95504000D02*
X261066000Y-94026000D01*
X244401625Y-95504000D02*
X259588000Y-95504000D01*
X242923625Y-94026000D02*
X244401625Y-95504000D01*
X241445625Y-95504000D02*
X242923625Y-94026000D01*
X225351625Y-95504000D02*
X241445625Y-95504000D01*
X223873625Y-94026000D02*
X225351625Y-95504000D01*
X221442000Y-94026000D02*
X223873625Y-94026000D01*
X219964000Y-95504000D02*
X221442000Y-94026000D01*
X187251625Y-95504000D02*
X219964000Y-95504000D01*
X185773625Y-94026000D02*
X187251625Y-95504000D01*
X183896000Y-96012000D02*
X185773625Y-94134375D01*
X185773625Y-94134375D02*
X185773625Y-94026000D01*
X168709625Y-96012000D02*
X183896000Y-96012000D01*
X166723625Y-94026000D02*
X168709625Y-96012000D01*
X149151625Y-95504000D02*
X165245625Y-95504000D01*
X147673625Y-94026000D02*
X149151625Y-95504000D01*
X165245625Y-95504000D02*
X166723625Y-94026000D01*
X130101625Y-95504000D02*
X146195625Y-95504000D01*
X146195625Y-95504000D02*
X147673625Y-94026000D01*
X128623625Y-94026000D02*
X130101625Y-95504000D01*
X127145625Y-95504000D02*
X128623625Y-94026000D01*
X111051625Y-95504000D02*
X127145625Y-95504000D01*
X109573625Y-94026000D02*
X111051625Y-95504000D01*
X116840000Y-76200000D02*
X115616000Y-74976000D01*
X127399625Y-76200000D02*
X116840000Y-76200000D01*
X128623625Y-74976000D02*
X127399625Y-76200000D01*
X115616000Y-74976000D02*
X109573625Y-74976000D01*
X132588000Y-76200000D02*
X131364000Y-74976000D01*
X146449625Y-76200000D02*
X132588000Y-76200000D01*
X147673625Y-74976000D02*
X146449625Y-76200000D01*
X131364000Y-74976000D02*
X128623625Y-74976000D01*
X152908000Y-76200000D02*
X151684000Y-74976000D01*
X165499625Y-76200000D02*
X152908000Y-76200000D01*
X151684000Y-74976000D02*
X147673625Y-74976000D01*
X166723625Y-74976000D02*
X165499625Y-76200000D01*
X170688000Y-76200000D02*
X169464000Y-74976000D01*
X184549625Y-76200000D02*
X170688000Y-76200000D01*
X169464000Y-74976000D02*
X166723625Y-74976000D01*
X185773625Y-74976000D02*
X184549625Y-76200000D01*
X187752000Y-74976000D02*
X185773625Y-74976000D01*
X188976000Y-76200000D02*
X187752000Y-74976000D01*
X203599625Y-76200000D02*
X188976000Y-76200000D01*
X204823625Y-74976000D02*
X203599625Y-76200000D01*
X207056000Y-74976000D02*
X204823625Y-74976000D01*
X208280000Y-76200000D02*
X207056000Y-74976000D01*
X222649625Y-76200000D02*
X208280000Y-76200000D01*
X223873625Y-74976000D02*
X222649625Y-76200000D01*
X229108000Y-76200000D02*
X227884000Y-74976000D01*
X241699625Y-76200000D02*
X229108000Y-76200000D01*
X227884000Y-74976000D02*
X223873625Y-74976000D01*
X242923625Y-74976000D02*
X241699625Y-76200000D01*
X244140000Y-74976000D02*
X242923625Y-74976000D01*
X245364000Y-76200000D02*
X244140000Y-74976000D01*
X260749625Y-76200000D02*
X245364000Y-76200000D01*
X261973625Y-74976000D02*
X260749625Y-76200000D01*
X264668000Y-75692000D02*
X263952000Y-74976000D01*
X280307625Y-75692000D02*
X264668000Y-75692000D01*
X281023625Y-74976000D02*
X280307625Y-75692000D01*
X263952000Y-74976000D02*
X261973625Y-74976000D01*
X282247625Y-76200000D02*
X281023625Y-74976000D01*
X298849625Y-76200000D02*
X282247625Y-76200000D01*
X300073625Y-74976000D02*
X298849625Y-76200000D01*
X301847263Y-76749638D02*
X300073625Y-74976000D01*
X350687487Y-76749638D02*
X301847263Y-76749638D01*
X352461125Y-74976000D02*
X350687487Y-76749638D01*
X329767375Y-68326000D02*
X349111125Y-68326000D01*
X349111125Y-68326000D02*
X352461125Y-71676000D01*
X338282000Y-55926000D02*
X342936125Y-55926000D01*
X337312000Y-56896000D02*
X338282000Y-55926000D01*
X301043625Y-56896000D02*
X337312000Y-56896000D01*
X300073625Y-55926000D02*
X301043625Y-56896000D01*
X298658000Y-55926000D02*
X300073625Y-55926000D01*
X296672000Y-57912000D02*
X298658000Y-55926000D01*
X283009625Y-57912000D02*
X296672000Y-57912000D01*
X281023625Y-55926000D02*
X283009625Y-57912000D01*
X262943625Y-56896000D02*
X276860000Y-56896000D01*
X276860000Y-56896000D02*
X277830000Y-55926000D01*
X261973625Y-55926000D02*
X262943625Y-56896000D01*
X277830000Y-55926000D02*
X281023625Y-55926000D01*
X259588000Y-56896000D02*
X260558000Y-55926000D01*
X243893625Y-56896000D02*
X259588000Y-56896000D01*
X260558000Y-55926000D02*
X261973625Y-55926000D01*
X242923625Y-55926000D02*
X243893625Y-56896000D01*
X241254000Y-55926000D02*
X242923625Y-55926000D01*
X224843625Y-56896000D02*
X240284000Y-56896000D01*
X240284000Y-56896000D02*
X241254000Y-55926000D01*
X223873625Y-55926000D02*
X224843625Y-56896000D01*
X221950000Y-55926000D02*
X223873625Y-55926000D01*
X220980000Y-56896000D02*
X221950000Y-55926000D01*
X205793625Y-56896000D02*
X220980000Y-56896000D01*
X204823625Y-55926000D02*
X205793625Y-56896000D01*
X203853625Y-56896000D02*
X204823625Y-55926000D01*
X186743625Y-56896000D02*
X203853625Y-56896000D01*
X185773625Y-55926000D02*
X186743625Y-56896000D01*
X167693625Y-56896000D02*
X183388000Y-56896000D01*
X183388000Y-56896000D02*
X184358000Y-55926000D01*
X166723625Y-55926000D02*
X167693625Y-56896000D01*
X184358000Y-55926000D02*
X185773625Y-55926000D01*
X165753625Y-56896000D02*
X166723625Y-55926000D01*
X148643625Y-56896000D02*
X165753625Y-56896000D01*
X147673625Y-55926000D02*
X148643625Y-56896000D01*
X129593625Y-56896000D02*
X146703625Y-56896000D01*
X146703625Y-56896000D02*
X147673625Y-55926000D01*
X128623625Y-55926000D02*
X129593625Y-56896000D01*
X127653625Y-56896000D02*
X128623625Y-55926000D01*
X110543625Y-56896000D02*
X127653625Y-56896000D01*
X109573625Y-55926000D02*
X110543625Y-56896000D01*
X126700000Y-36876000D02*
X128623625Y-36876000D01*
X125984000Y-37592000D02*
X126700000Y-36876000D01*
X110289625Y-37592000D02*
X125984000Y-37592000D01*
X109573625Y-36876000D02*
X110289625Y-37592000D01*
X147528000Y-36876000D02*
X146812000Y-37592000D01*
X147673625Y-36876000D02*
X147528000Y-36876000D01*
X129339625Y-37592000D02*
X146812000Y-37592000D01*
X128623625Y-36876000D02*
X129339625Y-37592000D01*
X164592000Y-38100000D02*
X165816000Y-36876000D01*
X165816000Y-36876000D02*
X166723625Y-36876000D01*
X148897625Y-38100000D02*
X164592000Y-38100000D01*
X147673625Y-36876000D02*
X148897625Y-38100000D01*
X183896000Y-37592000D02*
X184612000Y-36876000D01*
X167439625Y-37592000D02*
X183896000Y-37592000D01*
X184612000Y-36876000D02*
X185773625Y-36876000D01*
X166723625Y-36876000D02*
X167439625Y-37592000D01*
X204107625Y-37592000D02*
X204823625Y-36876000D01*
X186489625Y-37592000D02*
X204107625Y-37592000D01*
X185773625Y-36876000D02*
X186489625Y-37592000D01*
X221488000Y-37592000D02*
X222204000Y-36876000D01*
X205539625Y-37592000D02*
X221488000Y-37592000D01*
X204823625Y-36876000D02*
X205539625Y-37592000D01*
X222204000Y-36876000D02*
X223873625Y-36876000D01*
X241508000Y-36876000D02*
X242923625Y-36876000D01*
X224589625Y-37592000D02*
X240792000Y-37592000D01*
X240792000Y-37592000D02*
X241508000Y-36876000D01*
X223873625Y-36876000D02*
X224589625Y-37592000D01*
X244147625Y-38100000D02*
X242923625Y-36876000D01*
X261973625Y-36876000D02*
X260749625Y-38100000D01*
X260749625Y-38100000D02*
X244147625Y-38100000D01*
X278842263Y-39057362D02*
X264154987Y-39057362D01*
X264154987Y-39057362D02*
X261973625Y-36876000D01*
X281023625Y-36876000D02*
X278842263Y-39057362D01*
X281023625Y-37183625D02*
X281432000Y-37592000D01*
X281023625Y-36876000D02*
X281023625Y-37183625D01*
X299357625Y-37592000D02*
X281432000Y-37592000D01*
X300073625Y-36876000D02*
X299357625Y-37592000D01*
X301797880Y-38600255D02*
X300073625Y-36876000D01*
X326924370Y-38600255D02*
X301797880Y-38600255D01*
X328648625Y-36876000D02*
X326924370Y-38600255D01*
X320536125Y-87376000D02*
X315479875Y-87376000D01*
X323886125Y-90726000D02*
X320536125Y-87376000D01*
X339586125Y-49276000D02*
X325004875Y-49276000D01*
X342936125Y-52626000D02*
X339586125Y-49276000D01*
X325298625Y-30226000D02*
X328648625Y-33576000D01*
X317861125Y-30226000D02*
X325298625Y-30226000D01*
X296143625Y-29646000D02*
X294088625Y-29646000D01*
X300073625Y-33576000D02*
X296143625Y-29646000D01*
X300073625Y-52626000D02*
X296723625Y-49276000D01*
X296723625Y-49276000D02*
X294048625Y-49276000D01*
X296723625Y-68326000D02*
X294048625Y-68326000D01*
X300073625Y-71676000D02*
X296723625Y-68326000D01*
X296723625Y-87376000D02*
X294048625Y-87376000D01*
X300073625Y-90726000D02*
X296723625Y-87376000D01*
X277673625Y-87376000D02*
X274998625Y-87376000D01*
X281023625Y-90726000D02*
X277673625Y-87376000D01*
X277673625Y-68326000D02*
X274998625Y-68326000D01*
X281023625Y-71676000D02*
X277673625Y-68326000D01*
X277673625Y-49276000D02*
X274998625Y-49276000D01*
X281023625Y-52626000D02*
X277673625Y-49276000D01*
X281023625Y-33576000D02*
X277673625Y-30226000D01*
X277673625Y-30226000D02*
X274998625Y-30226000D01*
X258623625Y-30226000D02*
X255948625Y-30226000D01*
X261973625Y-33576000D02*
X258623625Y-30226000D01*
X258623625Y-49276000D02*
X255948625Y-49276000D01*
X261973625Y-52626000D02*
X258623625Y-49276000D01*
X258623625Y-68326000D02*
X255948625Y-68326000D01*
X261973625Y-71676000D02*
X258623625Y-68326000D01*
X258623625Y-87376000D02*
X255948625Y-87376000D01*
X261973625Y-90726000D02*
X258623625Y-87376000D01*
X242923625Y-90726000D02*
X239573625Y-87376000D01*
X239573625Y-87376000D02*
X236898625Y-87376000D01*
X239573625Y-68326000D02*
X236898625Y-68326000D01*
X242923625Y-71676000D02*
X239573625Y-68326000D01*
X239573625Y-49276000D02*
X236898625Y-49276000D01*
X242923625Y-52626000D02*
X239573625Y-49276000D01*
X242923625Y-33576000D02*
X239573625Y-30226000D01*
X239573625Y-30226000D02*
X236898625Y-30226000D01*
X220523625Y-30226000D02*
X217848625Y-30226000D01*
X223873625Y-33576000D02*
X220523625Y-30226000D01*
X223873625Y-52626000D02*
X219943625Y-48696000D01*
X219943625Y-48696000D02*
X217888625Y-48696000D01*
X220523625Y-68326000D02*
X217848625Y-68326000D01*
X223873625Y-71676000D02*
X220523625Y-68326000D01*
X212293625Y-90726000D02*
X208363625Y-86796000D01*
X223873625Y-90726000D02*
X212293625Y-90726000D01*
X204823625Y-71676000D02*
X201473625Y-68326000D01*
X201473625Y-68326000D02*
X198798625Y-68326000D01*
X201473625Y-49276000D02*
X198798625Y-49276000D01*
X204823625Y-52626000D02*
X201473625Y-49276000D01*
X200893625Y-29646000D02*
X198838625Y-29646000D01*
X204823625Y-33576000D02*
X200893625Y-29646000D01*
X182423625Y-87376000D02*
X179748625Y-87376000D01*
X185773625Y-90726000D02*
X182423625Y-87376000D01*
X182423625Y-68326000D02*
X179748625Y-68326000D01*
X185773625Y-71676000D02*
X182423625Y-68326000D01*
X182423625Y-49276000D02*
X179748625Y-49276000D01*
X185773625Y-52626000D02*
X182423625Y-49276000D01*
X182423625Y-30226000D02*
X179748625Y-30226000D01*
X185773625Y-33576000D02*
X182423625Y-30226000D01*
X163373625Y-68326000D02*
X160698625Y-68326000D01*
X166723625Y-71676000D02*
X163373625Y-68326000D01*
X163373625Y-49276000D02*
X160698625Y-49276000D01*
X166723625Y-52626000D02*
X163373625Y-49276000D01*
X163373625Y-30226000D02*
X160698625Y-30226000D01*
X166723625Y-33576000D02*
X163373625Y-30226000D01*
X163373625Y-87376000D02*
X160698625Y-87376000D01*
X166723625Y-90726000D02*
X163373625Y-87376000D01*
X143743625Y-86796000D02*
X141688625Y-86796000D01*
X147673625Y-90726000D02*
X143743625Y-86796000D01*
X144323625Y-68326000D02*
X141648625Y-68326000D01*
X147673625Y-71676000D02*
X144323625Y-68326000D01*
X144323625Y-49276000D02*
X141648625Y-49276000D01*
X147673625Y-52626000D02*
X144323625Y-49276000D01*
X144323625Y-30226000D02*
X141648625Y-30226000D01*
X147673625Y-33576000D02*
X144323625Y-30226000D01*
X125273625Y-87376000D02*
X122598625Y-87376000D01*
X128623625Y-90726000D02*
X125273625Y-87376000D01*
X125273625Y-68326000D02*
X122598625Y-68326000D01*
X128623625Y-71676000D02*
X125273625Y-68326000D01*
X128623625Y-52626000D02*
X125273625Y-49276000D01*
X125273625Y-49276000D02*
X122598625Y-49276000D01*
X125273625Y-30226000D02*
X122598625Y-30226000D01*
X128623625Y-33576000D02*
X125273625Y-30226000D01*
X106223625Y-87376000D02*
X101167375Y-87376000D01*
X109573625Y-90726000D02*
X106223625Y-87376000D01*
X106223625Y-30226000D02*
X98786125Y-30226000D01*
X109573625Y-33576000D02*
X106223625Y-30226000D01*
X106223625Y-49276000D02*
X96404875Y-49276000D01*
X109573625Y-52626000D02*
X106223625Y-49276000D01*
X106223625Y-68326000D02*
X91642375Y-68326000D01*
X109573625Y-71676000D02*
X106223625Y-68326000D01*
M02*
